<svg width="281" height="284" viewBox="0 0 281 284" fill="none" xmlns="http://www.w3.org/2000/svg">
<ellipse cx="140.162" cy="141.61" rx="140.162" ry="141.61" fill="#49B1CC"/>
<path d="M90.3929 174.591C79.9426 151.129 121.7 147.778 116.893 174.591C112.271 200.368 112.987 213.865 112.189 237.411C112.134 239.022 110.809 240.302 109.197 240.302H103.404C101.929 240.302 100.67 239.229 100.462 237.768C97.0179 213.528 100.495 197.272 90.3929 174.591Z" fill="#88857E"/>
<path d="M165.497 174.591C155.047 151.129 196.804 147.778 191.997 174.591C187.375 200.368 188.091 213.865 187.293 237.411C187.238 239.022 185.913 240.302 184.301 240.302H178.508C177.033 240.302 175.774 239.229 175.566 237.768C172.122 213.528 175.599 197.272 165.497 174.591Z" fill="#88857E"/>
<path d="M53.7391 150.59C51.8434 147.269 54.2384 143.148 58.063 143.148H222.04C225.655 143.148 228.064 146.868 226.665 150.202C221.325 162.921 220.411 168.091 218.942 182.791C218.684 185.373 216.492 187.345 213.897 187.319C158.879 186.762 126.693 186.826 73.0753 187.328C70.7252 187.35 68.6719 185.724 68.0951 183.446C64.629 169.756 60.9217 163.176 53.7391 150.59Z" fill="#FAEEE2"/>
<path d="M65.6641 67.021C65.721 64.2585 67.9537 62.0071 70.7169 62.0071H212.692C215.271 62.0071 217.424 63.9782 217.692 66.5432C220.95 97.7372 226.333 117.404 236.473 148.022C237.608 151.448 234.858 154.928 231.262 154.634C171.303 149.733 124.891 152.009 49.9564 154.978C46.2753 155.124 43.7079 151.367 45.1558 147.979C58.3434 117.125 65.038 97.3828 65.6641 67.021Z" fill="#FFD876"/>
<rect width="123.952" height="8.13885" rx="4.06943" transform="matrix(0.999991 -0.00428429 0.00284403 0.999996 78.8179 125.257)" fill="#CCAD5E"/>
</svg>
