<svg width="302" height="213" viewBox="0 0 302 213" fill="none" xmlns="http://www.w3.org/2000/svg">
<rect width="302" height="213" fill="white"/>
<ellipse cx="151.162" cy="105.856" rx="67.1624" ry="67.8562" fill="#49B1CC"/>
<path d="M127.314 121.66C122.306 110.417 142.316 108.811 140.012 121.66C137.895 133.465 138.115 139.895 137.805 150.29C137.757 151.883 136.447 153.147 134.853 153.147V153.147C133.395 153.147 132.147 152.085 131.966 150.638C130.605 139.727 131.973 132.119 127.314 121.66Z" fill="#88857E"/>
<path d="M163.302 121.66C158.294 110.417 178.304 108.811 176 121.66C173.883 133.465 174.103 139.895 173.793 150.29C173.745 151.883 172.435 153.147 170.841 153.147V153.147C169.383 153.147 168.135 152.085 167.954 150.638C166.593 139.727 167.961 132.119 163.302 121.66Z" fill="#88857E"/>
<path d="M111.934 114.039C110.101 110.682 112.451 106.593 116.276 106.593H186.395C190.01 106.593 192.356 110.285 191.157 113.695C190.046 116.855 189.598 119.281 189.16 123.215C188.873 125.793 186.699 127.76 184.105 127.735C159.885 127.5 144.796 127.528 121.114 127.744C118.763 127.765 116.736 126.139 116.083 123.882C114.967 120.02 113.729 117.328 111.934 114.039Z" fill="#FAEEE2"/>
<path d="M115.377 72.7179C115.507 69.9578 117.729 67.7122 120.492 67.7122H183.548C186.126 67.7122 188.274 69.6765 188.572 72.2381C190.008 84.5791 192.242 93.2798 196.071 105.138C197.18 108.572 194.438 112.051 190.839 111.791C165.082 109.93 143.966 110.824 112.083 112.097C108.402 112.243 105.837 108.492 107.247 105.089C112.152 93.2512 114.821 84.5951 115.377 72.7179Z" fill="#FFD876"/>
<rect width="59.3949" height="3.89994" rx="1.94997" transform="matrix(0.999991 -0.00428429 0.00284403 0.999996 121.768 98.02)" fill="#CCAD5E"/>
</svg>
