<svg width="36" height="36" viewBox="0 0 36 36" fill="none" xmlns="http://www.w3.org/2000/svg">
<path d="M2.57557 6.25586C2.2598 6.25586 2.01294 6.50169 2.01294 6.81643V29.1837C2.01294 29.4985 2.2598 29.7443 2.57557 29.7443H33.4245C33.7403 29.7443 33.9871 29.4985 33.9871 29.1837V6.81643C33.9871 6.50169 33.7403 6.25586 33.4245 6.25586H2.57557ZM3.89523 7.377H32.1048L18 23.3055L4.65225 8.23277L3.89523 7.377ZM3.13408 8.20809L11.3863 17.528L3.13408 27.6152V9.56477V8.20809ZM32.8639 8.20809V27.6141L24.6137 17.5269L31.9639 9.22226L32.8639 8.20809ZM23.8598 18.3776L32.2427 28.6232H3.75431L11.9109 18.6573H12.3871L17.5824 24.5212C17.6884 24.6416 17.8385 24.7105 18 24.7105C18.1615 24.7105 18.3117 24.6416 18.4176 24.5212L23.8598 18.3776Z" fill="#1E1D1D"/>
</svg>
