<svg width="1439" height="141" viewBox="0 0 1439 141" fill="none" xmlns="http://www.w3.org/2000/svg">
<rect x="1443.22" width="105.999" height="1443.15" transform="rotate(90 1443.22 0)" fill="#2D6086"/>
<line x1="1294.44" y1="98.3057" x2="1444.08" y2="98.3057" stroke="#2F8B8B" stroke-width="2"/>
<line x1="1290.7" y1="3.46289" x2="1444.08" y2="3.46289" stroke="#2F8B8B" stroke-width="2"/>
<path d="M1300.24 45.6113L1305.11 49.5998C1306.09 50.4046 1306.08 51.908 1305.09 52.7039L1301.37 55.7007L1293.41 61.989C1292.75 62.5067 1291.79 62.0397 1291.79 61.2041L1291.79 41.0941C1291.79 40.2626 1292.74 39.7943 1293.4 40.3038L1300.24 45.6113Z" fill="#2F8B8B"/>
<path d="M1318.09 47.0303C1318.46 46.786 1318.96 46.786 1319.34 47.0303L1324.46 50.4001C1325.03 50.777 1325.03 51.5429 1324.46 51.9197L1319.34 55.2895C1318.96 55.5338 1318.46 55.5338 1318.09 55.2895L1312.96 51.9197C1312.39 51.5428 1312.39 50.7769 1312.96 50.4001L1318.09 47.0303Z" fill="#2F8B8B"/>
<path d="M1384.51 4.44715L1380.68 9.73807C1380.28 10.2937 1379.39 10.3274 1378.95 9.80342L1374.5 4.44715L1379.86 4.4471L1384.51 4.44715Z" fill="#2F8B8B"/>
<path d="M1374.53 4.44715L1370.71 9.73807C1370.31 10.2937 1369.41 10.3274 1368.98 9.80342L1364.52 4.44715L1369.88 4.4471L1374.53 4.44715Z" fill="#2F8B8B"/>
<path d="M1364.55 4.44715L1360.73 9.73807C1360.33 10.2937 1359.44 10.3274 1359 9.80342L1354.54 4.44715L1359.9 4.4471L1364.55 4.44715Z" fill="#2F8B8B"/>
<path d="M1383.26 97.9332L1379.44 92.6423C1379.03 92.0866 1378.14 92.0529 1377.71 92.577L1373.25 97.9332L1378.61 97.9333L1383.26 97.9332Z" fill="#2F8B8B"/>
<path d="M1373.28 97.9332L1369.46 92.6423C1369.06 92.0866 1368.17 92.0529 1367.73 92.577L1363.27 97.9332L1368.63 97.9333L1373.28 97.9332Z" fill="#2F8B8B"/>
<path d="M1363.3 97.9332L1359.48 92.6423C1359.08 92.0866 1358.19 92.0529 1357.75 92.577L1353.29 97.9332L1358.65 97.9333L1363.3 97.9332Z" fill="#2F8B8B"/>
<path d="M1434.38 45.6113L1429.52 49.5998C1428.54 50.4046 1428.54 51.908 1429.53 52.7039L1433.25 55.7007L1441.22 61.989C1441.87 62.5067 1442.84 62.0397 1442.84 61.2041L1442.84 41.0941C1442.84 40.2626 1441.88 39.7943 1441.22 40.3038L1434.38 45.6113Z" fill="#2F8B8B"/>
<path d="M1416.54 47.0303C1416.16 46.786 1415.66 46.786 1415.29 47.0303L1410.16 50.4001C1409.59 50.777 1409.59 51.5429 1410.16 51.9197L1415.29 55.2895C1415.66 55.5338 1416.16 55.5338 1416.54 55.2895L1421.66 51.9197C1422.23 51.5428 1422.23 50.7769 1421.66 50.4001L1416.54 47.0303Z" fill="#2F8B8B"/>
<path d="M1441.76 6.60932C1441.76 6.60932 1417.71 17.7807 1403.1 26.1355C1387.38 35.1254 1364.44 48.4461 1364.44 51.2406C1364.44 54.0351 1386.86 66.3513 1401.85 75.2299C1417.07 84.2443 1443.46 97.5454 1443.46 97.5454C1443.46 97.5454 1444.08 99.3073 1439.72 98.7494C1435.35 98.1916 1418.28 87.5038 1406.22 80.8088C1386.19 69.6945 1355.71 55.1458 1355.71 51.2406C1355.71 47.3353 1385.71 31.7501 1406.22 21.1145C1419.32 14.3216 1437.39 5.5803 1441.76 3.9064C1446.12 2.23249 1441.76 6.60932 1441.76 6.60932Z" fill="#2F8B8B"/>
<path d="M1290.7 4.4636C1290.7 4.4636 1318.66 17.7775 1333.26 26.1323C1348.98 35.1223 1371.92 48.4429 1371.92 51.2374C1371.92 54.0319 1349.5 66.3481 1334.51 75.2267C1319.3 84.2411 1294.61 96.9845 1294.61 96.9845C1294.61 96.9845 1294.61 98.1003 1298.97 97.5424C1303.34 96.9845 1318.08 87.5007 1330.15 80.8056C1350.18 69.6913 1380.65 55.1426 1380.65 51.2374C1380.65 47.3322 1350.66 31.7469 1330.15 21.1113C1317.05 14.3184 1300.22 6.60638 1295.85 4.93247C1291.49 3.25857 1290.7 4.4636 1290.7 4.4636Z" fill="#2F8B8B"/>
<path d="M1350.56 51.2379C1350.56 54.5853 1334 62.2976 1322.5 68.5325C1311.04 74.7439 1294.44 85.2689 1291.94 83.0377C1289.45 80.8065 1291.94 78.5746 1291.94 78.5746C1291.94 78.5746 1309 70.211 1319.38 64.0694C1327.38 59.3337 1339.33 54.0274 1339.33 51.2379C1339.33 48.4485 1327.53 42.6147 1319.38 37.8485C1309.62 32.1428 1293.19 25.017 1293.19 25.017C1293.19 25.017 1290.7 23.3438 1291.94 20.5539C1293.19 17.764 1311.18 28.0743 1322.5 33.9433C1334.25 40.0407 1350.56 47.8906 1350.56 51.2379Z" fill="#2F8B8B"/>
<path d="M1383.12 51.2379C1383.12 54.5853 1399.68 62.2976 1411.18 68.5325C1422.63 74.7439 1439.24 85.2689 1441.73 83.0377C1444.22 80.8065 1441.73 78.5746 1441.73 78.5746C1441.73 78.5746 1424.67 70.211 1414.29 64.0694C1406.29 59.3337 1394.34 54.0274 1394.34 51.2379C1394.34 48.4485 1406.14 42.6147 1414.29 37.8485C1424.06 32.1428 1440.48 25.017 1440.48 25.017C1440.48 25.017 1442.98 23.3438 1441.73 20.5539C1440.48 17.764 1422.49 28.0743 1411.18 33.9433C1399.42 40.0407 1383.12 47.8906 1383.12 51.2379Z" fill="#2F8B8B"/>
<path d="M1414.15 3.34766C1414.15 3.34766 1399.81 15.0634 1392.33 23.4317C1384.37 32.3371 1368.64 43.5158 1368.64 43.5158C1368.64 43.5158 1353.7 30.7046 1344.32 22.3159C1337.46 16.1791 1328.11 3.34766 1328.11 3.34766L1334.97 3.34766C1334.97 3.34766 1333.7 10.6002 1348.68 22.3159C1356.98 28.8032 1365.52 39.0527 1368.64 38.4948C1371.75 37.9369 1382.07 30.2668 1388.59 22.3159C1395.45 13.9476 1407.92 3.34766 1407.92 3.34766L1414.15 3.34766Z" fill="#2F8B8B"/>
<path d="M1414.15 98.1899C1414.15 98.1899 1399.81 86.4742 1392.33 78.1059C1384.37 69.2005 1368.64 58.0218 1368.64 58.0218C1368.64 58.0218 1353.7 70.833 1344.32 79.2217C1337.46 85.3585 1328.11 98.1899 1328.11 98.1899L1334.97 98.1899C1334.97 98.1899 1333.7 90.9374 1348.68 79.2217C1356.98 72.7344 1365.52 62.4849 1368.64 63.0428C1371.75 63.6007 1382.07 71.2708 1388.59 79.2217C1395.45 87.59 1407.92 98.1899 1407.92 98.1899L1414.15 98.1899Z" fill="#2F8B8B"/>
<path d="M1397.94 3.34766C1397.94 3.34766 1386.1 16.737 1381.73 22.3159C1377.37 27.8949 1371.76 30.1264 1369.23 30.1264C1366.7 30.1264 1361.21 25.8584 1356.79 22.3159C1349.14 16.1806 1341.2 3.34766 1341.2 3.34766L1346.81 3.34766C1346.81 3.34766 1347.9 9.06208 1352.43 13.3897C1356.77 17.539 1362.89 24.599 1369.23 24.9986C1376.16 25.4357 1378.89 20.1897 1383.6 15.6213C1387.91 11.4461 1392.33 3.34766 1392.33 3.34766L1397.94 3.34766Z" fill="#2F8B8B"/>
<path d="M1397.94 98.1899C1397.94 98.1899 1386.1 84.8006 1381.73 79.2217C1377.37 73.6427 1371.76 71.4112 1369.23 71.4112C1366.7 71.4112 1361.21 75.6792 1356.79 79.2217C1349.14 85.357 1341.2 98.1899 1341.2 98.1899L1346.81 98.1899C1346.81 98.1899 1347.9 92.4755 1352.43 88.1479C1356.77 83.9986 1362.89 76.9386 1369.23 76.539C1376.16 76.1019 1378.89 81.3479 1383.6 85.9163C1387.91 90.0915 1392.33 98.1899 1392.33 98.1899L1397.94 98.1899Z" fill="#2F8B8B"/>
<line x1="1177.22" y1="98.3052" x2="1326.86" y2="98.3052" stroke="#2F8B8B" stroke-width="2"/>
<line x1="1173.47" y1="3.4624" x2="1326.86" y2="3.4624" stroke="#2F8B8B" stroke-width="2"/>
<path d="M1183.02 45.6108L1187.88 49.5993C1188.87 50.4041 1188.86 51.9075 1187.87 52.7035L1184.15 55.7002L1176.18 61.9885C1175.53 62.5063 1174.56 62.0392 1174.56 61.2037L1174.56 41.0936C1174.56 40.2621 1175.52 39.7938 1176.18 40.3034L1183.02 45.6108Z" fill="#2F8B8B"/>
<path d="M1200.87 47.0298C1201.24 46.7855 1201.74 46.7855 1202.11 47.0298L1207.24 50.3997C1207.81 50.7765 1207.81 51.5424 1207.24 51.9192L1202.11 55.289C1201.74 55.5333 1201.24 55.5333 1200.87 55.289L1195.74 51.9192C1195.17 51.5424 1195.17 50.7765 1195.74 50.3996L1200.87 47.0298Z" fill="#2F8B8B"/>
<path d="M1267.28 4.44666L1263.46 9.73758C1263.06 10.2933 1262.17 10.3269 1261.73 9.80293L1257.27 4.44666L1262.63 4.44662L1267.28 4.44666Z" fill="#2F8B8B"/>
<path d="M1257.31 4.44666L1253.49 9.73758C1253.08 10.2933 1252.19 10.3269 1251.76 9.80293L1247.3 4.44666L1252.66 4.44662L1257.31 4.44666Z" fill="#2F8B8B"/>
<path d="M1247.33 4.44666L1243.51 9.73758C1243.11 10.2933 1242.22 10.3269 1241.78 9.80293L1237.32 4.44666L1242.68 4.44662L1247.33 4.44666Z" fill="#2F8B8B"/>
<path d="M1266.04 97.9327L1262.21 92.6418C1261.81 92.0861 1260.92 92.0525 1260.49 92.5765L1256.03 97.9327L1261.39 97.9328L1266.04 97.9327Z" fill="#2F8B8B"/>
<path d="M1256.06 97.9327L1252.24 92.6418C1251.84 92.0861 1250.94 92.0525 1250.51 92.5765L1246.05 97.9327L1251.41 97.9328L1256.06 97.9327Z" fill="#2F8B8B"/>
<path d="M1246.08 97.9327L1242.26 92.6418C1241.86 92.0861 1240.97 92.0525 1240.53 92.5765L1236.07 97.9327L1241.43 97.9328L1246.08 97.9327Z" fill="#2F8B8B"/>
<path d="M1317.16 45.6108L1312.3 49.5993C1311.31 50.4041 1311.32 51.9075 1312.31 52.7035L1316.03 55.7002L1324 61.9885C1324.65 62.5063 1325.62 62.0392 1325.62 61.2037L1325.62 41.0936C1325.62 40.2621 1324.66 39.7938 1324 40.3034L1317.16 45.6108Z" fill="#2F8B8B"/>
<path d="M1299.31 47.0298C1298.94 46.7855 1298.44 46.7855 1298.06 47.0298L1292.94 50.3997C1292.37 50.7765 1292.37 51.5424 1292.94 51.9192L1298.06 55.289C1298.44 55.5333 1298.94 55.5333 1299.31 55.289L1304.44 51.9192C1305.01 51.5424 1305.01 50.7765 1304.44 50.3996L1299.31 47.0298Z" fill="#2F8B8B"/>
<path d="M1324.54 6.60883C1324.54 6.60883 1300.48 17.7802 1285.88 26.135C1270.16 35.1249 1247.22 48.4456 1247.22 51.2401C1247.22 54.0346 1269.64 66.3508 1284.63 75.2294C1299.85 84.2438 1326.24 97.5449 1326.24 97.5449C1326.24 97.5449 1326.86 99.3068 1322.5 98.749C1318.13 98.1911 1301.06 87.5034 1288.99 80.8083C1268.96 69.694 1238.49 55.1453 1238.49 51.2401C1238.49 47.3349 1268.49 31.7496 1288.99 21.114C1302.09 14.3211 1320.17 5.57981 1324.54 3.90591C1328.9 2.232 1324.54 6.60883 1324.54 6.60883Z" fill="#2F8B8B"/>
<path d="M1173.47 4.46311C1173.47 4.46311 1201.44 17.7771 1216.04 26.1318C1231.76 35.1218 1254.7 48.4424 1254.7 51.2369C1254.7 54.0314 1232.28 66.3476 1217.29 75.2262C1202.07 84.2407 1177.38 96.984 1177.38 96.984C1177.38 96.984 1177.38 98.0998 1181.75 97.5419C1186.11 96.984 1200.86 87.5002 1212.93 80.8052C1232.96 69.6908 1263.43 55.1422 1263.43 51.2369C1263.43 47.3317 1233.43 31.7464 1212.93 21.1108C1199.83 14.3179 1183 6.60589 1178.63 4.93198C1174.27 3.25808 1173.47 4.46311 1173.47 4.46311Z" fill="#2F8B8B"/>
<path d="M1233.33 51.2374C1233.33 54.5848 1216.77 62.2972 1205.27 68.532C1193.82 74.7434 1177.22 85.2684 1174.72 83.0372C1172.23 80.806 1174.72 78.5741 1174.72 78.5741C1174.72 78.5741 1191.78 70.2105 1202.16 64.0689C1210.16 59.3333 1222.11 54.0269 1222.11 51.2374C1222.11 48.448 1210.31 42.6142 1202.16 37.848C1192.39 32.1423 1175.97 25.0166 1175.97 25.0166C1175.97 25.0166 1173.47 23.3433 1174.72 20.5534C1175.97 17.7635 1193.96 28.0739 1205.27 33.9428C1217.03 40.0402 1233.33 47.8901 1233.33 51.2374Z" fill="#2F8B8B"/>
<path d="M1265.9 51.2374C1265.9 54.5848 1282.46 62.2972 1293.95 68.532C1305.41 74.7434 1322.01 85.2684 1324.51 83.0372C1327 80.806 1324.51 78.5741 1324.51 78.5741C1324.51 78.5741 1307.45 70.2105 1297.07 64.0689C1289.07 59.3333 1277.12 54.0269 1277.12 51.2374C1277.12 48.448 1288.92 42.6142 1297.07 37.848C1306.83 32.1423 1323.26 25.0166 1323.26 25.0166C1323.26 25.0166 1325.75 23.3433 1324.51 20.5534C1323.26 17.7635 1305.27 28.0739 1293.95 33.9428C1282.2 40.0402 1265.9 47.8901 1265.9 51.2374Z" fill="#2F8B8B"/>
<path d="M1296.93 3.34717C1296.93 3.34717 1282.59 15.0629 1275.11 23.4312C1267.15 32.3366 1251.42 43.5153 1251.42 43.5153C1251.42 43.5153 1236.47 30.7042 1227.1 22.3155C1220.24 16.1787 1210.89 3.34717 1210.89 3.34717L1217.74 3.34717C1217.74 3.34717 1216.48 10.5997 1231.46 22.3155C1239.76 28.8027 1248.3 39.0522 1251.42 38.4943C1254.53 37.9364 1264.85 30.2663 1271.37 22.3155C1278.23 13.9471 1290.7 3.34717 1290.7 3.34717L1296.93 3.34717Z" fill="#2F8B8B"/>
<path d="M1296.93 98.1895C1296.93 98.1895 1282.59 86.4737 1275.11 78.1054C1267.15 69.2 1251.42 58.0213 1251.42 58.0213C1251.42 58.0213 1236.47 70.8325 1227.1 79.2212C1220.24 85.358 1210.89 98.1895 1210.89 98.1895L1217.74 98.1895C1217.74 98.1895 1216.48 90.9369 1231.46 79.2212C1239.76 72.7339 1248.3 62.4844 1251.42 63.0423C1254.53 63.6002 1264.85 71.2703 1271.37 79.2212C1278.23 87.5895 1290.7 98.1895 1290.7 98.1895L1296.93 98.1895Z" fill="#2F8B8B"/>
<path d="M1280.72 3.34717C1280.72 3.34717 1268.87 16.7365 1264.51 22.3155C1260.14 27.8944 1254.53 30.1259 1252 30.1259C1249.47 30.1259 1243.99 25.8579 1239.57 22.3155C1231.91 16.1801 1223.98 3.34717 1223.98 3.34717L1229.59 3.34717C1229.59 3.34717 1230.68 9.06159 1235.2 13.3892C1239.54 17.5385 1245.67 24.5985 1252 24.9981C1258.93 25.4352 1261.67 20.1892 1266.38 15.6208C1270.69 11.4456 1275.11 3.34717 1275.11 3.34717L1280.72 3.34717Z" fill="#2F8B8B"/>
<path d="M1280.72 98.1895C1280.72 98.1895 1268.87 84.8001 1264.51 79.2212C1260.14 73.6423 1254.53 71.4107 1252 71.4107C1249.47 71.4107 1243.99 75.6787 1239.57 79.2212C1231.91 85.3565 1223.98 98.1895 1223.98 98.1895L1229.59 98.1895C1229.59 98.1895 1230.68 92.475 1235.2 88.1474C1239.54 83.9982 1245.67 76.9381 1252 76.5385C1258.93 76.1014 1261.67 81.3474 1266.38 85.9159C1270.69 90.0911 1275.11 98.1895 1275.11 98.1895L1280.72 98.1895Z" fill="#2F8B8B"/>
<line x1="1059.99" y1="98.3052" x2="1209.64" y2="98.3052" stroke="#2F8B8B" stroke-width="2"/>
<line x1="1056.25" y1="3.4624" x2="1209.64" y2="3.4624" stroke="#2F8B8B" stroke-width="2"/>
<path d="M1065.8 45.6108L1070.66 49.5993C1071.64 50.4041 1071.63 51.9075 1070.65 52.7035L1066.92 55.7002L1058.96 61.9885C1058.3 62.5063 1057.34 62.0392 1057.34 61.2037L1057.34 41.0936C1057.34 40.2621 1058.3 39.7938 1058.95 40.3034L1065.8 45.6108Z" fill="#2F8B8B"/>
<path d="M1083.64 47.0298C1084.01 46.7855 1084.52 46.7855 1084.89 47.0298L1090.01 50.3997C1090.59 50.7765 1090.59 51.5424 1090.01 51.9192L1084.89 55.289C1084.52 55.5333 1084.01 55.5333 1083.64 55.289L1078.52 51.9192C1077.95 51.5424 1077.95 50.7765 1078.52 50.3996L1083.64 47.0298Z" fill="#2F8B8B"/>
<path d="M1150.06 4.44666L1146.24 9.73758C1145.84 10.2933 1144.95 10.3269 1144.51 9.80293L1140.05 4.44666L1145.41 4.44662L1150.06 4.44666Z" fill="#2F8B8B"/>
<path d="M1140.08 4.44666L1136.26 9.73758C1135.86 10.2933 1134.97 10.3269 1134.53 9.80293L1130.07 4.44666L1135.43 4.44662L1140.08 4.44666Z" fill="#2F8B8B"/>
<path d="M1130.11 4.44666L1126.29 9.73758C1125.88 10.2933 1124.99 10.3269 1124.56 9.80293L1120.1 4.44666L1125.46 4.44662L1130.11 4.44666Z" fill="#2F8B8B"/>
<path d="M1148.81 97.9327L1144.99 92.6418C1144.59 92.0861 1143.7 92.0525 1143.26 92.5765L1138.8 97.9327L1144.16 97.9328L1148.81 97.9327Z" fill="#2F8B8B"/>
<path d="M1138.84 97.9327L1135.01 92.6418C1134.61 92.0861 1133.72 92.0525 1133.29 92.5765L1128.83 97.9327L1134.19 97.9328L1138.84 97.9327Z" fill="#2F8B8B"/>
<path d="M1128.86 97.9327L1125.04 92.6418C1124.64 92.0861 1123.75 92.0525 1123.31 92.5765L1118.85 97.9327L1124.21 97.9328L1128.86 97.9327Z" fill="#2F8B8B"/>
<path d="M1199.93 45.6108L1195.07 49.5993C1194.09 50.4041 1194.1 51.9075 1195.09 52.7035L1198.81 55.7002L1206.77 61.9885C1207.43 62.5063 1208.39 62.0392 1208.39 61.2037L1208.39 41.0936C1208.39 40.2621 1207.44 39.7938 1206.78 40.3034L1199.93 45.6108Z" fill="#2F8B8B"/>
<path d="M1182.09 47.0298C1181.72 46.7855 1181.21 46.7855 1180.84 47.0298L1175.72 50.3997C1175.15 50.7765 1175.15 51.5424 1175.72 51.9192L1180.84 55.289C1181.21 55.5333 1181.72 55.5333 1182.09 55.289L1187.21 51.9192C1187.79 51.5424 1187.79 50.7765 1187.21 50.3996L1182.09 47.0298Z" fill="#2F8B8B"/>
<path d="M1207.31 6.60883C1207.31 6.60883 1183.26 17.7802 1168.65 26.135C1152.94 35.1249 1130 48.4456 1130 51.2401C1130 54.0346 1152.42 66.3508 1167.41 75.2294C1182.62 84.2438 1209.01 97.5449 1209.01 97.5449C1209.01 97.5449 1209.64 99.3068 1205.27 98.749C1200.91 98.1911 1183.84 87.5034 1171.77 80.8083C1151.74 69.694 1121.27 55.1453 1121.27 51.2401C1121.27 47.3349 1151.26 31.7496 1171.77 21.114C1184.87 14.3211 1202.95 5.57981 1207.31 3.90591C1211.68 2.232 1207.31 6.60883 1207.31 6.60883Z" fill="#2F8B8B"/>
<path d="M1056.25 4.46311C1056.25 4.46311 1084.21 17.7771 1098.82 26.1318C1114.54 35.1218 1137.48 48.4424 1137.48 51.2369C1137.48 54.0314 1115.05 66.3476 1100.07 75.2262C1084.85 84.2407 1060.16 96.984 1060.16 96.984C1060.16 96.984 1060.16 98.0998 1064.53 97.5419C1068.89 96.984 1083.63 87.5002 1095.7 80.8052C1115.73 69.6908 1146.21 55.1422 1146.21 51.2369C1146.21 47.3317 1116.21 31.7464 1095.7 21.1108C1082.6 14.3179 1065.77 6.60589 1061.41 4.93198C1057.04 3.25808 1056.25 4.46311 1056.25 4.46311Z" fill="#2F8B8B"/>
<path d="M1116.11 51.2374C1116.11 54.5848 1099.55 62.2972 1088.05 68.532C1076.6 74.7434 1059.99 85.2684 1057.5 83.0372C1055 80.806 1057.5 78.5741 1057.5 78.5741C1057.5 78.5741 1074.55 70.2105 1084.93 64.0689C1092.94 59.3333 1104.89 54.0269 1104.89 51.2374C1104.89 48.448 1093.09 42.6142 1084.93 37.848C1075.17 32.1423 1058.75 25.0166 1058.75 25.0166C1058.75 25.0166 1056.25 23.3433 1057.5 20.5534C1058.75 17.7635 1076.74 28.0739 1088.05 33.9428C1099.81 40.0402 1116.11 47.8901 1116.11 51.2374Z" fill="#2F8B8B"/>
<path d="M1148.67 51.2374C1148.67 54.5848 1165.23 62.2972 1176.73 68.532C1188.19 74.7434 1204.79 85.2684 1207.28 83.0372C1209.78 80.806 1207.28 78.5741 1207.28 78.5741C1207.28 78.5741 1190.23 70.2105 1179.85 64.0689C1171.84 59.3333 1159.9 54.0269 1159.9 51.2374C1159.9 48.448 1171.69 42.6142 1179.85 37.848C1189.61 32.1423 1206.04 25.0166 1206.04 25.0166C1206.04 25.0166 1208.53 23.3433 1207.28 20.5534C1206.04 17.7635 1188.05 28.0739 1176.73 33.9428C1164.97 40.0402 1148.67 47.8901 1148.67 51.2374Z" fill="#2F8B8B"/>
<path d="M1179.71 3.34717C1179.71 3.34717 1165.37 15.0629 1157.89 23.4312C1149.92 32.3366 1134.19 43.5153 1134.19 43.5153C1134.19 43.5153 1119.25 30.7042 1109.87 22.3155C1103.02 16.1787 1093.66 3.34717 1093.66 3.34717L1100.52 3.34717C1100.52 3.34717 1099.25 10.5997 1114.24 22.3155C1122.54 28.8027 1131.07 39.0522 1134.19 38.4943C1137.31 37.9364 1147.63 30.2663 1154.14 22.3155C1161 13.9471 1173.47 3.34717 1173.47 3.34717L1179.71 3.34717Z" fill="#2F8B8B"/>
<path d="M1179.71 98.1895C1179.71 98.1895 1165.37 86.4737 1157.89 78.1054C1149.92 69.2 1134.19 58.0213 1134.19 58.0213C1134.19 58.0213 1119.25 70.8325 1109.87 79.2212C1103.02 85.358 1093.66 98.1895 1093.66 98.1895L1100.52 98.1895C1100.52 98.1895 1099.25 90.9369 1114.24 79.2212C1122.54 72.7339 1131.07 62.4844 1134.19 63.0423C1137.31 63.6002 1147.63 71.2703 1154.14 79.2212C1161 87.5895 1173.47 98.1895 1173.47 98.1895L1179.71 98.1895Z" fill="#2F8B8B"/>
<path d="M1163.5 3.34717C1163.5 3.34717 1151.65 16.7365 1147.29 22.3155C1142.92 27.8944 1137.31 30.1259 1134.78 30.1259C1132.25 30.1259 1126.76 25.8579 1122.34 22.3155C1114.69 16.1801 1106.76 3.34717 1106.76 3.34717L1112.37 3.34717C1112.37 3.34717 1113.45 9.06159 1117.98 13.3892C1122.32 17.5385 1128.44 24.5985 1134.78 24.9981C1141.71 25.4352 1144.44 20.1892 1149.16 15.6208C1153.46 11.4456 1157.89 3.34717 1157.89 3.34717L1163.5 3.34717Z" fill="#2F8B8B"/>
<path d="M1163.5 98.1895C1163.5 98.1895 1151.65 84.8001 1147.29 79.2212C1142.92 73.6423 1137.31 71.4107 1134.78 71.4107C1132.25 71.4107 1126.76 75.6787 1122.34 79.2212C1114.69 85.3565 1106.76 98.1895 1106.76 98.1895L1112.37 98.1895C1112.37 98.1895 1113.45 92.475 1117.98 88.1474C1122.32 83.9982 1128.44 76.9381 1134.78 76.5385C1141.71 76.1014 1144.44 81.3474 1149.16 85.9159C1153.46 90.0911 1157.89 98.1895 1157.89 98.1895L1163.5 98.1895Z" fill="#2F8B8B"/>
<line x1="942.77" y1="98.3052" x2="1092.42" y2="98.3052" stroke="#2F8B8B" stroke-width="2"/>
<line x1="939.029" y1="3.4624" x2="1092.42" y2="3.4624" stroke="#2F8B8B" stroke-width="2"/>
<path d="M948.575 45.6108L953.438 49.5993C954.419 50.4041 954.412 51.9075 953.424 52.7035L949.703 55.7002L941.737 61.9885C941.082 62.5063 940.118 62.0392 940.118 61.2037L940.118 41.0936C940.118 40.2621 941.073 39.7938 941.73 40.3034L948.575 45.6108Z" fill="#2F8B8B"/>
<path d="M966.419 47.0298C966.791 46.7855 967.297 46.7855 967.668 47.0298L972.791 50.3997C973.364 50.7765 973.364 51.5424 972.791 51.9192L967.668 55.289C967.297 55.5333 966.791 55.5333 966.419 55.289L961.296 51.9192C960.723 51.5424 960.723 50.7765 961.296 50.3996L966.419 47.0298Z" fill="#2F8B8B"/>
<path d="M1032.84 4.44666L1029.02 9.73758C1028.61 10.2933 1027.72 10.3269 1027.29 9.80293L1022.83 4.44666L1028.19 4.44662L1032.84 4.44666Z" fill="#2F8B8B"/>
<path d="M1022.86 4.44666L1019.04 9.73758C1018.64 10.2933 1017.75 10.3269 1017.31 9.80293L1012.85 4.44666L1018.21 4.44662L1022.86 4.44666Z" fill="#2F8B8B"/>
<path d="M1012.88 4.44666L1009.06 9.73758C1008.66 10.2933 1007.77 10.3269 1007.33 9.80293L1002.88 4.44666L1008.24 4.44662L1012.88 4.44666Z" fill="#2F8B8B"/>
<path d="M1031.59 97.9327L1027.77 92.6418C1027.37 92.0861 1026.48 92.0525 1026.04 92.5765L1021.58 97.9327L1026.94 97.9328L1031.59 97.9327Z" fill="#2F8B8B"/>
<path d="M1021.61 97.9327L1017.79 92.6418C1017.39 92.0861 1016.5 92.0525 1016.06 92.5765L1011.61 97.9327L1016.96 97.9328L1021.61 97.9327Z" fill="#2F8B8B"/>
<path d="M1011.64 97.9327L1007.82 92.6418C1007.42 92.0861 1006.52 92.0525 1006.09 92.5765L1001.63 97.9327L1006.99 97.9328L1011.64 97.9327Z" fill="#2F8B8B"/>
<path d="M1082.71 45.6108L1077.85 49.5993C1076.87 50.4041 1076.87 51.9075 1077.86 52.7035L1081.58 55.7002L1089.55 61.9885C1090.21 62.5063 1091.17 62.0392 1091.17 61.2037L1091.17 41.0936C1091.17 40.2621 1090.21 39.7938 1089.56 40.3034L1082.71 45.6108Z" fill="#2F8B8B"/>
<path d="M1064.87 47.0298C1064.5 46.7855 1063.99 46.7855 1063.62 47.0298L1058.49 50.3997C1057.92 50.7765 1057.92 51.5424 1058.49 51.9192L1063.62 55.289C1063.99 55.5333 1064.5 55.5333 1064.87 55.289L1069.99 51.9192C1070.56 51.5424 1070.56 50.7765 1069.99 50.3996L1064.87 47.0298Z" fill="#2F8B8B"/>
<path d="M1090.09 6.60883C1090.09 6.60883 1066.04 17.7802 1051.43 26.135C1035.71 35.1249 1012.77 48.4456 1012.77 51.2401C1012.77 54.0346 1035.2 66.3508 1050.18 75.2294C1065.4 84.2438 1091.79 97.5449 1091.79 97.5449C1091.79 97.5449 1092.42 99.3068 1088.05 98.749C1083.69 98.1911 1066.62 87.5034 1054.55 80.8083C1034.52 69.694 1004.04 55.1453 1004.04 51.2401C1004.04 47.3349 1034.04 31.7496 1054.55 21.114C1067.65 14.3211 1085.73 5.57981 1090.09 3.90591C1094.45 2.232 1090.09 6.60883 1090.09 6.60883Z" fill="#2F8B8B"/>
<path d="M939.029 4.46311C939.029 4.46311 966.99 17.7771 981.597 26.1318C997.314 35.1218 1020.26 48.4424 1020.26 51.2369C1020.26 54.0314 997.831 66.3476 982.844 75.2262C967.627 84.2407 942.938 96.984 942.938 96.984C942.938 96.984 942.938 98.0998 947.303 97.5419C951.668 96.984 966.412 87.5002 978.479 80.8052C998.511 69.6908 1028.98 55.1422 1028.98 51.2369C1028.98 47.3317 998.988 31.7464 978.479 21.1108C965.38 14.3179 948.55 6.60589 944.185 4.93198C939.821 3.25808 939.029 4.46311 939.029 4.46311Z" fill="#2F8B8B"/>
<path d="M998.887 51.2374C998.887 54.5848 982.328 62.2972 970.829 68.532C959.373 74.7434 942.77 85.2684 940.276 83.0372C937.782 80.806 940.276 78.5741 940.276 78.5741C940.276 78.5741 957.331 70.2105 967.711 64.0689C975.715 59.3333 987.664 54.0269 987.664 51.2374C987.664 48.448 975.866 42.6142 967.711 37.848C957.949 32.1423 941.523 25.0166 941.523 25.0166C941.523 25.0166 939.029 23.3433 940.276 20.5534C941.523 17.7635 959.514 28.0739 970.829 33.9428C982.585 40.0402 998.887 47.8901 998.887 51.2374Z" fill="#2F8B8B"/>
<path d="M1031.45 51.2374C1031.45 54.5848 1048.01 62.2972 1059.51 68.532C1070.96 74.7434 1087.57 85.2684 1090.06 83.0372C1092.55 80.806 1090.06 78.5741 1090.06 78.5741C1090.06 78.5741 1073.01 70.2105 1062.63 64.0689C1054.62 59.3333 1042.67 54.0269 1042.67 51.2374C1042.67 48.448 1054.47 42.6142 1062.63 37.848C1072.39 32.1423 1088.81 25.0166 1088.81 25.0166C1088.81 25.0166 1091.31 23.3433 1090.06 20.5534C1088.81 17.7635 1070.82 28.0739 1059.51 33.9428C1047.75 40.0402 1031.45 47.8901 1031.45 51.2374Z" fill="#2F8B8B"/>
<path d="M1062.49 3.34717C1062.49 3.34717 1048.15 15.0629 1040.66 23.4312C1032.7 32.3366 1016.97 43.5153 1016.97 43.5153C1016.97 43.5153 1002.03 30.7042 992.652 22.3155C985.793 16.1787 976.441 3.34717 976.441 3.34717L983.299 3.34717C983.299 3.34717 982.03 10.5997 997.017 22.3155C1005.32 28.8027 1013.85 39.0522 1016.97 38.4943C1020.09 37.9364 1030.41 30.2663 1036.92 22.3155C1043.78 13.9471 1056.25 3.34717 1056.25 3.34717L1062.49 3.34717Z" fill="#2F8B8B"/>
<path d="M1062.49 98.1895C1062.49 98.1895 1048.15 86.4737 1040.66 78.1054C1032.7 69.2 1016.97 58.0213 1016.97 58.0213C1016.97 58.0213 1002.03 70.8325 992.652 79.2212C985.793 85.358 976.441 98.1895 976.441 98.1895L983.299 98.1895C983.299 98.1895 982.03 90.9369 997.017 79.2212C1005.32 72.7339 1013.85 62.4844 1016.97 63.0423C1020.09 63.6002 1030.41 71.2703 1036.92 79.2212C1043.78 87.5895 1056.25 98.1895 1056.25 98.1895L1062.49 98.1895Z" fill="#2F8B8B"/>
<path d="M1046.28 3.34717C1046.28 3.34717 1034.43 16.7365 1030.06 22.3155C1025.7 27.8944 1020.09 30.1259 1017.56 30.1259C1015.03 30.1259 1009.54 25.8579 1005.12 22.3155C997.469 16.1801 989.534 3.34717 989.534 3.34717L995.146 3.34717C995.146 3.34717 996.232 9.06159 1000.76 13.3892C1005.1 17.5385 1011.22 24.5985 1017.56 24.9981C1024.49 25.4352 1027.22 20.1892 1031.93 15.6208C1036.24 11.4456 1040.66 3.34717 1040.66 3.34717L1046.28 3.34717Z" fill="#2F8B8B"/>
<path d="M1046.28 98.1895C1046.28 98.1895 1034.43 84.8001 1030.06 79.2212C1025.7 73.6423 1020.09 71.4107 1017.56 71.4107C1015.03 71.4107 1009.54 75.6787 1005.12 79.2212C997.469 85.3565 989.534 98.1895 989.534 98.1895L995.146 98.1895C995.146 98.1895 996.232 92.475 1000.76 88.1474C1005.1 83.9982 1011.22 76.9381 1017.56 76.5385C1024.49 76.1014 1027.22 81.3474 1031.93 85.9159C1036.24 90.0911 1040.66 98.1895 1040.66 98.1895L1046.28 98.1895Z" fill="#2F8B8B"/>
<line x1="825.548" y1="98.3052" x2="975.194" y2="98.3052" stroke="#2F8B8B" stroke-width="2"/>
<line x1="821.806" y1="3.4624" x2="975.193" y2="3.4624" stroke="#2F8B8B" stroke-width="2"/>
<path d="M831.352 45.6108L836.215 49.5993C837.197 50.4041 837.19 51.9075 836.201 52.7035L832.48 55.7002L824.515 61.9885C823.859 62.5063 822.895 62.0392 822.895 61.2037L822.895 41.0936C822.895 40.2621 823.851 39.7938 824.508 40.3034L831.352 45.6108Z" fill="#2F8B8B"/>
<path d="M849.197 47.0298C849.568 46.7855 850.074 46.7855 850.446 47.0298L855.569 50.3997C856.142 50.7765 856.142 51.5424 855.569 51.9192L850.446 55.289C850.074 55.5333 849.568 55.5333 849.197 55.289L844.074 51.9192C843.501 51.5424 843.501 50.7765 844.074 50.3996L849.197 47.0298Z" fill="#2F8B8B"/>
<path d="M915.615 4.44666L911.793 9.73758C911.392 10.2933 910.501 10.3269 910.064 9.80293L905.605 4.44666L910.965 4.44662L915.615 4.44666Z" fill="#2F8B8B"/>
<path d="M905.638 4.44666L901.817 9.73758C901.416 10.2933 900.524 10.3269 900.088 9.80293L895.629 4.44666L900.989 4.44662L905.638 4.44666Z" fill="#2F8B8B"/>
<path d="M895.662 4.44666L891.841 9.73758C891.439 10.2933 890.548 10.3269 890.112 9.80293L885.653 4.44666L891.012 4.44662L895.662 4.44666Z" fill="#2F8B8B"/>
<path d="M914.367 97.9327L910.546 92.6418C910.145 92.0861 909.253 92.0525 908.817 92.5765L904.358 97.9327L909.718 97.9328L914.367 97.9327Z" fill="#2F8B8B"/>
<path d="M904.391 97.9327L900.57 92.6418C900.168 92.0861 899.277 92.0525 898.841 92.5765L894.382 97.9327L899.741 97.9328L904.391 97.9327Z" fill="#2F8B8B"/>
<path d="M894.415 97.9327L890.593 92.6418C890.192 92.0861 889.301 92.0525 888.864 92.5765L884.405 97.9327L889.765 97.9328L894.415 97.9327Z" fill="#2F8B8B"/>
<path d="M965.49 45.6108L960.627 49.5993C959.646 50.4041 959.652 51.9075 960.641 52.7035L964.362 55.7002L972.327 61.9885C972.983 62.5063 973.947 62.0392 973.947 61.2037L973.947 41.0936C973.947 40.2621 972.991 39.7938 972.334 40.3034L965.49 45.6108Z" fill="#2F8B8B"/>
<path d="M947.644 47.0298C947.273 46.7855 946.767 46.7855 946.395 47.0298L941.272 50.3997C940.699 50.7765 940.699 51.5424 941.272 51.9192L946.395 55.289C946.767 55.5333 947.273 55.5333 947.644 55.289L952.767 51.9192C953.34 51.5424 953.34 50.7765 952.767 50.3996L947.644 47.0298Z" fill="#2F8B8B"/>
<path d="M972.868 6.60883C972.868 6.60883 948.816 17.7802 934.209 26.135C918.492 35.1249 895.551 48.4456 895.551 51.2401C895.551 54.0346 917.975 66.3508 932.962 75.2294C948.179 84.2438 974.57 97.5449 974.57 97.5449C974.57 97.5449 975.194 99.3068 970.829 98.749C966.464 98.1911 949.394 87.5034 937.327 80.8083C917.295 69.694 886.821 55.1453 886.821 51.2401C886.821 47.3349 916.818 31.7496 937.327 21.114C950.426 14.3211 968.503 5.57981 972.868 3.90591C977.233 2.232 972.868 6.60883 972.868 6.60883Z" fill="#2F8B8B"/>
<path d="M821.806 4.46311C821.806 4.46311 849.767 17.7771 864.374 26.1318C880.092 35.1218 903.033 48.4424 903.033 51.2369C903.033 54.0314 880.609 66.3476 865.621 75.2262C850.405 84.2407 825.716 96.984 825.716 96.984C825.716 96.984 825.716 98.0998 830.08 97.5419C834.445 96.984 849.19 87.5002 861.257 80.8052C881.288 69.6908 911.762 55.1422 911.762 51.2369C911.762 47.3317 881.766 31.7464 861.257 21.1108C848.158 14.3179 831.327 6.60589 826.963 4.93198C822.598 3.25808 821.806 4.46311 821.806 4.46311Z" fill="#2F8B8B"/>
<path d="M881.665 51.2374C881.665 54.5848 865.105 62.2972 853.606 68.532C842.151 74.7434 825.548 85.2684 823.054 83.0372C820.559 80.806 823.054 78.5741 823.054 78.5741C823.054 78.5741 840.108 70.2105 850.489 64.0689C858.493 59.3333 870.441 54.0269 870.441 51.2374C870.441 48.448 858.643 42.6142 850.489 37.848C840.727 32.1423 824.301 25.0166 824.301 25.0166C824.301 25.0166 821.807 23.3433 823.054 20.5534C824.301 17.7635 842.291 28.0739 853.606 33.9428C865.362 40.0402 881.665 47.8901 881.665 51.2374Z" fill="#2F8B8B"/>
<path d="M914.227 51.2374C914.227 54.5848 930.787 62.2972 942.286 68.532C953.741 74.7434 970.344 85.2684 972.838 83.0372C975.332 80.806 972.838 78.5741 972.838 78.5741C972.838 78.5741 955.784 70.2105 945.403 64.0689C937.399 59.3333 925.45 54.0269 925.45 51.2374C925.45 48.448 937.249 42.6142 945.403 37.848C955.165 32.1423 971.591 25.0166 971.591 25.0166C971.591 25.0166 974.085 23.3433 972.838 20.5534C971.591 17.7635 953.601 28.0739 942.286 33.9428C930.53 40.0402 914.227 47.8901 914.227 51.2374Z" fill="#2F8B8B"/>
<path d="M945.265 3.34717C945.265 3.34717 930.923 15.0629 923.441 23.4312C915.479 32.3366 899.747 43.5153 899.747 43.5153C899.747 43.5153 884.805 30.7042 875.43 22.3155C868.571 16.1787 859.218 3.34717 859.218 3.34717L866.077 3.34717C866.077 3.34717 864.808 10.5997 879.794 22.3155C888.093 28.8027 896.63 39.0522 899.747 38.4943C902.865 37.9364 913.183 30.2663 919.7 22.3155C926.559 13.9471 939.029 3.34717 939.029 3.34717L945.265 3.34717Z" fill="#2F8B8B"/>
<path d="M945.265 98.1895C945.265 98.1895 930.923 86.4737 923.441 78.1054C915.479 69.2 899.747 58.0213 899.747 58.0213C899.747 58.0213 884.805 70.8325 875.43 79.2212C868.571 85.358 859.218 98.1895 859.218 98.1895L866.077 98.1895C866.077 98.1895 864.808 90.9369 879.794 79.2212C888.093 72.7339 896.63 62.4844 899.747 63.0423C902.865 63.6002 913.183 71.2703 919.7 79.2212C926.559 87.5895 939.029 98.1895 939.029 98.1895L945.265 98.1895Z" fill="#2F8B8B"/>
<path d="M929.053 3.34717C929.053 3.34717 917.206 16.7365 912.841 22.3155C908.476 27.8944 902.865 30.1259 900.335 30.1259C897.806 30.1259 892.319 25.8579 887.9 22.3155C880.246 16.1801 872.312 3.34717 872.312 3.34717L877.924 3.34717C877.924 3.34717 879.009 9.06159 883.535 13.3892C887.875 17.5385 894 24.5985 900.335 24.9981C907.266 25.4352 910 20.1892 914.712 15.6208C919.018 11.4456 923.441 3.34717 923.441 3.34717L929.053 3.34717Z" fill="#2F8B8B"/>
<path d="M929.053 98.1895C929.053 98.1895 917.206 84.8001 912.841 79.2212C908.476 73.6423 902.865 71.4107 900.335 71.4107C897.806 71.4107 892.319 75.6787 887.9 79.2212C880.246 85.3565 872.312 98.1895 872.312 98.1895L877.924 98.1895C877.924 98.1895 879.009 92.475 883.535 88.1474C887.875 83.9982 894 76.9381 900.335 76.5385C907.266 76.1014 910 81.3474 914.712 85.9159C919.018 90.0911 923.441 98.1895 923.441 98.1895L929.053 98.1895Z" fill="#2F8B8B"/>
<line x1="708.325" y1="98.3052" x2="857.971" y2="98.3052" stroke="#2F8B8B" stroke-width="2"/>
<line x1="704.584" y1="3.4624" x2="857.971" y2="3.4624" stroke="#2F8B8B" stroke-width="2"/>
<path d="M714.13 45.6108L718.993 49.5993C719.974 50.4041 719.967 51.9075 718.979 52.7035L715.258 55.7002L707.292 61.9885C706.637 62.5063 705.673 62.0392 705.673 61.2037L705.673 41.0936C705.673 40.2621 706.628 39.7938 707.285 40.3034L714.13 45.6108Z" fill="#2F8B8B"/>
<path d="M731.975 47.0298C732.346 46.7855 732.852 46.7855 733.223 47.0298L738.346 50.3997C738.919 50.7765 738.919 51.5424 738.346 51.9192L733.223 55.289C732.852 55.5333 732.346 55.5333 731.975 55.289L726.851 51.9192C726.278 51.5424 726.278 50.7765 726.851 50.3996L731.975 47.0298Z" fill="#2F8B8B"/>
<path d="M798.393 4.44666L794.571 9.73758C794.17 10.2933 793.278 10.3269 792.842 9.80293L788.383 4.44666L793.743 4.44662L798.393 4.44666Z" fill="#2F8B8B"/>
<path d="M788.416 4.44666L784.595 9.73758C784.194 10.2933 783.302 10.3269 782.866 9.80293L778.407 4.44666L783.766 4.44662L788.416 4.44666Z" fill="#2F8B8B"/>
<path d="M778.44 4.44666L774.619 9.73758C774.217 10.2933 773.326 10.3269 772.89 9.80293L768.43 4.44666L773.79 4.44662L778.44 4.44666Z" fill="#2F8B8B"/>
<path d="M797.145 97.9327L793.324 92.6418C792.923 92.0861 792.031 92.0525 791.595 92.5765L787.136 97.9327L792.495 97.9328L797.145 97.9327Z" fill="#2F8B8B"/>
<path d="M787.169 97.9327L783.348 92.6418C782.946 92.0861 782.055 92.0525 781.619 92.5765L777.159 97.9327L782.519 97.9328L787.169 97.9327Z" fill="#2F8B8B"/>
<path d="M777.193 97.9327L773.371 92.6418C772.97 92.0861 772.079 92.0525 771.642 92.5765L767.183 97.9327L772.543 97.9328L777.193 97.9327Z" fill="#2F8B8B"/>
<path d="M848.267 45.6108L843.404 49.5993C842.423 50.4041 842.43 51.9075 843.418 52.7035L847.14 55.7002L855.105 61.9885C855.761 62.5063 856.725 62.0392 856.725 61.2037L856.725 41.0936C856.725 40.2621 855.769 39.7938 855.112 40.3034L848.267 45.6108Z" fill="#2F8B8B"/>
<path d="M830.421 47.0298C830.05 46.7855 829.544 46.7855 829.173 47.0298L824.05 50.3997C823.477 50.7765 823.477 51.5424 824.05 51.9192L829.173 55.289C829.544 55.5333 830.05 55.5333 830.421 55.289L835.545 51.9192C836.118 51.5424 836.118 50.7765 835.545 50.3996L830.421 47.0298Z" fill="#2F8B8B"/>
<path d="M855.645 6.60883C855.645 6.60883 831.594 17.7802 816.987 26.135C801.269 35.1249 778.328 48.4456 778.328 51.2401C778.328 54.0346 800.752 66.3508 815.74 75.2294C830.956 84.2438 857.348 97.5449 857.348 97.5449C857.348 97.5449 857.971 99.3068 853.607 98.749C849.242 98.1911 832.171 87.5034 820.104 80.8083C800.073 69.694 769.599 55.1453 769.599 51.2401C769.599 47.3349 799.595 31.7496 820.104 21.114C833.204 14.3211 851.281 5.57981 855.645 3.90591C860.01 2.232 855.645 6.60883 855.645 6.60883Z" fill="#2F8B8B"/>
<path d="M704.584 4.46311C704.584 4.46311 732.545 17.7771 747.152 26.1318C762.869 35.1218 785.81 48.4424 785.81 51.2369C785.81 54.0314 763.386 66.3476 748.399 75.2262C733.182 84.2407 708.493 96.984 708.493 96.984C708.493 96.984 708.493 98.0998 712.858 97.5419C717.223 96.984 731.967 87.5002 744.034 80.8052C764.066 69.6908 794.54 55.1422 794.54 51.2369C794.54 47.3317 764.543 31.7464 744.034 21.1108C730.935 14.3179 714.105 6.60589 709.74 4.93198C705.376 3.25808 704.584 4.46311 704.584 4.46311Z" fill="#2F8B8B"/>
<path d="M764.443 51.2374C764.443 54.5848 747.883 62.2972 736.384 68.532C724.928 74.7434 708.325 85.2684 705.831 83.0372C703.337 80.806 705.831 78.5741 705.831 78.5741C705.831 78.5741 722.886 70.2105 733.266 64.0689C741.271 59.3333 753.219 54.0269 753.219 51.2374C753.219 48.448 741.421 42.6142 733.266 37.848C723.504 32.1423 707.078 25.0166 707.078 25.0166C707.078 25.0166 704.584 23.3433 705.831 20.5534C707.078 17.7635 725.069 28.0739 736.384 33.9428C748.14 40.0402 764.443 47.8901 764.443 51.2374Z" fill="#2F8B8B"/>
<path d="M797.004 51.2374C797.004 54.5848 813.564 62.2972 825.063 68.532C836.519 74.7434 853.122 85.2684 855.616 83.0372C858.11 80.806 855.616 78.5741 855.616 78.5741C855.616 78.5741 838.561 70.2105 828.181 64.0689C820.176 59.3333 808.228 54.0269 808.228 51.2374C808.228 48.448 820.026 42.6142 828.181 37.848C837.942 32.1423 854.369 25.0166 854.369 25.0166C854.369 25.0166 856.863 23.3433 855.616 20.5534C854.369 17.7635 836.378 28.0739 825.063 33.9428C813.307 40.0402 797.004 47.8901 797.004 51.2374Z" fill="#2F8B8B"/>
<path d="M828.042 3.34717C828.042 3.34717 813.701 15.0629 806.219 23.4312C798.256 32.3366 782.525 43.5153 782.525 43.5153C782.525 43.5153 767.583 30.7042 758.207 22.3155C751.349 16.1787 741.996 3.34717 741.996 3.34717L748.854 3.34717C748.854 3.34717 747.586 10.5997 762.572 22.3155C770.87 28.8027 779.407 39.0522 782.525 38.4943C785.642 37.9364 795.961 30.2663 802.478 22.3155C809.336 13.9471 821.807 3.34717 821.807 3.34717L828.042 3.34717Z" fill="#2F8B8B"/>
<path d="M828.042 98.1895C828.042 98.1895 813.701 86.4737 806.219 78.1054C798.256 69.2 782.525 58.0213 782.525 58.0213C782.525 58.0213 767.583 70.8325 758.207 79.2212C751.349 85.358 741.996 98.1895 741.996 98.1895L748.854 98.1895C748.854 98.1895 747.586 90.9369 762.572 79.2212C770.87 72.7339 779.407 62.4844 782.525 63.0423C785.642 63.6002 795.961 71.2703 802.478 79.2212C809.336 87.5895 821.807 98.1895 821.807 98.1895L828.042 98.1895Z" fill="#2F8B8B"/>
<path d="M811.83 3.34717C811.83 3.34717 799.983 16.7365 795.618 22.3155C791.254 27.8944 785.642 30.1259 783.113 30.1259C780.583 30.1259 775.097 25.8579 770.677 22.3155C763.024 16.1801 755.089 3.34717 755.089 3.34717L760.701 3.34717C760.701 3.34717 761.787 9.06159 766.313 13.3892C770.652 17.5385 776.777 24.5985 783.113 24.9981C790.043 25.4352 792.777 20.1892 797.489 15.6208C801.795 11.4456 806.218 3.34717 806.218 3.34717L811.83 3.34717Z" fill="#2F8B8B"/>
<path d="M811.83 98.1895C811.83 98.1895 799.983 84.8001 795.618 79.2212C791.254 73.6423 785.642 71.4107 783.113 71.4107C780.583 71.4107 775.097 75.6787 770.677 79.2212C763.024 85.3565 755.089 98.1895 755.089 98.1895L760.701 98.1895C760.701 98.1895 761.787 92.475 766.313 88.1474C770.652 83.9982 776.777 76.9381 783.113 76.5385C790.043 76.1014 792.777 81.3474 797.489 85.9159C801.795 90.0911 806.218 98.1895 806.218 98.1895L811.83 98.1895Z" fill="#2F8B8B"/>
<line x1="591.102" y1="98.3052" x2="740.748" y2="98.3052" stroke="#2F8B8B" stroke-width="2"/>
<line x1="587.36" y1="3.4624" x2="740.748" y2="3.4624" stroke="#2F8B8B" stroke-width="2"/>
<path d="M596.906 45.6108L601.769 49.5993C602.75 50.4041 602.744 51.9075 601.755 52.7035L598.034 55.7002L590.069 61.9885C589.413 62.5063 588.449 62.0392 588.449 61.2037L588.449 41.0936C588.449 40.2621 589.405 39.7938 590.062 40.3034L596.906 45.6108Z" fill="#2F8B8B"/>
<path d="M614.751 47.0298C615.123 46.7855 615.628 46.7855 616 47.0298L621.123 50.3997C621.696 50.7765 621.696 51.5424 621.123 51.9192L616 55.289C615.628 55.5333 615.123 55.5333 614.751 55.289L609.628 51.9192C609.055 51.5424 609.055 50.7765 609.628 50.3996L614.751 47.0298Z" fill="#2F8B8B"/>
<path d="M681.169 4.44666L677.348 9.73758C676.946 10.2933 676.055 10.3269 675.619 9.80293L671.16 4.44666L676.519 4.44662L681.169 4.44666Z" fill="#2F8B8B"/>
<path d="M671.193 4.44666L667.371 9.73758C666.97 10.2933 666.079 10.3269 665.642 9.80293L661.183 4.44666L666.543 4.44662L671.193 4.44666Z" fill="#2F8B8B"/>
<path d="M661.216 4.44666L657.395 9.73758C656.994 10.2933 656.102 10.3269 655.666 9.80293L651.207 4.44666L656.567 4.44662L661.216 4.44666Z" fill="#2F8B8B"/>
<path d="M679.922 97.9327L676.1 92.6418C675.699 92.0861 674.807 92.0525 674.371 92.5765L669.912 97.9327L675.272 97.9328L679.922 97.9327Z" fill="#2F8B8B"/>
<path d="M669.945 97.9327L666.124 92.6418C665.723 92.0861 664.831 92.0525 664.395 92.5765L659.936 97.9327L665.295 97.9328L669.945 97.9327Z" fill="#2F8B8B"/>
<path d="M659.969 97.9327L656.148 92.6418C655.746 92.0861 654.855 92.0525 654.419 92.5765L649.959 97.9327L655.319 97.9328L659.969 97.9327Z" fill="#2F8B8B"/>
<path d="M731.044 45.6108L726.181 49.5993C725.2 50.4041 725.206 51.9075 726.195 52.7035L729.916 55.7002L737.881 61.9885C738.537 62.5063 739.501 62.0392 739.501 61.2037L739.501 41.0936C739.501 40.2621 738.545 39.7938 737.888 40.3034L731.044 45.6108Z" fill="#2F8B8B"/>
<path d="M713.198 47.0298C712.827 46.7855 712.321 46.7855 711.95 47.0298L706.826 50.3997C706.253 50.7765 706.253 51.5424 706.826 51.9192L711.95 55.289C712.321 55.5333 712.827 55.5333 713.198 55.289L718.321 51.9192C718.894 51.5424 718.894 50.7765 718.321 50.3996L713.198 47.0298Z" fill="#2F8B8B"/>
<path d="M738.422 6.60883C738.422 6.60883 714.37 17.7802 699.763 26.135C684.046 35.1249 661.105 48.4456 661.105 51.2401C661.105 54.0346 683.529 66.3508 698.516 75.2294C713.733 84.2438 740.124 97.5449 740.124 97.5449C740.124 97.5449 740.748 99.3068 736.383 98.749C732.019 98.1911 714.948 87.5034 702.881 80.8083C682.849 69.694 652.376 55.1453 652.376 51.2401C652.376 47.3349 682.372 31.7496 702.881 21.114C715.98 14.3211 734.057 5.57981 738.422 3.90591C742.787 2.232 738.422 6.60883 738.422 6.60883Z" fill="#2F8B8B"/>
<path d="M587.36 4.46311C587.36 4.46311 615.321 17.7771 629.928 26.1318C645.646 35.1218 668.587 48.4424 668.587 51.2369C668.587 54.0314 646.163 66.3476 631.176 75.2262C615.959 84.2407 591.27 96.984 591.27 96.984C591.27 96.984 591.27 98.0998 595.635 97.5419C599.999 96.984 614.744 87.5002 626.811 80.8052C646.843 69.6908 677.316 55.1422 677.316 51.2369C677.316 47.3317 647.32 31.7464 626.811 21.1108C613.712 14.3179 596.882 6.60589 592.517 4.93198C588.152 3.25808 587.36 4.46311 587.36 4.46311Z" fill="#2F8B8B"/>
<path d="M647.219 51.2374C647.219 54.5848 630.659 62.2972 619.16 68.532C607.705 74.7434 591.102 85.2684 588.608 83.0372C586.114 80.806 588.608 78.5741 588.608 78.5741C588.608 78.5741 605.662 70.2105 616.043 64.0689C624.047 59.3333 635.996 54.0269 635.996 51.2374C635.996 48.448 624.197 42.6142 616.043 37.848C606.281 32.1423 589.855 25.0166 589.855 25.0166C589.855 25.0166 587.361 23.3433 588.608 20.5534C589.855 17.7635 607.845 28.0739 619.16 33.9428C630.916 40.0402 647.219 47.8901 647.219 51.2374Z" fill="#2F8B8B"/>
<path d="M679.781 51.2374C679.781 54.5848 696.341 62.2972 707.84 68.532C719.295 74.7434 735.898 85.2684 738.392 83.0372C740.886 80.806 738.392 78.5741 738.392 78.5741C738.392 78.5741 721.338 70.2105 710.957 64.0689C702.953 59.3333 691.004 54.0269 691.004 51.2374C691.004 48.448 702.803 42.6142 710.957 37.848C720.719 32.1423 737.145 25.0166 737.145 25.0166C737.145 25.0166 739.639 23.3433 738.392 20.5534C737.145 17.7635 719.155 28.0739 707.84 33.9428C696.084 40.0402 679.781 47.8901 679.781 51.2374Z" fill="#2F8B8B"/>
<path d="M710.819 3.34717C710.819 3.34717 696.478 15.0629 688.995 23.4312C681.033 32.3366 665.301 43.5153 665.301 43.5153C665.301 43.5153 650.36 30.7042 640.984 22.3155C634.125 16.1787 624.772 3.34717 624.772 3.34717L631.631 3.34717C631.631 3.34717 630.362 10.5997 645.349 22.3155C653.647 28.8027 662.184 39.0522 665.301 38.4943C668.419 37.9364 678.738 30.2663 685.254 22.3155C692.113 13.9471 704.583 3.34717 704.583 3.34717L710.819 3.34717Z" fill="#2F8B8B"/>
<path d="M710.819 98.1895C710.819 98.1895 696.478 86.4737 688.995 78.1054C681.033 69.2 665.301 58.0213 665.301 58.0213C665.301 58.0213 650.36 70.8325 640.984 79.2212C634.125 85.358 624.772 98.1895 624.772 98.1895L631.631 98.1895C631.631 98.1895 630.362 90.9369 645.349 79.2212C653.647 72.7339 662.184 62.4844 665.301 63.0423C668.419 63.6002 678.738 71.2703 685.254 79.2212C692.113 87.5895 704.583 98.1895 704.583 98.1895L710.819 98.1895Z" fill="#2F8B8B"/>
<path d="M694.607 3.34717C694.607 3.34717 682.76 16.7365 678.395 22.3155C674.03 27.8944 668.419 30.1259 665.889 30.1259C663.36 30.1259 657.873 25.8579 653.454 22.3155C645.8 16.1801 637.866 3.34717 637.866 3.34717L643.478 3.34717C643.478 3.34717 644.564 9.06159 649.089 13.3892C653.429 17.5385 659.554 24.5985 665.889 24.9981C672.82 25.4352 675.554 20.1892 680.266 15.6208C684.572 11.4456 688.995 3.34717 688.995 3.34717L694.607 3.34717Z" fill="#2F8B8B"/>
<path d="M694.607 98.1895C694.607 98.1895 682.76 84.8001 678.395 79.2212C674.03 73.6423 668.419 71.4107 665.889 71.4107C663.36 71.4107 657.873 75.6787 653.454 79.2212C645.8 85.3565 637.866 98.1895 637.866 98.1895L643.478 98.1895C643.478 98.1895 644.564 92.475 649.089 88.1474C653.429 83.9982 659.554 76.9381 665.889 76.5385C672.82 76.1014 675.554 81.3474 680.266 85.9159C684.572 90.0911 688.995 98.1895 688.995 98.1895L694.607 98.1895Z" fill="#2F8B8B"/>
<line x1="473.88" y1="98.3052" x2="623.526" y2="98.3052" stroke="#2F8B8B" stroke-width="2"/>
<line x1="470.138" y1="3.4624" x2="623.525" y2="3.4624" stroke="#2F8B8B" stroke-width="2"/>
<path d="M479.684 45.6108L484.547 49.5993C485.528 50.4041 485.521 51.9075 484.533 52.7035L480.812 55.7002L472.846 61.9885C472.191 62.5063 471.227 62.0392 471.227 61.2037L471.227 41.0936C471.227 40.2621 472.182 39.7938 472.839 40.3034L479.684 45.6108Z" fill="#2F8B8B"/>
<path d="M497.529 47.0298C497.9 46.7855 498.406 46.7855 498.777 47.0298L503.901 50.3997C504.474 50.7765 504.474 51.5424 503.901 51.9192L498.777 55.289C498.406 55.5333 497.9 55.5333 497.529 55.289L492.406 51.9192C491.833 51.5424 491.833 50.7765 492.406 50.3996L497.529 47.0298Z" fill="#2F8B8B"/>
<path d="M563.946 4.44666L560.125 9.73758C559.724 10.2933 558.832 10.3269 558.396 9.80293L553.937 4.44666L559.297 4.44662L563.946 4.44666Z" fill="#2F8B8B"/>
<path d="M553.97 4.44666L550.149 9.73758C549.747 10.2933 548.856 10.3269 548.42 9.80293L543.961 4.44666L549.32 4.44662L553.97 4.44666Z" fill="#2F8B8B"/>
<path d="M543.994 4.44666L540.172 9.73758C539.771 10.2933 538.88 10.3269 538.443 9.80293L533.984 4.44666L539.344 4.44662L543.994 4.44666Z" fill="#2F8B8B"/>
<path d="M562.699 97.9327L558.878 92.6418C558.476 92.0861 557.585 92.0525 557.149 92.5765L552.69 97.9327L558.049 97.9328L562.699 97.9327Z" fill="#2F8B8B"/>
<path d="M552.723 97.9327L548.901 92.6418C548.5 92.0861 547.609 92.0525 547.172 92.5765L542.713 97.9327L548.073 97.9328L552.723 97.9327Z" fill="#2F8B8B"/>
<path d="M542.747 97.9327L538.925 92.6418C538.524 92.0861 537.632 92.0525 537.196 92.5765L532.737 97.9327L538.097 97.9328L542.747 97.9327Z" fill="#2F8B8B"/>
<path d="M613.822 45.6108L608.959 49.5993C607.977 50.4041 607.984 51.9075 608.973 52.7035L612.694 55.7002L620.659 61.9885C621.315 62.5063 622.279 62.0392 622.279 61.2037L622.279 41.0936C622.279 40.2621 621.323 39.7938 620.666 40.3034L613.822 45.6108Z" fill="#2F8B8B"/>
<path d="M595.976 47.0298C595.604 46.7855 595.099 46.7855 594.727 47.0298L589.604 50.3997C589.031 50.7765 589.031 51.5424 589.604 51.9192L594.727 55.289C595.099 55.5333 595.604 55.5333 595.976 55.289L601.099 51.9192C601.672 51.5424 601.672 50.7765 601.099 50.3996L595.976 47.0298Z" fill="#2F8B8B"/>
<path d="M621.2 6.60883C621.2 6.60883 597.148 17.7802 582.541 26.135C566.824 35.1249 543.883 48.4456 543.883 51.2401C543.883 54.0346 566.307 66.3508 581.294 75.2294C596.511 84.2438 622.902 97.5449 622.902 97.5449C622.902 97.5449 623.526 99.3068 619.161 98.749C614.796 98.1911 597.726 87.5034 585.659 80.8083C565.627 69.694 535.153 55.1453 535.153 51.2401C535.153 47.3349 565.15 31.7496 585.659 21.114C598.758 14.3211 616.835 5.57981 621.2 3.90591C625.564 2.232 621.2 6.60883 621.2 6.60883Z" fill="#2F8B8B"/>
<path d="M470.138 4.46311C470.138 4.46311 498.099 17.7771 512.706 26.1318C528.423 35.1218 551.365 48.4424 551.365 51.2369C551.365 54.0314 528.94 66.3476 513.953 75.2262C498.737 84.2407 474.047 96.984 474.047 96.984C474.047 96.984 474.047 98.0998 478.412 97.5419C482.777 96.984 497.522 87.5002 509.588 80.8052C529.62 69.6908 560.094 55.1422 560.094 51.2369C560.094 47.3317 530.098 31.7464 509.588 21.1108C496.489 14.3179 479.659 6.60589 475.295 4.93198C470.93 3.25808 470.138 4.46311 470.138 4.46311Z" fill="#2F8B8B"/>
<path d="M529.997 51.2374C529.997 54.5848 513.437 62.2972 501.938 68.532C490.483 74.7434 473.879 85.2684 471.385 83.0372C468.891 80.806 471.385 78.5741 471.385 78.5741C471.385 78.5741 488.44 70.2105 498.82 64.0689C506.825 59.3333 518.773 54.0269 518.773 51.2374C518.773 48.448 506.975 42.6142 498.82 37.848C489.059 32.1423 472.632 25.0166 472.632 25.0166C472.632 25.0166 470.138 23.3433 471.385 20.5534C472.632 17.7635 490.623 28.0739 501.938 33.9428C513.694 40.0402 529.997 47.8901 529.997 51.2374Z" fill="#2F8B8B"/>
<path d="M562.559 51.2374C562.559 54.5848 579.118 62.2972 590.617 68.532C602.073 74.7434 618.676 85.2684 621.17 83.0372C623.664 80.806 621.17 78.5741 621.17 78.5741C621.17 78.5741 604.116 70.2105 593.735 64.0689C585.731 59.3333 573.782 54.0269 573.782 51.2374C573.782 48.448 585.581 42.6142 593.735 37.848C603.497 32.1423 619.923 25.0166 619.923 25.0166C619.923 25.0166 622.417 23.3433 621.17 20.5534C619.923 17.7635 601.933 28.0739 590.617 33.9428C578.862 40.0402 562.559 47.8901 562.559 51.2374Z" fill="#2F8B8B"/>
<path d="M593.596 3.34717C593.596 3.34717 579.255 15.0629 571.773 23.4312C563.811 32.3366 548.079 43.5153 548.079 43.5153C548.079 43.5153 533.137 30.7042 523.762 22.3155C516.903 16.1787 507.55 3.34717 507.55 3.34717L514.409 3.34717C514.409 3.34717 513.14 10.5997 528.126 22.3155C536.425 28.8027 544.961 39.0522 548.079 38.4943C551.197 37.9364 561.515 30.2663 568.032 22.3155C574.891 13.9471 587.361 3.34717 587.361 3.34717L593.596 3.34717Z" fill="#2F8B8B"/>
<path d="M593.596 98.1895C593.596 98.1895 579.255 86.4737 571.773 78.1054C563.811 69.2 548.079 58.0213 548.079 58.0213C548.079 58.0213 533.137 70.8325 523.762 79.2212C516.903 85.358 507.55 98.1895 507.55 98.1895L514.409 98.1895C514.409 98.1895 513.14 90.9369 528.126 79.2212C536.425 72.7339 544.961 62.4844 548.079 63.0423C551.197 63.6002 561.515 71.2703 568.032 79.2212C574.891 87.5895 587.361 98.1895 587.361 98.1895L593.596 98.1895Z" fill="#2F8B8B"/>
<path d="M577.384 3.34717C577.384 3.34717 565.537 16.7365 561.173 22.3155C556.808 27.8944 551.196 30.1259 548.667 30.1259C546.138 30.1259 540.651 25.8579 536.232 22.3155C528.578 16.1801 520.644 3.34717 520.644 3.34717L526.255 3.34717C526.255 3.34717 527.341 9.06159 531.867 13.3892C536.206 17.5385 542.332 24.5985 548.667 24.9981C555.598 25.4352 558.331 20.1892 563.043 15.6208C567.35 11.4456 571.773 3.34717 571.773 3.34717L577.384 3.34717Z" fill="#2F8B8B"/>
<path d="M577.384 98.1895C577.384 98.1895 565.537 84.8001 561.173 79.2212C556.808 73.6423 551.196 71.4107 548.667 71.4107C546.138 71.4107 540.651 75.6787 536.232 79.2212C528.578 85.3565 520.644 98.1895 520.644 98.1895L526.255 98.1895C526.255 98.1895 527.341 92.475 531.867 88.1474C536.206 83.9982 542.332 76.9381 548.667 76.5385C555.598 76.1014 558.331 81.3474 563.043 85.9159C567.35 90.0911 571.773 98.1895 571.773 98.1895L577.384 98.1895Z" fill="#2F8B8B"/>
<line x1="355.409" y1="98.3052" x2="505.055" y2="98.3052" stroke="#2F8B8B" stroke-width="2"/>
<line x1="351.668" y1="3.4624" x2="505.056" y2="3.4624" stroke="#2F8B8B" stroke-width="2"/>
<path d="M361.214 45.6108L366.077 49.5993C367.058 50.4041 367.052 51.9075 366.063 52.7035L362.342 55.7002L354.377 61.9885C353.721 62.5063 352.757 62.0392 352.757 61.2037L352.757 41.0936C352.757 40.2621 353.713 39.7938 354.37 40.3034L361.214 45.6108Z" fill="#2F8B8B"/>
<path d="M379.059 47.0298C379.43 46.7855 379.936 46.7855 380.307 47.0298L385.431 50.3997C386.003 50.7765 386.003 51.5424 385.431 51.9192L380.307 55.289C379.936 55.5333 379.43 55.5333 379.059 55.289L373.936 51.9192C373.363 51.5424 373.363 50.7765 373.936 50.3996L379.059 47.0298Z" fill="#2F8B8B"/>
<path d="M445.477 4.44666L441.655 9.73758C441.254 10.2933 440.362 10.3269 439.926 9.80293L435.467 4.44666L440.827 4.44662L445.477 4.44666Z" fill="#2F8B8B"/>
<path d="M435.5 4.44666L431.679 9.73758C431.277 10.2933 430.386 10.3269 429.95 9.80293L425.491 4.44666L430.85 4.44662L435.5 4.44666Z" fill="#2F8B8B"/>
<path d="M425.524 4.44666L421.702 9.73758C421.301 10.2933 420.41 10.3269 419.973 9.80293L415.514 4.44666L420.874 4.44662L425.524 4.44666Z" fill="#2F8B8B"/>
<path d="M444.23 97.9327L440.408 92.6418C440.007 92.0861 439.116 92.0525 438.679 92.5765L434.22 97.9327L439.58 97.9328L444.23 97.9327Z" fill="#2F8B8B"/>
<path d="M434.253 97.9327L430.432 92.6418C430.031 92.0861 429.139 92.0525 428.703 92.5765L424.244 97.9327L429.604 97.9328L434.253 97.9327Z" fill="#2F8B8B"/>
<path d="M424.277 97.9327L420.456 92.6418C420.054 92.0861 419.163 92.0525 418.727 92.5765L414.268 97.9327L419.627 97.9328L424.277 97.9327Z" fill="#2F8B8B"/>
<path d="M495.351 45.6108L490.489 49.5993C489.507 50.4041 489.514 51.9075 490.502 52.7035L494.224 55.7002L502.189 61.9885C502.845 62.5063 503.809 62.0392 503.809 61.2037L503.809 41.0936C503.809 40.2621 502.853 39.7938 502.196 40.3034L495.351 45.6108Z" fill="#2F8B8B"/>
<path d="M477.506 47.0298C477.134 46.7855 476.629 46.7855 476.257 47.0298L471.134 50.3997C470.561 50.7765 470.561 51.5424 471.134 51.9192L476.257 55.289C476.629 55.5333 477.134 55.5333 477.506 55.289L482.629 51.9192C483.202 51.5424 483.202 50.7765 482.629 50.3996L477.506 47.0298Z" fill="#2F8B8B"/>
<path d="M502.73 6.60883C502.73 6.60883 478.678 17.7802 464.071 26.135C448.354 35.1249 425.412 48.4456 425.412 51.2401C425.412 54.0346 447.837 66.3508 462.824 75.2294C478.041 84.2438 504.432 97.5449 504.432 97.5449C504.432 97.5449 505.055 99.3068 500.691 98.749C496.326 98.1911 479.255 87.5034 467.189 80.8083C447.157 69.694 416.683 55.1453 416.683 51.2401C416.683 47.3349 446.68 31.7496 467.189 21.114C480.288 14.3211 498.365 5.57981 502.73 3.90591C507.094 2.232 502.73 6.60883 502.73 6.60883Z" fill="#2F8B8B"/>
<path d="M351.668 4.46311C351.668 4.46311 379.629 17.7771 394.236 26.1318C409.954 35.1218 432.895 48.4424 432.895 51.2369C432.895 54.0314 410.471 66.3476 395.483 75.2262C380.267 84.2407 355.578 96.984 355.578 96.984C355.578 96.984 355.578 98.0998 359.943 97.5419C364.307 96.984 379.052 87.5002 391.119 80.8052C411.151 69.6908 441.624 55.1422 441.624 51.2369C441.624 47.3317 411.628 31.7464 391.119 21.1108C378.02 14.3179 361.19 6.60589 356.825 4.93198C352.46 3.25808 351.668 4.46311 351.668 4.46311Z" fill="#2F8B8B"/>
<path d="M411.527 51.2374C411.527 54.5848 394.967 62.2972 383.468 68.532C372.013 74.7434 355.409 85.2684 352.915 83.0372C350.421 80.806 352.915 78.5741 352.915 78.5741C352.915 78.5741 369.97 70.2105 380.35 64.0689C388.355 59.3333 400.303 54.0269 400.303 51.2374C400.303 48.448 388.505 42.6142 380.35 37.848C370.589 32.1423 354.162 25.0166 354.162 25.0166C354.162 25.0166 351.668 23.3433 352.915 20.5534C354.162 17.7635 372.153 28.0739 383.468 33.9428C395.224 40.0402 411.527 47.8901 411.527 51.2374Z" fill="#2F8B8B"/>
<path d="M444.089 51.2374C444.089 54.5848 460.649 62.2972 472.148 68.532C483.603 74.7434 500.206 85.2684 502.7 83.0372C505.195 80.806 502.7 78.5741 502.7 78.5741C502.7 78.5741 485.646 70.2105 475.265 64.0689C467.261 59.3333 455.313 54.0269 455.313 51.2374C455.313 48.448 467.111 42.6142 475.265 37.848C485.027 32.1423 501.453 25.0166 501.453 25.0166C501.453 25.0166 503.948 23.3433 502.7 20.5534C501.453 17.7635 483.463 28.0739 472.148 33.9428C460.392 40.0402 444.089 47.8901 444.089 51.2374Z" fill="#2F8B8B"/>
<path d="M475.126 3.34717C475.126 3.34717 460.785 15.0629 453.303 23.4312C445.341 32.3366 429.609 43.5153 429.609 43.5153C429.609 43.5153 414.667 30.7042 405.292 22.3155C398.433 16.1787 389.08 3.34717 389.08 3.34717L395.939 3.34717C395.939 3.34717 394.67 10.5997 409.656 22.3155C417.955 28.8027 426.491 39.0522 429.609 38.4943C432.727 37.9364 443.045 30.2663 449.562 22.3155C456.421 13.9471 468.891 3.34717 468.891 3.34717L475.126 3.34717Z" fill="#2F8B8B"/>
<path d="M475.126 98.1895C475.126 98.1895 460.785 86.4737 453.303 78.1054C445.341 69.2 429.609 58.0213 429.609 58.0213C429.609 58.0213 414.667 70.8325 405.292 79.2212C398.433 85.358 389.08 98.1895 389.08 98.1895L395.939 98.1895C395.939 98.1895 394.67 90.9369 409.656 79.2212C417.955 72.7339 426.491 62.4844 429.609 63.0423C432.727 63.6002 443.045 71.2703 449.562 79.2212C456.421 87.5895 468.891 98.1895 468.891 98.1895L475.126 98.1895Z" fill="#2F8B8B"/>
<path d="M458.914 3.34717C458.914 3.34717 447.067 16.7365 442.703 22.3155C438.338 27.8944 432.726 30.1259 430.197 30.1259C427.668 30.1259 422.181 25.8579 417.762 22.3155C410.108 16.1801 402.174 3.34717 402.174 3.34717L407.785 3.34717C407.785 3.34717 408.871 9.06159 413.397 13.3892C417.736 17.5385 423.862 24.5985 430.197 24.9981C437.128 25.4352 439.861 20.1892 444.573 15.6208C448.88 11.4456 453.303 3.34717 453.303 3.34717L458.914 3.34717Z" fill="#2F8B8B"/>
<path d="M458.914 98.1895C458.914 98.1895 447.067 84.8001 442.703 79.2212C438.338 73.6423 432.726 71.4107 430.197 71.4107C427.668 71.4107 422.181 75.6787 417.762 79.2212C410.108 85.3565 402.174 98.1895 402.174 98.1895L407.785 98.1895C407.785 98.1895 408.871 92.475 413.397 88.1474C417.736 83.9982 423.862 76.9381 430.197 76.5385C437.128 76.1014 439.861 81.3474 444.573 85.9159C448.88 90.0911 453.303 98.1895 453.303 98.1895L458.914 98.1895Z" fill="#2F8B8B"/>
<line x1="238.186" y1="98.3052" x2="387.832" y2="98.3052" stroke="#2F8B8B" stroke-width="2"/>
<line x1="234.445" y1="3.4624" x2="387.832" y2="3.4624" stroke="#2F8B8B" stroke-width="2"/>
<path d="M243.991 45.6108L248.854 49.5993C249.836 50.4041 249.829 51.9075 248.84 52.7035L245.119 55.7002L237.154 61.9885C236.498 62.5063 235.534 62.0392 235.534 61.2037L235.534 41.0936C235.534 40.2621 236.49 39.7938 237.147 40.3034L243.991 45.6108Z" fill="#2F8B8B"/>
<path d="M261.836 47.0298C262.207 46.7855 262.713 46.7855 263.084 47.0298L268.207 50.3997C268.78 50.7765 268.78 51.5424 268.207 51.9192L263.084 55.289C262.713 55.5333 262.207 55.5333 261.836 55.289L256.712 51.9192C256.14 51.5424 256.14 50.7765 256.712 50.3996L261.836 47.0298Z" fill="#2F8B8B"/>
<path d="M328.253 4.44666L324.432 9.73758C324.03 10.2933 323.139 10.3269 322.703 9.80293L318.243 4.44666L323.603 4.44662L328.253 4.44666Z" fill="#2F8B8B"/>
<path d="M318.276 4.44666L314.455 9.73758C314.054 10.2933 313.162 10.3269 312.726 9.80293L308.267 4.44666L313.627 4.44662L318.276 4.44666Z" fill="#2F8B8B"/>
<path d="M308.3 4.44666L304.479 9.73758C304.077 10.2933 303.186 10.3269 302.75 9.80293L298.291 4.44666L303.65 4.44662L308.3 4.44666Z" fill="#2F8B8B"/>
<path d="M327.006 97.9327L323.185 92.6418C322.784 92.0861 321.892 92.0525 321.456 92.5765L316.997 97.9327L322.357 97.9328L327.006 97.9327Z" fill="#2F8B8B"/>
<path d="M317.03 97.9327L313.208 92.6418C312.807 92.0861 311.916 92.0525 311.479 92.5765L307.02 97.9327L312.38 97.9328L317.03 97.9327Z" fill="#2F8B8B"/>
<path d="M307.054 97.9327L303.232 92.6418C302.831 92.0861 301.94 92.0525 301.503 92.5765L297.044 97.9327L302.404 97.9328L307.054 97.9327Z" fill="#2F8B8B"/>
<path d="M378.128 45.6108L373.265 49.5993C372.284 50.4041 372.291 51.9075 373.279 52.7035L377.001 55.7002L384.966 61.9885C385.622 62.5063 386.586 62.0392 386.586 61.2037L386.586 41.0936C386.586 40.2621 385.63 39.7938 384.973 40.3034L378.128 45.6108Z" fill="#2F8B8B"/>
<path d="M360.283 47.0298C359.911 46.7855 359.406 46.7855 359.034 47.0298L353.911 50.3997C353.338 50.7765 353.338 51.5424 353.911 51.9192L359.034 55.289C359.406 55.5333 359.911 55.5333 360.283 55.289L365.406 51.9192C365.979 51.5424 365.979 50.7765 365.406 50.3996L360.283 47.0298Z" fill="#2F8B8B"/>
<path d="M385.506 6.60883C385.506 6.60883 361.455 17.7802 346.848 26.135C331.13 35.1249 308.189 48.4456 308.189 51.2401C308.189 54.0346 330.613 66.3508 345.601 75.2294C360.817 84.2438 387.209 97.5449 387.209 97.5449C387.209 97.5449 387.832 99.3068 383.467 98.749C379.103 98.1911 362.032 87.5034 349.965 80.8083C329.934 69.694 299.46 55.1453 299.46 51.2401C299.46 47.3349 329.456 31.7496 349.965 21.114C363.064 14.3211 381.142 5.57981 385.506 3.90591C389.871 2.232 385.506 6.60883 385.506 6.60883Z" fill="#2F8B8B"/>
<path d="M234.445 4.46311C234.445 4.46311 262.406 17.7771 277.013 26.1318C292.731 35.1218 315.672 48.4424 315.672 51.2369C315.672 54.0314 293.248 66.3476 278.26 75.2262C263.044 84.2407 238.355 96.984 238.355 96.984C238.355 96.984 238.355 98.0998 242.719 97.5419C247.084 96.984 261.829 87.5002 273.896 80.8052C293.927 69.6908 324.401 55.1422 324.401 51.2369C324.401 47.3317 294.405 31.7464 273.896 21.1108C260.797 14.3179 243.966 6.60589 239.602 4.93198C235.237 3.25808 234.445 4.46311 234.445 4.46311Z" fill="#2F8B8B"/>
<path d="M294.304 51.2374C294.304 54.5848 277.744 62.2972 266.245 68.532C254.79 74.7434 238.187 85.2684 235.693 83.0372C233.198 80.806 235.693 78.5741 235.693 78.5741C235.693 78.5741 252.747 70.2105 263.128 64.0689C271.132 59.3333 283.081 54.0269 283.081 51.2374C283.081 48.448 271.282 42.6142 263.128 37.848C253.366 32.1423 236.94 25.0166 236.94 25.0166C236.94 25.0166 234.446 23.3433 235.693 20.5534C236.94 17.7635 254.93 28.0739 266.245 33.9428C278.001 40.0402 294.304 47.8901 294.304 51.2374Z" fill="#2F8B8B"/>
<path d="M326.866 51.2374C326.866 54.5848 343.426 62.2972 354.925 68.532C366.38 74.7434 382.983 85.2684 385.477 83.0372C387.971 80.806 385.477 78.5741 385.477 78.5741C385.477 78.5741 368.423 70.2105 358.042 64.0689C350.038 59.3333 338.089 54.0269 338.089 51.2374C338.089 48.448 349.888 42.6142 358.042 37.848C367.804 32.1423 384.23 25.0166 384.23 25.0166C384.23 25.0166 386.724 23.3433 385.477 20.5534C384.23 17.7635 366.24 28.0739 354.925 33.9428C343.169 40.0402 326.866 47.8901 326.866 51.2374Z" fill="#2F8B8B"/>
<path d="M357.903 3.34717C357.903 3.34717 343.562 15.0629 336.08 23.4312C328.117 32.3366 312.386 43.5153 312.386 43.5153C312.386 43.5153 297.444 30.7042 288.068 22.3155C281.21 16.1787 271.857 3.34717 271.857 3.34717L278.716 3.34717C278.716 3.34717 277.447 10.5997 292.433 22.3155C300.731 28.8027 309.268 39.0522 312.386 38.4943C315.503 37.9364 325.822 30.2663 332.339 22.3155C339.197 13.9471 351.668 3.34717 351.668 3.34717L357.903 3.34717Z" fill="#2F8B8B"/>
<path d="M357.903 98.1895C357.903 98.1895 343.562 86.4737 336.08 78.1054C328.117 69.2 312.386 58.0213 312.386 58.0213C312.386 58.0213 297.444 70.8325 288.068 79.2212C281.21 85.358 271.857 98.1895 271.857 98.1895L278.716 98.1895C278.716 98.1895 277.447 90.9369 292.433 79.2212C300.731 72.7339 309.268 62.4844 312.386 63.0423C315.503 63.6002 325.822 71.2703 332.339 79.2212C339.197 87.5895 351.668 98.1895 351.668 98.1895L357.903 98.1895Z" fill="#2F8B8B"/>
<path d="M341.692 3.34717C341.692 3.34717 329.845 16.7365 325.48 22.3155C321.115 27.8944 315.504 30.1259 312.974 30.1259C310.445 30.1259 304.958 25.8579 300.539 22.3155C292.885 16.1801 284.951 3.34717 284.951 3.34717L290.563 3.34717C290.563 3.34717 291.649 9.06159 296.174 13.3892C300.514 17.5385 306.639 24.5985 312.974 24.9981C319.905 25.4352 322.639 20.1892 327.351 15.6208C331.657 11.4456 336.08 3.34717 336.08 3.34717L341.692 3.34717Z" fill="#2F8B8B"/>
<path d="M341.692 98.1895C341.692 98.1895 329.845 84.8001 325.48 79.2212C321.115 73.6423 315.504 71.4107 312.974 71.4107C310.445 71.4107 304.958 75.6787 300.539 79.2212C292.885 85.3565 284.951 98.1895 284.951 98.1895L290.563 98.1895C290.563 98.1895 291.649 92.475 296.174 88.1474C300.514 83.9982 306.639 76.9381 312.974 76.5385C319.905 76.1014 322.639 81.3474 327.351 85.9159C331.657 90.0911 336.08 98.1895 336.08 98.1895L341.692 98.1895Z" fill="#2F8B8B"/>
<line x1="120.964" y1="98.3052" x2="270.61" y2="98.3052" stroke="#2F8B8B" stroke-width="2"/>
<line x1="117.223" y1="3.4624" x2="270.61" y2="3.4624" stroke="#2F8B8B" stroke-width="2"/>
<path d="M126.769 45.6108L131.632 49.5993C132.613 50.4041 132.606 51.9075 131.618 52.7035L127.896 55.7002L119.931 61.9885C119.275 62.5063 118.311 62.0392 118.311 61.2037L118.311 41.0936C118.311 40.2621 119.267 39.7938 119.924 40.3034L126.769 45.6108Z" fill="#2F8B8B"/>
<path d="M144.614 47.0298C144.985 46.7855 145.491 46.7855 145.862 47.0298L150.985 50.3997C151.558 50.7765 151.558 51.5424 150.985 51.9192L145.862 55.289C145.491 55.5333 144.985 55.5333 144.614 55.289L139.49 51.9192C138.917 51.5424 138.917 50.7765 139.49 50.3996L144.614 47.0298Z" fill="#2F8B8B"/>
<path d="M211.031 4.44666L207.209 9.73758C206.808 10.2933 205.917 10.3269 205.48 9.80293L201.021 4.44666L206.381 4.44662L211.031 4.44666Z" fill="#2F8B8B"/>
<path d="M201.054 4.44666L197.233 9.73758C196.832 10.2933 195.94 10.3269 195.504 9.80293L191.045 4.44666L196.404 4.44662L201.054 4.44666Z" fill="#2F8B8B"/>
<path d="M191.078 4.44666L187.257 9.73758C186.855 10.2933 185.964 10.3269 185.528 9.80293L181.069 4.44666L186.428 4.44662L191.078 4.44666Z" fill="#2F8B8B"/>
<path d="M209.784 97.9327L205.963 92.6418C205.562 92.0861 204.67 92.0525 204.234 92.5765L199.775 97.9327L205.135 97.9328L209.784 97.9327Z" fill="#2F8B8B"/>
<path d="M199.808 97.9327L195.987 92.6418C195.585 92.0861 194.694 92.0525 194.258 92.5765L189.798 97.9327L195.158 97.9328L199.808 97.9327Z" fill="#2F8B8B"/>
<path d="M189.832 97.9327L186.01 92.6418C185.609 92.0861 184.718 92.0525 184.281 92.5765L179.822 97.9327L185.182 97.9328L189.832 97.9327Z" fill="#2F8B8B"/>
<path d="M260.906 45.6108L256.043 49.5993C255.061 50.4041 255.068 51.9075 256.057 52.7035L259.778 55.7002L267.743 61.9885C268.399 62.5063 269.363 62.0392 269.363 61.2037L269.363 41.0936C269.363 40.2621 268.407 39.7938 267.75 40.3034L260.906 45.6108Z" fill="#2F8B8B"/>
<path d="M243.06 47.0298C242.689 46.7855 242.183 46.7855 241.812 47.0298L236.689 50.3997C236.116 50.7765 236.116 51.5424 236.689 51.9192L241.812 55.289C242.183 55.5333 242.689 55.5333 243.06 55.289L248.184 51.9192C248.757 51.5424 248.757 50.7765 248.184 50.3996L243.06 47.0298Z" fill="#2F8B8B"/>
<path d="M268.284 6.60883C268.284 6.60883 244.233 17.7802 229.626 26.135C213.908 35.1249 190.967 48.4456 190.967 51.2401C190.967 54.0346 213.391 66.3508 228.379 75.2294C243.595 84.2438 269.987 97.5449 269.987 97.5449C269.987 97.5449 270.61 99.3068 266.245 98.749C261.881 98.1911 244.81 87.5034 232.743 80.8083C212.712 69.694 182.238 55.1453 182.238 51.2401C182.238 47.3349 212.234 31.7496 232.743 21.114C245.842 14.3211 263.92 5.57981 268.284 3.90591C272.649 2.232 268.284 6.60883 268.284 6.60883Z" fill="#2F8B8B"/>
<path d="M117.223 4.46311C117.223 4.46311 145.184 17.7771 159.791 26.1318C175.508 35.1218 198.449 48.4424 198.449 51.2369C198.449 54.0314 176.025 66.3476 161.038 75.2262C145.821 84.2407 121.132 96.984 121.132 96.984C121.132 96.984 121.132 98.0998 125.497 97.5419C129.861 96.984 144.606 87.5002 156.673 80.8052C176.705 69.6908 207.179 55.1422 207.179 51.2369C207.179 47.3317 177.182 31.7464 156.673 21.1108C143.574 14.3179 126.744 6.60589 122.379 4.93198C118.014 3.25808 117.223 4.46311 117.223 4.46311Z" fill="#2F8B8B"/>
<path d="M177.081 51.2374C177.081 54.5848 160.522 62.2972 149.023 68.532C137.567 74.7434 120.964 85.2684 118.47 83.0372C115.976 80.806 118.47 78.5741 118.47 78.5741C118.47 78.5741 135.524 70.2105 145.905 64.0689C153.909 59.3333 165.858 54.0269 165.858 51.2374C165.858 48.448 154.059 42.6142 145.905 37.848C136.143 32.1423 119.717 25.0166 119.717 25.0166C119.717 25.0166 117.223 23.3433 118.47 20.5534C119.717 17.7635 137.707 28.0739 149.023 33.9428C160.778 40.0402 177.081 47.8901 177.081 51.2374Z" fill="#2F8B8B"/>
<path d="M209.643 51.2374C209.643 54.5848 226.203 62.2972 237.702 68.532C249.157 74.7434 265.761 85.2684 268.255 83.0372C270.749 80.806 268.255 78.5741 268.255 78.5741C268.255 78.5741 251.2 70.2105 240.82 64.0689C232.815 59.3333 220.867 54.0269 220.867 51.2374C220.867 48.448 232.665 42.6142 240.82 37.848C250.581 32.1423 267.008 25.0166 267.008 25.0166C267.008 25.0166 269.502 23.3433 268.255 20.5534C267.008 17.7635 249.017 28.0739 237.702 33.9428C225.946 40.0402 209.643 47.8901 209.643 51.2374Z" fill="#2F8B8B"/>
<path d="M240.681 3.34717C240.681 3.34717 226.34 15.0629 218.857 23.4312C210.895 32.3366 195.163 43.5153 195.163 43.5153C195.163 43.5153 180.221 30.7042 170.846 22.3155C163.987 16.1787 154.634 3.34717 154.634 3.34717L161.493 3.34717C161.493 3.34717 160.224 10.5997 175.211 22.3155C183.509 28.8027 192.046 39.0522 195.163 38.4943C198.281 37.9364 208.6 30.2663 215.116 22.3155C221.975 13.9471 234.445 3.34717 234.445 3.34717L240.681 3.34717Z" fill="#2F8B8B"/>
<path d="M240.681 98.1895C240.681 98.1895 226.34 86.4737 218.857 78.1054C210.895 69.2 195.163 58.0213 195.163 58.0213C195.163 58.0213 180.221 70.8325 170.846 79.2212C163.987 85.358 154.634 98.1895 154.634 98.1895L161.493 98.1895C161.493 98.1895 160.224 90.9369 175.211 79.2212C183.509 72.7339 192.046 62.4844 195.163 63.0423C198.281 63.6002 208.6 71.2703 215.116 79.2212C221.975 87.5895 234.445 98.1895 234.445 98.1895L240.681 98.1895Z" fill="#2F8B8B"/>
<path d="M224.469 3.34717C224.469 3.34717 212.622 16.7365 208.258 22.3155C203.893 27.8944 198.281 30.1259 195.752 30.1259C193.222 30.1259 187.736 25.8579 183.317 22.3155C175.663 16.1801 167.728 3.34717 167.728 3.34717L173.34 3.34717C173.34 3.34717 174.426 9.06159 178.952 13.3892C183.291 17.5385 189.417 24.5985 195.752 24.9981C202.682 25.4352 205.416 20.1892 210.128 15.6208C214.434 11.4456 218.858 3.34717 218.858 3.34717L224.469 3.34717Z" fill="#2F8B8B"/>
<path d="M224.469 98.1895C224.469 98.1895 212.622 84.8001 208.258 79.2212C203.893 73.6423 198.281 71.4107 195.752 71.4107C193.222 71.4107 187.736 75.6787 183.317 79.2212C175.663 85.3565 167.728 98.1895 167.728 98.1895L173.34 98.1895C173.34 98.1895 174.426 92.475 178.952 88.1474C183.291 83.9982 189.417 76.9381 195.752 76.5385C202.682 76.1014 205.416 81.3474 210.128 85.9159C214.434 90.0911 218.858 98.1895 218.858 98.1895L224.469 98.1895Z" fill="#2F8B8B"/>
<line x1="3.74097" y1="98.3052" x2="153.387" y2="98.3052" stroke="#2F8B8B" stroke-width="2"/>
<line x1="-1.19249e-08" y1="3.4624" x2="153.387" y2="3.4624" stroke="#2F8B8B" stroke-width="2"/>
<path d="M9.54596 45.6108L14.409 49.5993C15.3902 50.4041 15.3834 51.9075 14.395 52.7035L10.6736 55.7002L2.70835 61.9885C2.05257 62.5063 1.0887 62.0392 1.0887 61.2037L1.0887 41.0936C1.0887 40.2621 2.04442 39.7938 2.70149 40.3034L9.54596 45.6108Z" fill="#2F8B8B"/>
<path d="M27.3909 47.0298C27.7623 46.7855 28.268 46.7855 28.6394 47.0298L33.7627 50.3997C34.3356 50.7765 34.3356 51.5424 33.7627 51.9192L28.6394 55.289C28.268 55.5333 27.7623 55.5333 27.3909 55.289L22.2677 51.9192C21.6948 51.5424 21.6948 50.7765 22.2677 50.3996L27.3909 47.0298Z" fill="#2F8B8B"/>
<path d="M93.8089 4.44666L89.9875 9.73758C89.5862 10.2933 88.6948 10.3269 88.2585 9.80293L83.7994 4.44666L89.1591 4.44662L93.8089 4.44666Z" fill="#2F8B8B"/>
<path d="M83.8323 4.44666L80.011 9.73758C79.6096 10.2933 78.7182 10.3269 78.2819 9.80293L73.8228 4.44666L79.1825 4.44662L83.8323 4.44666Z" fill="#2F8B8B"/>
<path d="M73.8563 4.44666L70.0349 9.73758C69.6336 10.2933 68.7421 10.3269 68.3059 9.80293L63.8467 4.44666L69.2064 4.44662L73.8563 4.44666Z" fill="#2F8B8B"/>
<path d="M92.5613 97.9327L88.74 92.6418C88.3386 92.0861 87.4472 92.0525 87.011 92.5765L82.5518 97.9327L87.9115 97.9328L92.5613 97.9327Z" fill="#2F8B8B"/>
<path d="M82.5848 97.9327L78.7634 92.6418C78.3621 92.0861 77.4706 92.0525 77.0344 92.5765L72.5753 97.9327L77.9349 97.9328L82.5848 97.9327Z" fill="#2F8B8B"/>
<path d="M72.609 97.9327L68.7876 92.6418C68.3862 92.0861 67.4948 92.0525 67.0586 92.5765L62.5994 97.9327L67.9591 97.9328L72.609 97.9327Z" fill="#2F8B8B"/>
<path d="M143.683 45.6108L138.82 49.5993C137.839 50.4041 137.846 51.9075 138.834 52.7035L142.555 55.7002L150.521 61.9885C151.176 62.5063 152.14 62.0392 152.14 61.2037L152.14 41.0936C152.14 40.2621 151.185 39.7938 150.528 40.3034L143.683 45.6108Z" fill="#2F8B8B"/>
<path d="M125.838 47.0298C125.466 46.7855 124.961 46.7855 124.589 47.0298L119.466 50.3997C118.893 50.7765 118.893 51.5424 119.466 51.9192L124.589 55.289C124.961 55.5333 125.466 55.5333 125.838 55.289L130.961 51.9192C131.534 51.5424 131.534 50.7765 130.961 50.3996L125.838 47.0298Z" fill="#2F8B8B"/>
<path d="M151.062 6.60883C151.062 6.60883 127.01 17.7802 112.403 26.135C96.6856 35.1249 73.7445 48.4456 73.7445 51.2401C73.7445 54.0346 96.1687 66.3508 111.156 75.2294C126.373 84.2438 152.764 97.5449 152.764 97.5449C152.764 97.5449 153.387 99.3068 149.023 98.749C144.658 98.1911 127.587 87.5034 115.521 80.8083C95.4889 69.694 65.0151 55.1453 65.0151 51.2401C65.0151 47.3349 95.0115 31.7496 115.521 21.114C128.62 14.3211 146.697 5.57981 151.062 3.90591C155.426 2.232 151.062 6.60883 151.062 6.60883Z" fill="#2F8B8B"/>
<path d="M5.00435e-09 4.46311C5.00435e-09 4.46311 27.961 17.7771 42.568 26.1318C58.2854 35.1218 81.2265 48.4424 81.2265 51.2369C81.2265 54.0314 58.8023 66.3476 43.815 75.2262C28.5985 84.2407 3.90944 96.984 3.90944 96.984C3.90944 96.984 3.9094 98.0998 8.27411 97.5419C12.6388 96.984 27.3836 87.5002 39.4504 80.8052C59.4821 69.6908 89.9559 55.1422 89.9559 51.2369C89.9559 47.3317 59.9595 31.7464 39.4504 21.1108C26.3512 14.3179 9.52119 6.60589 5.15649 4.93198C0.791784 3.25808 5.00435e-09 4.46311 5.00435e-09 4.46311Z" fill="#2F8B8B"/>
<path d="M59.8586 51.2374C59.8586 54.5848 43.299 62.2972 31.8 68.532C20.3445 74.7434 3.74138 85.2684 1.24728 83.0372C-1.24682 80.806 1.24728 78.5741 1.24728 78.5741C1.24728 78.5741 18.3018 70.2105 28.6824 64.0689C36.6867 59.3333 48.6352 54.0269 48.6352 51.2374C48.6352 48.448 36.8367 42.6142 28.6824 37.848C18.9206 32.1423 2.49433 25.0166 2.49433 25.0166C2.49433 25.0166 0.000228921 23.3433 1.24728 20.5534C2.49433 17.7635 20.4848 28.0739 31.8 33.9428C43.5558 40.0402 59.8586 47.8901 59.8586 51.2374Z" fill="#2F8B8B"/>
<path d="M92.4204 51.2374C92.4204 54.5848 108.98 62.2972 120.479 68.532C131.935 74.7434 148.538 85.2684 151.032 83.0372C153.526 80.806 151.032 78.5741 151.032 78.5741C151.032 78.5741 133.977 70.2105 123.597 64.0689C115.592 59.3333 103.644 54.0269 103.644 51.2374C103.644 48.448 115.442 42.6142 123.597 37.848C133.358 32.1423 149.785 25.0166 149.785 25.0166C149.785 25.0166 152.279 23.3433 151.032 20.5534C149.785 17.7635 131.794 28.0739 120.479 33.9428C108.723 40.0402 92.4204 47.8901 92.4204 51.2374Z" fill="#2F8B8B"/>
<path d="M123.458 3.34717C123.458 3.34717 109.117 15.0629 101.635 23.4312C93.6722 32.3366 77.9407 43.5153 77.9407 43.5153C77.9407 43.5153 62.9988 30.7042 53.6232 22.3155C46.7644 16.1787 37.4116 3.34717 37.4116 3.34717L44.2703 3.34717C44.2703 3.34717 43.0014 10.5997 57.9879 22.3155C66.2862 28.8027 74.8231 39.0522 77.9407 38.4943C81.0583 37.9364 91.3769 30.2663 97.8935 22.3155C104.752 13.9471 117.223 3.34717 117.223 3.34717L123.458 3.34717Z" fill="#2F8B8B"/>
<path d="M123.458 98.1895C123.458 98.1895 109.117 86.4737 101.635 78.1054C93.6722 69.2 77.9407 58.0213 77.9407 58.0213C77.9407 58.0213 62.9988 70.8325 53.6232 79.2212C46.7644 85.358 37.4116 98.1895 37.4116 98.1895L44.2703 98.1895C44.2703 98.1895 43.0014 90.9369 57.9879 79.2212C66.2862 72.7339 74.8231 62.4844 77.9407 63.0423C81.0583 63.6002 91.3769 71.2703 97.8935 79.2212C104.752 87.5895 117.223 98.1895 117.223 98.1895L123.458 98.1895Z" fill="#2F8B8B"/>
<path d="M107.247 3.34717C107.247 3.34717 95.3996 16.7365 91.0349 22.3155C86.6703 27.8944 81.0585 30.1259 78.5291 30.1259C75.9997 30.1259 70.5131 25.8579 66.0939 22.3155C58.4402 16.1801 50.5058 3.34717 50.5058 3.34717L56.1175 3.34717C56.1175 3.34717 57.2035 9.06159 61.7292 13.3892C66.0685 17.5385 72.1939 24.5985 78.5291 24.9981C85.4598 25.4352 88.1936 20.1892 92.9055 15.6208C97.2118 11.4456 101.635 3.34717 101.635 3.34717L107.247 3.34717Z" fill="#2F8B8B"/>
<path d="M107.247 98.1895C107.247 98.1895 95.3996 84.8001 91.0349 79.2212C86.6703 73.6423 81.0585 71.4107 78.5291 71.4107C75.9997 71.4107 70.5131 75.6787 66.0939 79.2212C58.4402 85.3565 50.5058 98.1895 50.5058 98.1895L56.1175 98.1895C56.1175 98.1895 57.2035 92.475 61.7292 88.1474C66.0685 83.9982 72.1939 76.9381 78.5291 76.5385C85.4598 76.1014 88.1936 81.3474 92.9055 85.9159C97.2118 90.0911 101.635 98.1895 101.635 98.1895L107.247 98.1895Z" fill="#2F8B8B"/>
<g filter="url(#filter0_b)">
<path fill-rule="evenodd" clip-rule="evenodd" d="M0 106H1443V141H0V106Z" fill="#1E425D"/>
</g>
<defs>
<filter id="filter0_b" x="-27.1828" y="78.8172" width="1497.37" height="89.3656" filterUnits="userSpaceOnUse" color-interpolation-filters="sRGB">
<feFlood flood-opacity="0" result="BackgroundImageFix"/>
<feGaussianBlur in="BackgroundImage" stdDeviation="13.5914"/>
<feComposite in2="SourceAlpha" operator="in" result="effect1_backgroundBlur"/>
<feBlend mode="normal" in="SourceGraphic" in2="effect1_backgroundBlur" result="shape"/>
</filter>
</defs>
</svg>
