<svg width="29" height="31" viewBox="0 0 29 31" fill="none" xmlns="http://www.w3.org/2000/svg">
<path d="M14.1283 0C6.36329 0 0 6.85838 0 15.1556C0 23.4046 6.3053 30.1932 14.1283 30.1932C21.9416 30.1932 28.2566 23.4147 28.2566 15.1556C28.2566 6.85838 21.8933 0 14.1283 0ZM16.6118 28.1587C15.8171 28.3356 14.9727 28.424 14.1283 28.424C13.2839 28.424 12.4394 28.3356 11.6448 28.1587V24.019C11.6448 23.0282 11.8931 22.6744 12.2243 22.1966C12.3929 21.9907 12.4946 21.8059 13.2507 20.5869L11.9759 20.3745C8.69759 19.8615 7.40627 18.0392 6.89297 16.6238C6.23071 14.731 6.57844 12.3602 7.7706 10.8567C7.95276 10.6265 8.10173 10.2372 7.96936 9.83043C7.7208 9.01658 7.754 7.72521 7.91956 7.22971C8.79741 7.36378 9.70004 8.03573 10.4529 8.52132C10.7997 8.73762 10.9817 8.68049 11.1481 8.69823C11.753 8.5637 12.6966 8.23821 14.1449 8.23821C15.0389 8.23821 15.9827 8.37965 16.9099 8.66276C17.0757 8.65861 17.3422 8.80926 17.8039 8.52132C18.5908 8.00901 19.4628 7.36009 20.337 7.22971C20.5026 7.72521 20.5358 9.01658 20.2874 9.83043C20.1548 10.2372 20.3038 10.6265 20.4862 10.8567C21.6781 12.3604 22.0259 14.731 21.3636 16.6238C20.8503 18.0392 19.559 19.8615 16.2806 20.3745L15.0059 20.5869C15.7874 21.8469 15.8697 21.998 16.0325 22.1966C16.3634 22.6744 16.6118 23.0282 16.6118 24.019V28.1587ZM18.2674 27.6457V24.019C18.2674 23.0105 18.0687 22.3383 17.8037 21.8428C20.3204 21.1176 22.1086 19.5252 22.9033 17.243C23.7477 14.8372 23.367 11.9711 21.9595 9.9896C22.208 8.80442 22.208 6.91136 21.6119 6.0268C21.347 5.63772 20.9827 5.42534 20.5192 5.42534C20.5026 5.42534 20.5026 5.42534 20.5026 5.42534C19.2188 5.49951 18.2084 6.19035 17.1251 6.89362C16.1317 6.61052 15.1217 6.46908 14.1117 6.46908C13.0853 6.46908 12.0587 6.62825 11.1483 6.89362C10.0079 6.15879 9.00717 5.49767 7.68782 5.42534C7.2739 5.42534 6.90957 5.63772 6.64462 6.0268C6.04876 6.91136 6.04876 8.80442 6.29711 9.9896C4.88958 11.9711 4.50887 14.8547 5.35329 17.243C6.14792 19.5252 7.93616 21.1176 10.4529 21.8428C10.2474 22.2268 10.0849 22.7223 10.0208 23.3929C9.51249 23.5801 9.07163 23.6412 8.66159 23.5124C8.22914 23.3758 7.89219 23.0674 7.59943 22.5412C6.94191 21.3609 5.82197 20.3973 4.54681 20.5226L4.69232 22.2848C5.2828 22.227 5.87047 22.8946 6.17573 23.4449C6.67933 24.3511 7.35776 24.9454 8.1927 25.209C8.8125 25.4041 9.37904 25.3995 9.98914 25.2603V27.6457C5.17113 25.8411 1.65566 20.923 1.65566 15.1556C1.65566 7.8314 7.2739 1.76913 14.1283 1.76913C20.9827 1.76913 26.6009 7.8314 26.6009 15.1556C26.6009 20.923 23.0854 25.8411 18.2674 27.6457Z" fill="#333736"/>
</svg>
