<svg width="28" height="29" viewBox="0 0 28 29" fill="none" xmlns="http://www.w3.org/2000/svg">
<path d="M7.23624 28.9999H0.440717V9.19902H7.23624V28.9999ZM1.68731 27.7058H5.98955V10.4932H1.68731V27.7058ZM3.83969 7.9631C1.72291 7.9631 0 6.17644 0 3.9809C0 1.78535 1.72291 0 3.83969 0C5.95589 0 7.67696 1.78596 7.67696 3.9809C7.67696 6.17715 5.95589 7.9631 3.83969 7.9631ZM3.83969 1.29421C2.40978 1.29421 1.2466 2.49972 1.2466 3.9809C1.2466 5.46339 2.40969 6.6689 3.83969 6.6689C5.26834 6.6689 6.43026 5.46268 6.43026 3.9809C6.43026 2.49972 5.26843 1.29421 3.83969 1.29421ZM28 28.9999H21.2138V19.3544C21.2138 16.4678 20.876 15.094 18.9542 15.094C17.0101 15.094 16.2527 16.2446 16.2527 19.1979V29H9.46902V9.19902H16.0295V10.6C17.0742 9.5782 18.6575 8.73959 20.7276 8.73959C27.1354 8.73959 27.9993 13.5236 27.9993 18.2032V28.9999H28ZM22.4605 27.7058H26.7534V18.2033C26.7534 13.1599 25.7455 10.0338 20.7283 10.0338C18.2536 10.0338 16.6529 11.458 16.034 12.6772L15.8588 13.0227H14.7836V10.4939H10.7163V27.7065H15.0067V19.198C15.0067 17.7219 15.0067 13.7999 18.9549 13.7999C22.4612 13.7999 22.4612 17.4132 22.4612 19.3545V27.7059H22.4605V27.7058Z" fill="#333736"/>
</svg>
