<svg width="38" height="42" viewBox="0 0 38 42" fill="none" xmlns="http://www.w3.org/2000/svg">
<mask id="path-1-inside-1" fill="white">
<path fill-rule="evenodd" clip-rule="evenodd" d="M1.80608 0C0.808611 0 0 0.80861 0 1.80608C0 2.73022 0.694085 3.49225 1.58939 3.5993L1.58939 37.4348C0.694084 37.5419 0 38.3039 0 39.228C0 40.2255 0.808612 41.0341 1.80608 41.0341H6.86311C7.86058 41.0341 8.66919 40.2255 8.66919 39.228C8.66919 38.2548 7.89936 37.4613 6.93539 37.4234L6.93539 22.3958H14.3041L14.3041 37.4219H13.3651C12.3677 37.4219 11.559 38.2305 11.559 39.228C11.559 40.2255 12.3676 41.0341 13.3651 41.0341H22.3233C23.3208 41.0341 24.1294 40.2255 24.1294 39.228C24.1294 38.2305 23.3208 37.4219 22.3233 37.4219H21.3686C22.5449 35.0146 24.3333 31.5667 26.0076 29.1859C27.3272 27.3094 29.2422 25.1483 30.9201 23.3669V37.4348C30.0248 37.5419 29.3307 38.3039 29.3307 39.228C29.3307 40.2255 30.1394 41.0341 31.1368 41.0341H36.1939C37.1913 41.0341 37.9999 40.2255 37.9999 39.228C37.9999 38.2548 37.2301 37.4613 36.2661 37.4234V3.61074C37.2301 3.5728 37.9999 2.77935 37.9999 1.80608C37.9999 0.832819 37.2301 0.0393618 36.2661 0.00142008V0H36.1939H31.1368H30.9201V0.0128658C30.0248 0.119919 29.3307 0.881944 29.3307 1.80608C29.3307 2.73022 30.0248 3.49225 30.9201 3.5993V15.1547C29.9635 13.8513 29.0297 12.4909 28.3193 11.27C27.0289 9.05226 25.7144 5.98637 24.77 3.61216H25.6465C26.644 3.61216 27.4526 2.80355 27.4526 1.80608C27.4526 0.80861 26.644 0 25.6465 0H19.6501H14.3041H13.3651C12.3677 0 11.559 0.80861 11.559 1.80608C11.559 2.80355 12.3677 3.61216 13.3651 3.61216H14.3041L14.3041 18.7837H6.93539L6.9354 3.61074C7.89936 3.5728 8.66919 2.77935 8.66919 1.80608C8.66919 0.80861 7.86058 0 6.86311 0H1.80608ZM19.6501 3.61216L19.6501 33.3494C20.9695 30.9864 22.616 28.21 24.1293 26.1517C25.7312 23.9728 28.1627 21.2672 29.8019 19.5024C28.3137 17.5694 26.4896 15.0767 25.2851 13.0038C23.6404 10.1736 21.905 5.9826 20.9708 3.61216H19.6501Z"/>
</mask>
<path fill-rule="evenodd" clip-rule="evenodd" d="M1.80608 0C0.808611 0 0 0.80861 0 1.80608C0 2.73022 0.694085 3.49225 1.58939 3.5993L1.58939 37.4348C0.694084 37.5419 0 38.3039 0 39.228C0 40.2255 0.808612 41.0341 1.80608 41.0341H6.86311C7.86058 41.0341 8.66919 40.2255 8.66919 39.228C8.66919 38.2548 7.89936 37.4613 6.93539 37.4234L6.93539 22.3958H14.3041L14.3041 37.4219H13.3651C12.3677 37.4219 11.559 38.2305 11.559 39.228C11.559 40.2255 12.3676 41.0341 13.3651 41.0341H22.3233C23.3208 41.0341 24.1294 40.2255 24.1294 39.228C24.1294 38.2305 23.3208 37.4219 22.3233 37.4219H21.3686C22.5449 35.0146 24.3333 31.5667 26.0076 29.1859C27.3272 27.3094 29.2422 25.1483 30.9201 23.3669V37.4348C30.0248 37.5419 29.3307 38.3039 29.3307 39.228C29.3307 40.2255 30.1394 41.0341 31.1368 41.0341H36.1939C37.1913 41.0341 37.9999 40.2255 37.9999 39.228C37.9999 38.2548 37.2301 37.4613 36.2661 37.4234V3.61074C37.2301 3.5728 37.9999 2.77935 37.9999 1.80608C37.9999 0.832819 37.2301 0.0393618 36.2661 0.00142008V0H36.1939H31.1368H30.9201V0.0128658C30.0248 0.119919 29.3307 0.881944 29.3307 1.80608C29.3307 2.73022 30.0248 3.49225 30.9201 3.5993V15.1547C29.9635 13.8513 29.0297 12.4909 28.3193 11.27C27.0289 9.05226 25.7144 5.98637 24.77 3.61216H25.6465C26.644 3.61216 27.4526 2.80355 27.4526 1.80608C27.4526 0.80861 26.644 0 25.6465 0H19.6501H14.3041H13.3651C12.3677 0 11.559 0.80861 11.559 1.80608C11.559 2.80355 12.3677 3.61216 13.3651 3.61216H14.3041L14.3041 18.7837H6.93539L6.9354 3.61074C7.89936 3.5728 8.66919 2.77935 8.66919 1.80608C8.66919 0.80861 7.86058 0 6.86311 0H1.80608ZM19.6501 3.61216L19.6501 33.3494C20.9695 30.9864 22.616 28.21 24.1293 26.1517C25.7312 23.9728 28.1627 21.2672 29.8019 19.5024C28.3137 17.5694 26.4896 15.0767 25.2851 13.0038C23.6404 10.1736 21.905 5.9826 20.9708 3.61216H19.6501Z" fill="#1E425D"/>
<path d="M1.58939 3.5993H2.58939L2.58939 2.71175L1.70812 2.60637L1.58939 3.5993ZM1.58939 37.4348L1.70811 38.4277L2.58939 38.3224V37.4348H1.58939ZM6.93539 37.4234H5.93539V38.3848L6.89606 38.4226L6.93539 37.4234ZM6.93539 22.3958V21.3958H5.93539V22.3958H6.93539ZM14.3041 22.3958H15.3041V21.3958H14.3041V22.3958ZM14.3041 37.4219V38.4219H15.3041V37.4219H14.3041ZM21.3686 37.4219L20.4701 36.9829L19.767 38.4219H21.3686V37.4219ZM26.0076 29.1859L26.8256 29.7611H26.8256L26.0076 29.1859ZM30.9201 23.3669H31.9201V20.8466L30.1922 22.6812L30.9201 23.3669ZM30.9201 37.4348L31.0389 38.4277L31.9201 38.3224V37.4348H30.9201ZM36.2661 37.4234H35.2661V38.3848L36.2268 38.4226L36.2661 37.4234ZM36.2661 3.61074L36.2268 2.61152L35.2661 2.64933V3.61074H36.2661ZM36.2661 0.00142008H35.2661V0.962834L36.2268 1.00065L36.2661 0.00142008ZM36.2661 0H37.2661V-1H36.2661V0ZM30.9201 0V-1H29.9201V0H30.9201ZM30.9201 0.0128658L31.0389 1.00579L31.9201 0.900418V0.0128658H30.9201ZM30.9201 3.5993H31.9201V2.71175L31.0389 2.60637L30.9201 3.5993ZM30.9201 15.1547L30.114 15.7464L31.9201 18.2072V15.1547H30.9201ZM28.3193 11.27L29.1836 10.7671L28.3193 11.27ZM24.77 3.61216V2.61216H23.296L23.8408 3.98176L24.77 3.61216ZM14.3041 3.61216H15.3041V2.61216H14.3041V3.61216ZM14.3041 18.7837V19.7837H15.3041V18.7837H14.3041ZM6.93539 18.7837H5.93539V19.7837H6.93539V18.7837ZM6.9354 3.61074L6.89607 2.61152L5.9354 2.64933V3.61074H6.9354ZM19.6501 33.3494H18.6501V37.1919L20.5232 33.8369L19.6501 33.3494ZM19.6501 3.61216V2.61216H18.6501V3.61216H19.6501ZM24.1293 26.1517L24.9349 26.744V26.744L24.1293 26.1517ZM29.8019 19.5024L30.5346 20.1829L31.1105 19.5629L30.5942 18.8923L29.8019 19.5024ZM25.2851 13.0038L24.4205 13.5063L25.2851 13.0038ZM20.9708 3.61216L21.9012 3.24553L21.6516 2.61216H20.9708V3.61216ZM1 1.80608C1 1.3609 1.3609 1 1.80608 1V-1C0.256327 -1 -1 0.256325 -1 1.80608H1ZM1.70812 2.60637C1.30957 2.55872 1 2.21781 1 1.80608H-1C-1 3.24263 0.0786037 4.42578 1.47067 4.59223L1.70812 2.60637ZM2.58939 37.4348L2.58939 3.5993H0.589392L0.589391 37.4348H2.58939ZM1.47067 36.4419C0.0786024 36.6083 -1 37.7915 -1 39.228H1C1 38.8163 1.30957 38.4754 1.70811 38.4277L1.47067 36.4419ZM-1 39.228C-1 40.7778 0.256329 42.0341 1.80608 42.0341V40.0341C1.36089 40.0341 1 39.6732 1 39.228H-1ZM1.80608 42.0341H6.86311V40.0341H1.80608V42.0341ZM6.86311 42.0341C8.41287 42.0341 9.66919 40.7778 9.66919 39.228H7.66919C7.66919 39.6732 7.3083 40.0341 6.86311 40.0341V42.0341ZM9.66919 39.228C9.66919 37.7156 8.47312 36.4831 6.97472 36.4241L6.89606 38.4226C7.32559 38.4395 7.66919 38.7939 7.66919 39.228H9.66919ZM5.93539 22.3958L5.93539 37.4234H7.93539L7.93539 22.3958H5.93539ZM14.3041 21.3958H6.93539V23.3958H14.3041V21.3958ZM15.3041 37.4219L15.3041 22.3958H13.3041L13.3041 37.4219H15.3041ZM13.3651 38.4219H14.3041V36.4219H13.3651V38.4219ZM12.559 39.228C12.559 38.7828 12.9199 38.4219 13.3651 38.4219V36.4219C11.8154 36.4219 10.559 37.6783 10.559 39.228H12.559ZM13.3651 40.0341C12.9199 40.0341 12.559 39.6732 12.559 39.228H10.559C10.559 40.7778 11.8154 42.0341 13.3651 42.0341V40.0341ZM22.3233 40.0341H13.3651V42.0341H22.3233V40.0341ZM23.1294 39.228C23.1294 39.6732 22.7685 40.0341 22.3233 40.0341V42.0341C23.873 42.0341 25.1294 40.7778 25.1294 39.228H23.1294ZM22.3233 38.4219C22.7685 38.4219 23.1294 38.7828 23.1294 39.228H25.1294C25.1294 37.6783 23.873 36.4219 22.3233 36.4219V38.4219ZM21.3686 38.4219H22.3233V36.4219H21.3686V38.4219ZM25.1896 28.6106C23.4659 31.0618 21.648 34.5722 20.4701 36.9829L22.2671 37.861C23.4417 35.4569 25.2008 32.0715 26.8256 29.7611L25.1896 28.6106ZM30.1922 22.6812C28.5068 24.4706 26.5517 26.6738 25.1896 28.6106L26.8256 29.7611C28.1027 27.945 29.9777 25.826 31.6481 24.0525L30.1922 22.6812ZM31.9201 37.4348V23.3669H29.9201V37.4348H31.9201ZM30.3307 39.228C30.3307 38.8163 30.6403 38.4754 31.0389 38.4277L30.8014 36.4419C29.4093 36.6083 28.3307 37.7915 28.3307 39.228H30.3307ZM31.1368 40.0341C30.6916 40.0341 30.3307 39.6732 30.3307 39.228H28.3307C28.3307 40.7778 29.5871 42.0341 31.1368 42.0341V40.0341ZM36.1939 40.0341H31.1368V42.0341H36.1939V40.0341ZM36.9999 39.228C36.9999 39.6732 36.639 40.0341 36.1939 40.0341V42.0341C37.7436 42.0341 38.9999 40.7778 38.9999 39.228H36.9999ZM36.2268 38.4226C36.6563 38.4395 36.9999 38.7939 36.9999 39.228H38.9999C38.9999 37.7156 37.8039 36.4831 36.3055 36.4241L36.2268 38.4226ZM35.2661 3.61074V37.4234H37.2661V3.61074H35.2661ZM36.9999 1.80608C36.9999 2.24023 36.6563 2.59461 36.2268 2.61152L36.3055 4.60997C37.8039 4.55099 38.9999 3.31846 38.9999 1.80608H36.9999ZM36.2268 1.00065C36.6563 1.01755 36.9999 1.37193 36.9999 1.80608H38.9999C38.9999 0.293706 37.8039 -0.938829 36.3055 -0.997806L36.2268 1.00065ZM35.2661 0V0.00142008H37.2661V0H35.2661ZM36.1939 1H36.2661V-1H36.1939V1ZM31.1368 1H36.1939V-1H31.1368V1ZM30.9201 1H31.1368V-1H30.9201V1ZM31.9201 0.0128658V0H29.9201V0.0128658H31.9201ZM30.3307 1.80608C30.3307 1.39435 30.6403 1.05345 31.0389 1.00579L30.8014 -0.980061C29.4093 -0.81361 28.3307 0.369538 28.3307 1.80608H30.3307ZM31.0389 2.60637C30.6403 2.55872 30.3307 2.21781 30.3307 1.80608H28.3307C28.3307 3.24263 29.4093 4.42577 30.8014 4.59223L31.0389 2.60637ZM31.9201 15.1547V3.5993H29.9201V15.1547H31.9201ZM27.4549 11.7729C28.1907 13.0375 29.1478 14.4301 30.114 15.7464L31.7263 14.563C30.7791 13.2726 29.8686 11.9443 29.1836 10.7671L27.4549 11.7729ZM23.8408 3.98176C24.7877 6.36238 26.1248 9.48689 27.4549 11.7729L29.1836 10.7671C27.933 8.61762 26.641 5.61035 25.6992 3.24256L23.8408 3.98176ZM25.6465 2.61216H24.77V4.61216H25.6465V2.61216ZM26.4526 1.80608C26.4526 2.25127 26.0917 2.61216 25.6465 2.61216V4.61216C27.1962 4.61216 28.4526 3.35584 28.4526 1.80608H26.4526ZM25.6465 1C26.0917 1 26.4526 1.3609 26.4526 1.80608H28.4526C28.4526 0.256325 27.1962 -1 25.6465 -1V1ZM19.6501 1H25.6465V-1H19.6501V1ZM14.3041 1H19.6501V-1H14.3041V1ZM13.3651 1H14.3041V-1H13.3651V1ZM12.559 1.80608C12.559 1.36089 12.9199 1 13.3651 1V-1C11.8154 -1 10.559 0.256326 10.559 1.80608H12.559ZM13.3651 2.61216C12.9199 2.61216 12.559 2.25127 12.559 1.80608H10.559C10.559 3.35584 11.8154 4.61216 13.3651 4.61216V2.61216ZM14.3041 2.61216H13.3651V4.61216H14.3041V2.61216ZM15.3041 18.7837L15.3041 3.61216H13.3041L13.3041 18.7837H15.3041ZM6.93539 19.7837H14.3041V17.7837H6.93539V19.7837ZM5.9354 3.61074L5.93539 18.7837H7.93539L7.9354 3.61074H5.9354ZM7.66919 1.80608C7.66919 2.24023 7.32559 2.59461 6.89607 2.61152L6.97473 4.60997C8.47312 4.55099 9.66919 3.31846 9.66919 1.80608H7.66919ZM6.86311 1C7.3083 1 7.66919 1.3609 7.66919 1.80608H9.66919C9.66919 0.256324 8.41287 -1 6.86311 -1V1ZM1.80608 1H6.86311V-1H1.80608V1ZM20.6501 33.3494L20.6501 3.61216H18.6501L18.6501 33.3494H20.6501ZM23.3236 25.5593C21.7719 27.6698 20.1008 30.4909 18.777 32.862L20.5232 33.8369C21.8381 31.4818 23.46 28.7501 24.9349 26.744L23.3236 25.5593ZM29.0692 18.8218C27.4286 20.5881 24.9625 23.3301 23.3236 25.5593L24.9349 26.744C26.4999 24.6154 28.8968 21.9463 30.5346 20.1829L29.0692 18.8218ZM24.4205 13.5063C25.6594 15.6383 27.5169 18.1737 29.0095 20.1124L30.5942 18.8923C29.1104 16.965 27.3198 14.515 26.1497 12.5014L24.4205 13.5063ZM20.0405 3.9788C20.9742 6.34808 22.7335 10.6034 24.4205 13.5063L26.1497 12.5014C24.5472 9.74377 22.8358 5.61713 21.9012 3.24553L20.0405 3.9788ZM19.6501 4.61216H20.9708V2.61216H19.6501V4.61216Z" fill="#E5E5E5" mask="url(#path-1-inside-1)"/>
</svg>
