<svg width="76" height="82" viewBox="0 0 76 82" fill="none" xmlns="http://www.w3.org/2000/svg">
<mask id="path-1-inside-1" fill="white">
<path fill-rule="evenodd" clip-rule="evenodd" d="M72.4712 0.00282097V0H72.3272H62.2216H61.7882V0.0257609C59.9993 0.239878 58.6125 1.76256 58.6125 3.60914C58.6125 5.45572 59.9993 6.9784 61.7882 7.19252V30.2836C59.8765 27.6791 58.0106 24.9606 56.5911 22.521C54.0125 18.0893 51.3857 11.9627 49.4985 7.21828H51.2496C53.2429 7.21828 54.8588 5.60241 54.8588 3.60914C54.8588 1.61587 53.2429 0 51.2496 0H39.2674H28.5843H26.7075C24.7142 0 23.0984 1.61587 23.0984 3.60914C23.0984 5.60241 24.7142 7.21828 26.7075 7.21828H28.5843L28.5843 37.5346H13.8591L13.8591 7.21597C15.7854 7.14019 17.3239 5.55459 17.3239 3.60966C17.3239 1.61639 15.708 0.000523847 13.7147 0.000523847H3.60914C1.61587 0.000523847 0 1.61639 0 3.60966C0 5.45636 1.38696 6.97912 3.17604 7.19308L3.17604 74.8068C1.38696 75.0208 0 76.5436 0 78.3903C0 80.3835 1.61587 81.9994 3.60914 81.9994H13.7147C15.708 81.9994 17.3239 80.3835 17.3239 78.3903C17.3239 76.4453 15.7854 74.8597 13.8591 74.784L13.8591 44.7529H28.5843L28.5843 74.7811H26.7075C24.7142 74.7811 23.0984 76.397 23.0984 78.3903C23.0984 80.3835 24.7142 81.9994 26.7075 81.9994H44.6088C46.6021 81.9994 48.218 80.3835 48.218 78.3903C48.218 76.397 46.6021 74.7811 44.6088 74.7811H42.7016C45.0522 69.9704 48.6259 63.0809 51.9715 58.3235C54.6085 54.5738 58.4352 50.2554 61.7882 46.6955V74.8069C59.9993 75.021 58.6125 76.5437 58.6125 78.3903C58.6125 80.3835 60.2283 81.9994 62.2216 81.9994H72.3272C74.3205 81.9994 75.9363 80.3835 75.9363 78.3903C75.9363 76.4452 74.3977 74.8595 72.4712 74.7839V7.21546C74.3977 7.13986 75.9363 5.55418 75.9363 3.60914C75.9363 1.6641 74.3977 0.078423 72.4712 0.00282097ZM39.2674 7.21828L39.2674 66.6434C41.9038 61.9213 45.194 56.3733 48.218 52.2602C51.4193 47.9059 56.2785 42.499 59.5541 38.9724C56.5801 35.1095 52.9349 30.1281 50.5278 25.9858C47.2411 20.3301 43.7733 11.9552 41.9066 7.21828H39.2674Z"/>
</mask>
<path fill-rule="evenodd" clip-rule="evenodd" d="M72.4712 0.00282097V0H72.3272H62.2216H61.7882V0.0257609C59.9993 0.239878 58.6125 1.76256 58.6125 3.60914C58.6125 5.45572 59.9993 6.9784 61.7882 7.19252V30.2836C59.8765 27.6791 58.0106 24.9606 56.5911 22.521C54.0125 18.0893 51.3857 11.9627 49.4985 7.21828H51.2496C53.2429 7.21828 54.8588 5.60241 54.8588 3.60914C54.8588 1.61587 53.2429 0 51.2496 0H39.2674H28.5843H26.7075C24.7142 0 23.0984 1.61587 23.0984 3.60914C23.0984 5.60241 24.7142 7.21828 26.7075 7.21828H28.5843L28.5843 37.5346H13.8591L13.8591 7.21597C15.7854 7.14019 17.3239 5.55459 17.3239 3.60966C17.3239 1.61639 15.708 0.000523847 13.7147 0.000523847H3.60914C1.61587 0.000523847 0 1.61639 0 3.60966C0 5.45636 1.38696 6.97912 3.17604 7.19308L3.17604 74.8068C1.38696 75.0208 0 76.5436 0 78.3903C0 80.3835 1.61587 81.9994 3.60914 81.9994H13.7147C15.708 81.9994 17.3239 80.3835 17.3239 78.3903C17.3239 76.4453 15.7854 74.8597 13.8591 74.784L13.8591 44.7529H28.5843L28.5843 74.7811H26.7075C24.7142 74.7811 23.0984 76.397 23.0984 78.3903C23.0984 80.3835 24.7142 81.9994 26.7075 81.9994H44.6088C46.6021 81.9994 48.218 80.3835 48.218 78.3903C48.218 76.397 46.6021 74.7811 44.6088 74.7811H42.7016C45.0522 69.9704 48.6259 63.0809 51.9715 58.3235C54.6085 54.5738 58.4352 50.2554 61.7882 46.6955V74.8069C59.9993 75.021 58.6125 76.5437 58.6125 78.3903C58.6125 80.3835 60.2283 81.9994 62.2216 81.9994H72.3272C74.3205 81.9994 75.9363 80.3835 75.9363 78.3903C75.9363 76.4452 74.3977 74.8595 72.4712 74.7839V7.21546C74.3977 7.13986 75.9363 5.55418 75.9363 3.60914C75.9363 1.6641 74.3977 0.078423 72.4712 0.00282097ZM39.2674 7.21828L39.2674 66.6434C41.9038 61.9213 45.194 56.3733 48.218 52.2602C51.4193 47.9059 56.2785 42.499 59.5541 38.9724C56.5801 35.1095 52.9349 30.1281 50.5278 25.9858C47.2411 20.3301 43.7733 11.9552 41.9066 7.21828H39.2674Z" fill="#2F8B8B"/>
<path d="M72.4712 0H75.4712V-3H72.4712V0ZM72.4712 0.00282097H69.4712V2.8874L72.3536 3.00051L72.4712 0.00282097ZM61.7882 0V-3H58.7882V0H61.7882ZM61.7882 0.0257609L62.1447 3.0045L64.7882 2.6881V0.0257609H61.7882ZM61.7882 7.19252H64.7882V4.53018L62.1447 4.21378L61.7882 7.19252ZM61.7882 30.2836L59.3697 32.0587L64.7882 39.441V30.2836H61.7882ZM56.5911 22.521L59.1842 21.0123L59.1841 21.0123L56.5911 22.521ZM49.4985 7.21828V4.21828H45.0766L46.7109 8.32708L49.4985 7.21828ZM28.5843 7.21828H31.5843V4.21828H28.5843V7.21828ZM28.5843 37.5346V40.5346H31.5843V37.5346H28.5843ZM13.8591 37.5346H10.8591V40.5346H13.8591V37.5346ZM13.8591 7.21597L13.7412 4.21829L10.8591 4.33166V7.21597H13.8591ZM3.17604 7.19308H6.17604L6.17604 4.53048L3.53228 4.21431L3.17604 7.19308ZM3.17604 74.8068L3.53227 77.7856L6.17604 77.4694V74.8068H3.17604ZM13.8591 74.784H10.8591V77.6683L13.7412 77.7816L13.8591 74.784ZM13.8591 44.7529V41.7529H10.8591V44.7529H13.8591ZM28.5843 44.7529H31.5843V41.7529H28.5843V44.7529ZM28.5843 74.7811V77.7811H31.5843V74.7811H28.5843ZM42.7016 74.7811L40.0062 73.4641L37.8968 77.7811H42.7016V74.7811ZM51.9715 58.3235L49.5176 56.5978L51.9715 58.3235ZM61.7882 46.6955H64.7882V39.1348L59.6043 44.6386L61.7882 46.6955ZM61.7882 74.8069L62.1447 77.7856L64.7882 77.4692V74.8069H61.7882ZM72.4712 74.7839H69.4712V77.6685L72.3536 77.7816L72.4712 74.7839ZM72.4712 7.21546L72.3536 4.21776L69.4712 4.33087V7.21546H72.4712ZM39.2674 66.6434H36.2674V78.1706L41.8867 68.1059L39.2674 66.6434ZM39.2674 7.21828V4.21828H36.2674V7.21828H39.2674ZM48.218 52.2602L50.6351 54.0372L48.218 52.2602ZM59.5541 38.9724L61.7522 41.014L63.4799 39.1539L61.9312 37.1423L59.5541 38.9724ZM50.5278 25.9858L47.9339 27.4931L50.5278 25.9858ZM41.9066 7.21828L44.6977 6.11837L43.9489 4.21828H41.9066V7.21828ZM69.4712 0V0.00282097H75.4712V0H69.4712ZM72.3272 3H72.4712V-3H72.3272V3ZM62.2216 3H72.3272V-3H62.2216V3ZM61.7882 3H62.2216V-3H61.7882V3ZM64.7882 0.0257609V0H58.7882V0.0257609H64.7882ZM61.6125 3.60914C61.6125 3.29966 61.8459 3.04026 62.1447 3.0045L61.4316 -2.95298C58.1526 -2.56051 55.6125 0.225461 55.6125 3.60914H61.6125ZM62.1447 4.21378C61.8459 4.17801 61.6125 3.91862 61.6125 3.60914H55.6125C55.6125 6.99282 58.1526 9.77879 61.4316 10.1713L62.1447 4.21378ZM64.7882 30.2836V7.19252H58.7882V30.2836H64.7882ZM53.9981 24.0298C55.4939 26.6005 57.4295 29.4153 59.3697 32.0587L64.2066 28.5085C62.3235 25.9429 60.5273 23.3208 59.1842 21.0123L53.9981 24.0298ZM46.7109 8.32708C48.6057 13.0907 51.3004 19.3932 53.9981 24.0298L59.1841 21.0123C56.7247 16.7854 54.1656 10.8347 52.2861 6.10947L46.7109 8.32708ZM51.2496 4.21828H49.4985V10.2183H51.2496V4.21828ZM51.8588 3.60914C51.8588 3.94555 51.5861 4.21828 51.2496 4.21828V10.2183C54.8998 10.2183 57.8588 7.25927 57.8588 3.60914H51.8588ZM51.2496 3C51.5861 3 51.8588 3.27272 51.8588 3.60914H57.8588C57.8588 -0.0409885 54.8998 -3 51.2496 -3V3ZM39.2674 3H51.2496V-3H39.2674V3ZM28.5843 3H39.2674V-3H28.5843V3ZM26.7075 3H28.5843V-3H26.7075V3ZM26.0984 3.60914C26.0984 3.27272 26.3711 3 26.7075 3V-3C23.0574 -3 20.0984 -0.0409874 20.0984 3.60914H26.0984ZM26.7075 4.21828C26.3711 4.21828 26.0984 3.94556 26.0984 3.60914H20.0984C20.0984 7.25926 23.0574 10.2183 26.7075 10.2183V4.21828ZM28.5843 4.21828H26.7075V10.2183H28.5843V4.21828ZM31.5843 37.5346L31.5843 7.21828H25.5843L25.5843 37.5346H31.5843ZM13.8591 40.5346H28.5843V34.5346H13.8591V40.5346ZM10.8591 7.21597L10.8591 37.5346H16.8591L16.8591 7.21597H10.8591ZM14.3239 3.60966C14.3239 3.93723 14.0642 4.20558 13.7412 4.21829L13.977 10.2136C17.5067 10.0748 20.3239 7.17195 20.3239 3.60966H14.3239ZM13.7147 3.00052C14.0511 3.00052 14.3239 3.27325 14.3239 3.60966H20.3239C20.3239 -0.0404657 17.3648 -2.99948 13.7147 -2.99948V3.00052ZM3.60914 3.00052H13.7147V-2.99948H3.60914V3.00052ZM3 3.60966C3 3.27324 3.27272 3.00052 3.60914 3.00052V-2.99948C-0.0409883 -2.99948 -3 -0.0404638 -3 3.60966H3ZM3.53228 4.21431C3.23345 4.17857 3 3.91917 3 3.60966H-3C-3 6.99356 -0.459516 9.77967 2.8198 10.1719L3.53228 4.21431ZM6.17604 74.8068L6.17604 7.19308H0.176039L0.176035 74.8068H6.17604ZM2.8198 71.8281C-0.459527 72.2202 -3 75.0064 -3 78.3903H3C3 78.0807 3.23345 77.8214 3.53227 77.7856L2.8198 71.8281ZM-3 78.3903C-3 82.0404 -0.0409852 84.9994 3.60914 84.9994V78.9994C3.27272 78.9994 3 78.7267 3 78.3903H-3ZM3.60914 84.9994H13.7147V78.9994H3.60914V84.9994ZM13.7147 84.9994C17.3649 84.9994 20.3239 82.0404 20.3239 78.3903H14.3239C14.3239 78.7267 14.0511 78.9994 13.7147 78.9994V84.9994ZM20.3239 78.3903C20.3239 74.828 17.5067 71.9251 13.977 71.7863L13.7412 77.7816C14.0642 77.7943 14.3239 78.0627 14.3239 78.3903H20.3239ZM10.8591 44.7529L10.8591 74.784H16.8591L16.8591 44.7529H10.8591ZM28.5843 41.7529H13.8591V47.7529H28.5843V41.7529ZM31.5843 74.7811L31.5843 44.7529H25.5843L25.5843 74.7811H31.5843ZM26.7075 77.7811H28.5843V71.7811H26.7075V77.7811ZM26.0984 78.3903C26.0984 78.0538 26.3711 77.7811 26.7075 77.7811V71.7811C23.0574 71.7811 20.0984 74.7401 20.0984 78.3903H26.0984ZM26.7075 78.9994C26.3711 78.9994 26.0984 78.7267 26.0984 78.3903H20.0984C20.0984 82.0404 23.0574 84.9994 26.7075 84.9994V78.9994ZM44.6088 78.9994H26.7075V84.9994H44.6088V78.9994ZM45.218 78.3903C45.218 78.7267 44.9453 78.9994 44.6088 78.9994V84.9994C48.259 84.9994 51.218 82.0404 51.218 78.3903H45.218ZM44.6088 77.7811C44.9453 77.7811 45.218 78.0538 45.218 78.3903H51.218C51.218 74.7401 48.259 71.7811 44.6088 71.7811V77.7811ZM42.7016 77.7811H44.6088V71.7811H42.7016V77.7811ZM49.5176 56.5978C46.0236 61.5662 42.3617 68.6434 40.0062 73.4641L45.3971 76.0982C47.7428 71.2974 51.2283 64.5955 54.4255 60.0493L49.5176 56.5978ZM59.6043 44.6386C56.229 48.2223 52.2819 52.6669 49.5176 56.5978L54.4255 60.0493C56.9351 56.4807 60.6415 52.2885 63.972 48.7524L59.6043 44.6386ZM64.7882 74.8069V46.6955H58.7882V74.8069H64.7882ZM61.6125 78.3903C61.6125 78.0808 61.8459 77.8214 62.1447 77.7856L61.4316 71.8281C58.1526 72.2206 55.6125 75.0066 55.6125 78.3903H61.6125ZM62.2216 78.9994C61.8852 78.9994 61.6125 78.7267 61.6125 78.3903H55.6125C55.6125 82.0404 58.5715 84.9994 62.2216 84.9994V78.9994ZM72.3272 78.9994H62.2216V84.9994H72.3272V78.9994ZM72.9363 78.3903C72.9363 78.7267 72.6636 78.9994 72.3272 78.9994V84.9994C75.9773 84.9994 78.9363 82.0404 78.9363 78.3903H72.9363ZM72.3536 77.7816C72.6766 77.7943 72.9363 78.0627 72.9363 78.3903H78.9363C78.9363 74.8278 76.1188 71.9248 72.5889 71.7862L72.3536 77.7816ZM69.4712 7.21546V74.7839H75.4712V7.21546H69.4712ZM72.9363 3.60914C72.9363 3.93672 72.6766 4.20509 72.3536 4.21776L72.5888 10.2131C76.1188 10.0746 78.9363 7.17164 78.9363 3.60914H72.9363ZM72.3536 3.00051C72.6766 3.01319 72.9363 3.28156 72.9363 3.60914H78.9363C78.9363 0.0466353 76.1188 -2.85634 72.5889 -2.99487L72.3536 3.00051ZM42.2674 66.6434L42.2674 7.21828H36.2674L36.2674 66.6434H42.2674ZM45.801 50.4831C42.6618 54.7528 39.2978 60.4349 36.648 65.1809L41.8867 68.1059C44.5099 63.4077 47.7262 57.9937 50.6351 54.0372L45.801 50.4831ZM57.356 36.9307C54.0763 40.4618 49.1133 45.9779 45.801 50.4831L50.6351 54.0372C53.7254 49.8339 58.4806 44.5363 61.7522 41.014L57.356 36.9307ZM47.9339 27.4931C50.4444 31.8131 54.1899 36.9227 57.177 40.8025L61.9312 37.1423C58.9703 33.2964 55.4255 28.4431 53.1216 24.4785L47.9339 27.4931ZM39.1155 8.31819C40.9808 13.0516 44.5207 21.6195 47.9339 27.4931L53.1216 24.4785C49.9616 19.0407 46.5658 10.8588 44.6977 6.11837L39.1155 8.31819ZM39.2674 10.2183H41.9066V4.21828H39.2674V10.2183Z" fill="#2F8B8B" mask="url(#path-1-inside-1)"/>
</svg>
