<svg width="71" height="79" viewBox="0 0 71 79" fill="none" xmlns="http://www.w3.org/2000/svg">
<rect width="70.8557" height="79" fill="#1E425D"/>
<mask id="path-2-inside-1" fill="white">
<path fill-rule="evenodd" clip-rule="evenodd" d="M59.8608 10.5892V10.5869H52.3273V10.6053C51.0657 10.7562 50.0877 11.83 50.0877 13.1323C50.0877 14.4345 51.0657 15.5083 52.3273 15.6592V31.9425C50.9792 30.1058 49.6633 28.1888 48.6623 26.4684C46.844 23.3432 44.9915 19.0228 43.6607 15.6771H44.8956C46.3012 15.6771 47.4407 14.5376 47.4407 13.132C47.4407 11.7264 46.3012 10.5869 44.8956 10.5869H36.4458H28.9123H27.5889C26.1833 10.5869 25.0438 11.7264 25.0438 13.132C25.0438 14.5376 26.1833 15.6771 27.5889 15.6771H28.9123L28.9123 37.056H18.5284L18.5284 15.6756C19.8868 15.6222 20.9716 14.504 20.9716 13.1325C20.9716 11.7269 19.8321 10.5874 18.4265 10.5874H11.3002C9.89461 10.5874 8.75513 11.7269 8.75513 13.1325C8.75513 14.4348 9.73323 15.5087 10.9949 15.6595L10.9949 63.3398C9.73326 63.4907 8.7552 64.5646 8.7552 65.8668C8.7552 67.2724 9.89468 68.4119 11.3003 68.4119H18.4266C19.8322 68.4119 20.9717 67.2724 20.9717 65.8668C20.9717 64.4953 19.8868 63.3771 18.5284 63.3237L18.5284 42.1462H28.9123L28.9123 63.3214H27.5889C26.1833 63.3214 25.0438 64.4609 25.0438 65.8666C25.0438 67.2722 26.1833 68.4117 27.5889 68.4117H40.2126C41.6182 68.4117 42.7577 67.2722 42.7577 65.8666C42.7577 64.4609 41.6182 63.3214 40.2126 63.3214H38.8676C40.5252 59.929 43.0454 55.0706 45.4046 51.7158C47.2642 49.0715 49.9628 46.0262 52.3273 43.5157V63.3399C51.0657 63.4908 50.0877 64.5646 50.0877 65.8668C50.0877 67.2724 51.2272 68.4119 52.6328 68.4119H59.7591C61.1647 68.4119 62.3042 67.2724 62.3042 65.8668C62.3042 64.4953 61.2193 63.3771 59.8608 63.3237L59.8608 15.6754C61.2193 15.622 62.3042 14.5038 62.3042 13.1323C62.3042 11.7607 61.2193 10.6426 59.8608 10.5892ZM36.4458 15.6771L36.4458 57.5828C38.305 54.2528 40.6252 50.3405 42.7577 47.44C45.0153 44.3694 48.4419 40.5565 50.7518 38.0696C48.6546 35.3456 46.0841 31.8328 44.3866 28.9117C42.0689 24.9233 39.6234 19.0175 38.307 15.6771H36.4458Z"/>
</mask>
<path fill-rule="evenodd" clip-rule="evenodd" d="M59.8608 10.5892V10.5869H52.3273V10.6053C51.0657 10.7562 50.0877 11.83 50.0877 13.1323C50.0877 14.4345 51.0657 15.5083 52.3273 15.6592V31.9425C50.9792 30.1058 49.6633 28.1888 48.6623 26.4684C46.844 23.3432 44.9915 19.0228 43.6607 15.6771H44.8956C46.3012 15.6771 47.4407 14.5376 47.4407 13.132C47.4407 11.7264 46.3012 10.5869 44.8956 10.5869H36.4458H28.9123H27.5889C26.1833 10.5869 25.0438 11.7264 25.0438 13.132C25.0438 14.5376 26.1833 15.6771 27.5889 15.6771H28.9123L28.9123 37.056H18.5284L18.5284 15.6756C19.8868 15.6222 20.9716 14.504 20.9716 13.1325C20.9716 11.7269 19.8321 10.5874 18.4265 10.5874H11.3002C9.89461 10.5874 8.75513 11.7269 8.75513 13.1325C8.75513 14.4348 9.73323 15.5087 10.9949 15.6595L10.9949 63.3398C9.73326 63.4907 8.7552 64.5646 8.7552 65.8668C8.7552 67.2724 9.89468 68.4119 11.3003 68.4119H18.4266C19.8322 68.4119 20.9717 67.2724 20.9717 65.8668C20.9717 64.4953 19.8868 63.3771 18.5284 63.3237L18.5284 42.1462H28.9123L28.9123 63.3214H27.5889C26.1833 63.3214 25.0438 64.4609 25.0438 65.8666C25.0438 67.2722 26.1833 68.4117 27.5889 68.4117H40.2126C41.6182 68.4117 42.7577 67.2722 42.7577 65.8666C42.7577 64.4609 41.6182 63.3214 40.2126 63.3214H38.8676C40.5252 59.929 43.0454 55.0706 45.4046 51.7158C47.2642 49.0715 49.9628 46.0262 52.3273 43.5157V63.3399C51.0657 63.4908 50.0877 64.5646 50.0877 65.8668C50.0877 67.2724 51.2272 68.4119 52.6328 68.4119H59.7591C61.1647 68.4119 62.3042 67.2724 62.3042 65.8668C62.3042 64.4953 61.2193 63.3771 59.8608 63.3237L59.8608 15.6754C61.2193 15.622 62.3042 14.5038 62.3042 13.1323C62.3042 11.7607 61.2193 10.6426 59.8608 10.5892ZM36.4458 15.6771L36.4458 57.5828C38.305 54.2528 40.6252 50.3405 42.7577 47.44C45.0153 44.3694 48.4419 40.5565 50.7518 38.0696C48.6546 35.3456 46.0841 31.8328 44.3866 28.9117C42.0689 24.9233 39.6234 19.0175 38.307 15.6771H36.4458Z" fill="#1E425D"/>
<path d="M59.8608 10.5869H61.8608V8.58691H59.8608V10.5869ZM59.8608 10.5892H57.8608V12.5121L59.7822 12.5876L59.8608 10.5892ZM52.3273 10.5869V8.58691H50.3273V10.5869H52.3273ZM52.3273 10.6053L52.5648 12.5912L54.3273 12.3803V10.6053H52.3273ZM52.3273 15.6592H54.3273V13.8842L52.5648 13.6734L52.3273 15.6592ZM52.3273 31.9425L50.715 33.1259L54.3273 38.0474V31.9425H52.3273ZM48.6623 26.4684L50.391 25.4625L50.391 25.4625L48.6623 26.4684ZM43.6607 15.6771V13.6771H40.7128L41.8024 16.4163L43.6607 15.6771ZM28.9123 15.6771L30.9123 15.6771L30.9123 13.6771H28.9123V15.6771ZM28.9123 37.056V39.056H30.9123L30.9123 37.056L28.9123 37.056ZM18.5284 37.056L16.5284 37.056L16.5284 39.056H18.5284V37.056ZM18.5284 15.6756L18.4497 13.6772L16.5284 13.7528L16.5284 15.6756L18.5284 15.6756ZM10.9949 15.6595L12.9949 15.6595L12.9949 13.8844L11.2323 13.6737L10.9949 15.6595ZM10.9949 63.3398L11.2324 65.3257L12.9949 65.1149L12.9949 63.3398L10.9949 63.3398ZM18.5284 63.3237L16.5284 63.3237L16.5284 65.2466L18.4498 65.3222L18.5284 63.3237ZM18.5284 42.1462V40.1462H16.5284L16.5284 42.1462L18.5284 42.1462ZM28.9123 42.1462L30.9123 42.1462L30.9123 40.1462H28.9123V42.1462ZM28.9123 63.3214V65.3214H30.9123L30.9123 63.3214L28.9123 63.3214ZM38.8676 63.3214L37.0707 62.4434L35.6644 65.3214H38.8676V63.3214ZM45.4046 51.7158L43.7686 50.5653L43.7686 50.5653L45.4046 51.7158ZM52.3273 43.5157H54.3273V38.4753L50.8714 42.1445L52.3273 43.5157ZM52.3273 63.3399L52.5648 65.3257L54.3273 65.1149V63.3399H52.3273ZM59.8608 63.3237L57.8608 63.3237L57.8608 65.2466L59.7822 65.3222L59.8608 63.3237ZM59.8608 15.6754L59.7822 13.6769L57.8608 13.7525L57.8608 15.6754L59.8608 15.6754ZM36.4458 57.5828L34.4458 57.5828L34.4458 65.2677L38.1921 58.5578L36.4458 57.5828ZM36.4458 15.6771V13.6771H34.4458L34.4458 15.6771L36.4458 15.6771ZM42.7577 47.44L41.1463 46.2553L41.1463 46.2553L42.7577 47.44ZM50.7518 38.0696L52.2172 39.4307L53.369 38.1906L52.3365 36.8495L50.7518 38.0696ZM44.3866 28.9117L42.6573 29.9165L42.6573 29.9165L44.3866 28.9117ZM38.307 15.6771L40.1678 14.9438L39.6686 13.6771H38.307V15.6771ZM57.8608 10.5869V10.5892H61.8608V10.5869H57.8608ZM52.3273 12.5869H59.8608V8.58691H52.3273V12.5869ZM54.3273 10.6053V10.5869H50.3273V10.6053H54.3273ZM52.0877 13.1323C52.0877 12.8548 52.2967 12.6232 52.5648 12.5912L52.0897 8.61948C49.8347 8.88923 48.0877 10.8053 48.0877 13.1323H52.0877ZM52.5648 13.6734C52.2967 13.6413 52.0877 13.4097 52.0877 13.1323H48.0877C48.0877 15.4593 49.8347 17.3753 52.0897 17.6451L52.5648 13.6734ZM54.3273 31.9425V15.6592H50.3273V31.9425H54.3273ZM46.9337 27.4742C47.9855 29.282 49.3479 31.2633 50.715 33.1259L53.9396 30.7591C52.6105 28.9483 51.3412 27.0955 50.391 25.4625L46.9337 27.4742ZM41.8024 16.4163C43.1383 19.7748 45.0358 24.2125 46.9337 27.4742L50.391 25.4625C48.6521 22.4739 46.8448 18.2708 45.5191 14.9379L41.8024 16.4163ZM44.8956 13.6771H43.6607V17.6771H44.8956V13.6771ZM45.4407 13.132C45.4407 13.4331 45.1966 13.6771 44.8956 13.6771V17.6771C47.4058 17.6771 49.4407 15.6422 49.4407 13.132H45.4407ZM44.8956 12.5869C45.1966 12.5869 45.4407 12.831 45.4407 13.132H49.4407C49.4407 10.6218 47.4058 8.58691 44.8956 8.58691V12.5869ZM36.4458 12.5869H44.8956V8.58691H36.4458V12.5869ZM28.9123 12.5869H36.4458V8.58691H28.9123V12.5869ZM27.5889 12.5869H28.9123V8.58691H27.5889V12.5869ZM27.0438 13.132C27.0438 12.831 27.2878 12.5869 27.5889 12.5869V8.58691C25.0787 8.58691 23.0438 10.6218 23.0438 13.132H27.0438ZM27.5889 13.6771C27.2878 13.6771 27.0438 13.4331 27.0438 13.132H23.0438C23.0438 15.6422 25.0787 17.6771 27.5889 17.6771V13.6771ZM28.9123 13.6771H27.5889V17.6771H28.9123V13.6771ZM30.9123 37.056L30.9123 15.6771L26.9123 15.6771L26.9123 37.056L30.9123 37.056ZM18.5284 39.056H28.9123V35.056H18.5284V39.056ZM16.5284 15.6756L16.5284 37.056L20.5284 37.056L20.5284 15.6756L16.5284 15.6756ZM18.9716 13.1325C18.9716 13.4258 18.7392 13.6658 18.4497 13.6772L18.6071 17.6741C21.0343 17.5785 22.9716 15.5823 22.9716 13.1325H18.9716ZM18.4265 12.5874C18.7276 12.5874 18.9716 12.8315 18.9716 13.1325H22.9716C22.9716 10.6223 20.9367 8.58744 18.4265 8.58744V12.5874ZM11.3002 12.5874H18.4265V8.58744H11.3002V12.5874ZM10.7551 13.1325C10.7551 12.8315 10.9992 12.5874 11.3002 12.5874V8.58744C8.79004 8.58744 6.75513 10.6223 6.75513 13.1325H10.7551ZM11.2323 13.6737C10.9642 13.6416 10.7551 13.41 10.7551 13.1325H6.75513C6.75513 15.4596 8.50227 17.3757 10.7575 17.6454L11.2323 13.6737ZM12.9949 63.3398L12.9949 15.6595L8.99489 15.6595L8.99489 63.3398L12.9949 63.3398ZM10.7574 61.354C8.50227 61.6237 6.7552 63.5398 6.7552 65.8668H10.7552C10.7552 65.5893 10.9642 65.3578 11.2324 65.3257L10.7574 61.354ZM6.7552 65.8668C6.7552 68.377 8.79011 70.4119 11.3003 70.4119V66.4119C10.9992 66.4119 10.7552 66.1679 10.7552 65.8668H6.7552ZM11.3003 70.4119H18.4266V66.4119H11.3003V70.4119ZM18.4266 70.4119C20.9368 70.4119 22.9717 68.377 22.9717 65.8668H18.9717C18.9717 66.1679 18.7276 66.4119 18.4266 66.4119V70.4119ZM22.9717 65.8668C22.9717 63.417 21.0343 61.4207 18.607 61.3253L18.4498 65.3222C18.7393 65.3336 18.9717 65.5735 18.9717 65.8668H22.9717ZM16.5284 42.1462L16.5284 63.3237L20.5284 63.3237L20.5284 42.1462L16.5284 42.1462ZM28.9123 40.1462H18.5284V44.1462H28.9123V40.1462ZM30.9123 63.3214L30.9123 42.1462L26.9123 42.1462L26.9123 63.3214L30.9123 63.3214ZM27.5889 65.3214H28.9123V61.3214H27.5889V65.3214ZM27.0438 65.8666C27.0438 65.5655 27.2878 65.3214 27.5889 65.3214V61.3214C25.0787 61.3214 23.0438 63.3564 23.0438 65.8666H27.0438ZM27.5889 66.4117C27.2878 66.4117 27.0438 66.1676 27.0438 65.8666H23.0438C23.0438 68.3767 25.0787 70.4117 27.5889 70.4117V66.4117ZM40.2126 66.4117H27.5889V70.4117H40.2126V66.4117ZM40.7577 65.8666C40.7577 66.1676 40.5137 66.4117 40.2126 66.4117V70.4117C42.7228 70.4117 44.7577 68.3767 44.7577 65.8666H40.7577ZM40.2126 65.3214C40.5136 65.3214 40.7577 65.5655 40.7577 65.8666H44.7577C44.7577 63.3564 42.7228 61.3214 40.2126 61.3214V65.3214ZM38.8676 65.3214H40.2126V61.3214H38.8676V65.3214ZM43.7686 50.5653C41.3104 54.0608 38.7315 59.0444 37.0707 62.4434L40.6646 64.1995C42.3189 60.8137 44.7803 56.0804 47.0406 52.8663L43.7686 50.5653ZM50.8714 42.1445C48.492 44.6708 45.7132 47.8002 43.7686 50.5653L47.0406 52.8663C48.8152 50.3427 51.4337 47.3816 53.7832 44.887L50.8714 42.1445ZM54.3273 63.3399V43.5157H50.3273V63.3399H54.3273ZM52.0877 65.8668C52.0877 65.5894 52.2967 65.3578 52.5648 65.3257L52.0897 61.354C49.8347 61.6238 48.0877 63.5398 48.0877 65.8668H52.0877ZM52.6328 66.4119C52.3317 66.4119 52.0877 66.1679 52.0877 65.8668H48.0877C48.0877 68.377 50.1226 70.4119 52.6328 70.4119V66.4119ZM59.7591 66.4119H52.6328V70.4119H59.7591V66.4119ZM60.3042 65.8668C60.3042 66.1679 60.0601 66.4119 59.7591 66.4119V70.4119C62.2692 70.4119 64.3042 68.377 64.3042 65.8668H60.3042ZM59.7822 65.3222C60.0718 65.3335 60.3042 65.5735 60.3042 65.8668H64.3042C64.3042 63.417 62.3667 61.4207 59.9393 61.3253L59.7822 65.3222ZM57.8608 15.6754L57.8608 63.3237L61.8608 63.3237L61.8608 15.6754L57.8608 15.6754ZM60.3042 13.1323C60.3042 13.4256 60.0718 13.6655 59.7822 13.6769L59.9394 17.6738C62.3667 17.5784 64.3042 15.5821 64.3042 13.1323H60.3042ZM59.7822 12.5876C60.0718 12.599 60.3042 12.839 60.3042 13.1323H64.3042C64.3042 10.6825 62.3667 8.68613 59.9394 8.59072L59.7822 12.5876ZM38.4458 57.5828L38.4458 15.6771L34.4458 15.6771L34.4458 57.5828L38.4458 57.5828ZM41.1463 46.2553C38.9371 49.2602 36.5677 53.2619 34.6996 56.6078L38.1921 58.5578C40.0424 55.2438 42.3133 51.4208 44.3691 48.6247L41.1463 46.2553ZM49.2864 36.7085C46.9738 39.1983 43.4779 43.0841 41.1463 46.2553L44.3691 48.6247C46.5526 45.6547 49.91 41.9147 52.2172 39.4307L49.2864 36.7085ZM42.6573 29.9165C44.4237 32.9561 47.0611 36.5543 49.167 39.2897L52.3365 36.8495C50.2481 34.1368 47.7445 30.7094 46.1158 27.9068L42.6573 29.9165ZM36.4463 16.4104C37.7618 19.7485 40.2552 25.7829 42.6573 29.9165L46.1158 27.9068C43.8825 24.0637 41.4851 18.2866 40.1678 14.9438L36.4463 16.4104ZM36.4458 17.6771H38.307V13.6771H36.4458V17.6771Z" fill="#2F8B8B" mask="url(#path-2-inside-1)"/>
</svg>
