<svg width="33" height="41" viewBox="0 0 33 41" fill="none" xmlns="http://www.w3.org/2000/svg">
<mask id="path-1-inside-1" fill="white">
<path fill-rule="evenodd" clip-rule="evenodd" d="M1.80073 0.0820312C0.806215 0.0820312 0 0.888245 0 1.88276C0 2.72367 0.576404 3.42996 1.35567 3.62807L1.35567 37.4487C0.576404 37.6468 0 38.3531 0 39.194C0 40.1885 0.806215 40.9947 1.80073 40.9947H5.59364C6.58815 40.9947 7.39437 40.1885 7.39437 39.194C7.39437 38.3093 6.75645 37.5737 5.91553 37.4219L5.91553 22.4109H12.2007L12.2007 37.3932H11.6599C10.6654 37.3932 9.85921 38.1995 9.85921 39.194C9.85921 40.1885 10.6654 40.9947 11.6599 40.9947H18.7803C19.7748 40.9947 20.581 40.1885 20.581 39.194C20.581 38.1995 19.7748 37.3932 18.7803 37.3932H18.2264C19.2297 34.993 20.7551 31.5555 22.1831 29.1819C23.3087 27.311 24.9421 25.1563 26.3733 23.3801V37.4487C25.594 37.6468 25.0176 38.3531 25.0176 39.194C25.0176 40.1885 25.8238 40.9947 26.8184 40.9947H30.6113C31.6058 40.9947 32.412 40.1885 32.412 39.194C32.412 38.3093 31.7741 37.5737 30.9332 37.4219L30.9332 3.6548C31.7741 3.50305 32.412 2.76741 32.412 1.88276C32.412 0.998119 31.7741 0.262469 30.9332 0.110719V0.0820312H30.6113H26.8184H26.3733V0.137453C25.594 0.335567 25.0176 1.04185 25.0176 1.88276C25.0176 2.72367 25.594 3.42996 26.3733 3.62807V15.1919C25.5573 13.8923 24.7608 12.5359 24.1549 11.3187C23.0543 9.10748 21.933 6.05067 21.1275 3.68349H21.6148C22.6093 3.68349 23.4156 2.87728 23.4156 1.88276C23.4156 0.888245 22.6093 0.0820312 21.6148 0.0820312H16.7605H12.2007H11.6599C10.6654 0.0820312 9.85921 0.888245 9.85921 1.88276C9.85921 2.87728 10.6654 3.68349 11.6599 3.68349H12.2007L12.2007 18.8094H5.91553L5.91553 3.6548C6.75645 3.50305 7.39437 2.76741 7.39437 1.88276C7.39437 0.888245 6.58815 0.0820312 5.59363 0.0820312H1.80073ZM16.7605 3.68349L16.7605 33.3331C17.8859 30.977 19.2902 28.2089 20.581 26.1567C21.9474 23.9841 24.0215 21.2865 25.4196 19.5269C24.1502 17.5996 22.5943 15.1141 21.5669 13.0474C20.164 10.2255 18.6838 6.04691 17.8871 3.68349H16.7605Z"/>
</mask>
<path fill-rule="evenodd" clip-rule="evenodd" d="M1.80073 0.0820312C0.806215 0.0820312 0 0.888245 0 1.88276C0 2.72367 0.576404 3.42996 1.35567 3.62807L1.35567 37.4487C0.576404 37.6468 0 38.3531 0 39.194C0 40.1885 0.806215 40.9947 1.80073 40.9947H5.59364C6.58815 40.9947 7.39437 40.1885 7.39437 39.194C7.39437 38.3093 6.75645 37.5737 5.91553 37.4219L5.91553 22.4109H12.2007L12.2007 37.3932H11.6599C10.6654 37.3932 9.85921 38.1995 9.85921 39.194C9.85921 40.1885 10.6654 40.9947 11.6599 40.9947H18.7803C19.7748 40.9947 20.581 40.1885 20.581 39.194C20.581 38.1995 19.7748 37.3932 18.7803 37.3932H18.2264C19.2297 34.993 20.7551 31.5555 22.1831 29.1819C23.3087 27.311 24.9421 25.1563 26.3733 23.3801V37.4487C25.594 37.6468 25.0176 38.3531 25.0176 39.194C25.0176 40.1885 25.8238 40.9947 26.8184 40.9947H30.6113C31.6058 40.9947 32.412 40.1885 32.412 39.194C32.412 38.3093 31.7741 37.5737 30.9332 37.4219L30.9332 3.6548C31.7741 3.50305 32.412 2.76741 32.412 1.88276C32.412 0.998119 31.7741 0.262469 30.9332 0.110719V0.0820312H30.6113H26.8184H26.3733V0.137453C25.594 0.335567 25.0176 1.04185 25.0176 1.88276C25.0176 2.72367 25.594 3.42996 26.3733 3.62807V15.1919C25.5573 13.8923 24.7608 12.5359 24.1549 11.3187C23.0543 9.10748 21.933 6.05067 21.1275 3.68349H21.6148C22.6093 3.68349 23.4156 2.87728 23.4156 1.88276C23.4156 0.888245 22.6093 0.0820312 21.6148 0.0820312H16.7605H12.2007H11.6599C10.6654 0.0820312 9.85921 0.888245 9.85921 1.88276C9.85921 2.87728 10.6654 3.68349 11.6599 3.68349H12.2007L12.2007 18.8094H5.91553L5.91553 3.6548C6.75645 3.50305 7.39437 2.76741 7.39437 1.88276C7.39437 0.888245 6.58815 0.0820312 5.59363 0.0820312H1.80073ZM16.7605 3.68349L16.7605 33.3331C17.8859 30.977 19.2902 28.2089 20.581 26.1567C21.9474 23.9841 24.0215 21.2865 25.4196 19.5269C24.1502 17.5996 22.5943 15.1141 21.5669 13.0474C20.164 10.2255 18.6838 6.04691 17.8871 3.68349H16.7605Z" fill="#1E425D"/>
<path d="M1.35567 3.62807L2.35567 3.62807L2.35567 2.85049L1.60206 2.6589L1.35567 3.62807ZM1.35567 37.4487L1.60206 38.4178L2.35567 38.2262L2.35567 37.4487L1.35567 37.4487ZM5.91553 37.4219L4.91553 37.4219L4.91553 38.2576L5.73794 38.406L5.91553 37.4219ZM5.91553 22.4109V21.4109H4.91553L4.91553 22.4109L5.91553 22.4109ZM12.2007 22.4109L13.2007 22.4109L13.2007 21.4109H12.2007V22.4109ZM12.2007 37.3932V38.3932H13.2007L13.2007 37.3932L12.2007 37.3932ZM18.2264 37.3932L17.3038 37.0076L16.7246 38.3932H18.2264V37.3932ZM22.1831 29.1819L21.3262 28.6664L21.3262 28.6664L22.1831 29.1819ZM26.3733 23.3801H27.3733V20.5452L25.5946 22.7527L26.3733 23.3801ZM26.3733 37.4487L26.6197 38.4178L27.3733 38.2262V37.4487H26.3733ZM30.9332 37.4219L29.9332 37.4219L29.9332 38.2576L30.7556 38.406L30.9332 37.4219ZM30.9332 3.6548L30.7556 2.6707L29.9332 2.81911L29.9332 3.6548L30.9332 3.6548ZM30.9332 0.110719H29.9332V0.946414L30.7556 1.09482L30.9332 0.110719ZM30.9332 0.0820312H31.9332V-0.917969H30.9332V0.0820312ZM26.3733 0.0820312V-0.917969H25.3733V0.0820312H26.3733ZM26.3733 0.137453L26.6197 1.10662L27.3733 0.915031V0.137453H26.3733ZM26.3733 3.62807H27.3733V2.85049L26.6197 2.6589L26.3733 3.62807ZM26.3733 15.1919L25.5264 15.7236L27.3733 18.665V15.1919H26.3733ZM24.1549 11.3187L23.2597 11.7643L23.2597 11.7643L24.1549 11.3187ZM21.1275 3.68349V2.68349H19.7309L20.1808 4.00564L21.1275 3.68349ZM12.2007 3.68349L13.2007 3.68349L13.2007 2.68349H12.2007V3.68349ZM12.2007 18.8094V19.8094H13.2007L13.2007 18.8094L12.2007 18.8094ZM5.91553 18.8094L4.91553 18.8094L4.91553 19.8094H5.91553V18.8094ZM5.91553 3.6548L5.73794 2.6707L4.91553 2.81911L4.91553 3.6548L5.91553 3.6548ZM16.7605 33.3331L15.7605 33.3331L17.6629 33.7641L16.7605 33.3331ZM16.7605 3.68349V2.68349H15.7605L15.7605 3.68349L16.7605 3.68349ZM20.581 26.1567L19.7345 25.6243L19.7345 25.6243L20.581 26.1567ZM25.4196 19.5269L26.2026 20.149L26.6532 19.5818L26.2548 18.9768L25.4196 19.5269ZM21.5669 13.0474L20.6714 13.4925L20.6714 13.4925L21.5669 13.0474ZM17.8871 3.68349L18.8347 3.36403L18.6052 2.68349H17.8871V3.68349ZM1 1.88276C1 1.44053 1.3585 1.08203 1.80073 1.08203V-0.917969C0.253931 -0.917969 -1 0.33596 -1 1.88276H1ZM1.60206 2.6589C1.25537 2.57076 1 2.25533 1 1.88276H-1C-1 3.19202 -0.102562 4.28915 1.10927 4.59724L1.60206 2.6589ZM2.35567 37.4487L2.35567 3.62807L0.355668 3.62807L0.355667 37.4487L2.35567 37.4487ZM1.10927 36.4795C-0.102564 36.7876 -1 37.8847 -1 39.194H1C1 38.8214 1.25537 38.506 1.60206 38.4178L1.10927 36.4795ZM-1 39.194C-1 40.7408 0.25393 41.9947 1.80073 41.9947V39.9947C1.3585 39.9947 1 39.6362 1 39.194H-1ZM1.80073 41.9947H5.59364V39.9947H1.80073V41.9947ZM5.59364 41.9947C7.14044 41.9947 8.39437 40.7408 8.39437 39.194H6.39437C6.39437 39.6362 6.03587 39.9947 5.59364 39.9947V41.9947ZM8.39437 39.194C8.39437 37.817 7.40167 36.674 6.09311 36.4378L5.73794 38.406C6.11123 38.4734 6.39437 38.8017 6.39437 39.194H8.39437ZM4.91553 22.4109L4.91553 37.4219L6.91553 37.4219L6.91553 22.4109L4.91553 22.4109ZM12.2007 21.4109H5.91553V23.4109H12.2007V21.4109ZM13.2007 37.3932L13.2007 22.4109L11.2007 22.4109L11.2007 37.3932L13.2007 37.3932ZM11.6599 38.3932H12.2007V36.3932H11.6599V38.3932ZM10.8592 39.194C10.8592 38.7517 11.2177 38.3932 11.6599 38.3932V36.3932C10.1131 36.3932 8.85921 37.6472 8.85921 39.194H10.8592ZM11.6599 39.9947C11.2177 39.9947 10.8592 39.6362 10.8592 39.194H8.85921C8.85921 40.7408 10.1131 41.9947 11.6599 41.9947V39.9947ZM18.7803 39.9947H11.6599V41.9947H18.7803V39.9947ZM19.581 39.194C19.581 39.6362 19.2225 39.9947 18.7803 39.9947V41.9947C20.3271 41.9947 21.581 40.7408 21.581 39.194H19.581ZM18.7803 38.3932C19.2225 38.3932 19.581 38.7517 19.581 39.194H21.581C21.581 37.6472 20.3271 36.3932 18.7803 36.3932V38.3932ZM18.2264 38.3932H18.7803V36.3932H18.2264V38.3932ZM21.3262 28.6664C19.8572 31.1082 18.308 34.6052 17.3038 37.0076L19.1491 37.7789C20.1515 35.3808 21.653 32.0029 23.04 29.6974L21.3262 28.6664ZM25.5946 22.7527C24.1562 24.5379 22.488 26.7353 21.3262 28.6664L23.04 29.6974C24.1294 27.8866 25.7281 25.7747 27.152 24.0075L25.5946 22.7527ZM27.3733 37.4487V23.3801H25.3733V37.4487H27.3733ZM26.0176 39.194C26.0176 38.8214 26.273 38.506 26.6197 38.4178L26.1269 36.4795C24.9151 36.7876 24.0176 37.8847 24.0176 39.194H26.0176ZM26.8184 39.9947C26.3761 39.9947 26.0176 39.6362 26.0176 39.194H24.0176C24.0176 40.7408 25.2716 41.9947 26.8184 41.9947V39.9947ZM30.6113 39.9947H26.8184V41.9947H30.6113V39.9947ZM31.412 39.194C31.412 39.6362 31.0535 39.9947 30.6113 39.9947V41.9947C32.1581 41.9947 33.412 40.7408 33.412 39.194H31.412ZM30.7556 38.406C31.1289 38.4734 31.412 38.8017 31.412 39.194H33.412C33.412 37.817 32.4193 36.674 31.1107 36.4378L30.7556 38.406ZM29.9332 3.6548L29.9332 37.4219L31.9332 37.4219L31.9332 3.65481L29.9332 3.6548ZM31.412 1.88276C31.412 2.27508 31.1289 2.60334 30.7556 2.6707L31.1107 4.63891C32.4193 4.40277 33.412 3.25973 33.412 1.88276H31.412ZM30.7556 1.09482C31.1289 1.16219 31.412 1.49045 31.412 1.88276H33.412C33.412 0.505792 32.4193 -0.637247 31.1107 -0.873386L30.7556 1.09482ZM29.9332 0.0820312V0.110719H31.9332V0.0820312H29.9332ZM30.6113 1.08203H30.9332V-0.917969H30.6113V1.08203ZM26.8184 1.08203H30.6113V-0.917969H26.8184V1.08203ZM26.3733 1.08203H26.8184V-0.917969H26.3733V1.08203ZM27.3733 0.137453V0.0820312H25.3733V0.137453H27.3733ZM26.0176 1.88276C26.0176 1.5102 26.273 1.19476 26.6197 1.10662L26.1269 -0.831717C24.9151 -0.523628 24.0176 0.573507 24.0176 1.88276H26.0176ZM26.6197 2.6589C26.273 2.57076 26.0176 2.25533 26.0176 1.88276H24.0176C24.0176 3.19202 24.9151 4.28915 26.1269 4.59724L26.6197 2.6589ZM27.3733 15.1919V3.62807H25.3733V15.1919H27.3733ZM23.2597 11.7643C23.8864 13.0233 24.7022 14.411 25.5264 15.7236L27.2202 14.6601C26.4124 13.3737 25.6352 12.0485 25.0501 10.873L23.2597 11.7643ZM20.1808 4.00564C20.9881 6.3779 22.1271 9.48896 23.2597 11.7643L25.0501 10.873C23.9814 8.72601 22.878 5.72343 22.0742 3.36135L20.1808 4.00564ZM21.6148 2.68349H21.1275V4.68349H21.6148V2.68349ZM22.4156 1.88276C22.4156 2.32499 22.0571 2.68349 21.6148 2.68349V4.68349C23.1616 4.68349 24.4156 3.42956 24.4156 1.88276H22.4156ZM21.6148 1.08203C22.057 1.08203 22.4156 1.44053 22.4156 1.88276H24.4156C24.4156 0.335959 23.1616 -0.917969 21.6148 -0.917969V1.08203ZM16.7605 1.08203H21.6148V-0.917969H16.7605V1.08203ZM12.2007 1.08203H16.7605V-0.917969H12.2007V1.08203ZM11.6599 1.08203H12.2007V-0.917969H11.6599V1.08203ZM10.8592 1.88276C10.8592 1.44053 11.2177 1.08203 11.6599 1.08203V-0.917969C10.1131 -0.917969 8.85921 0.33596 8.85921 1.88276H10.8592ZM11.6599 2.68349C11.2177 2.68349 10.8592 2.32499 10.8592 1.88276H8.85921C8.85921 3.42956 10.1131 4.68349 11.6599 4.68349V2.68349ZM12.2007 2.68349H11.6599V4.68349H12.2007V2.68349ZM13.2007 18.8094L13.2007 3.68349L11.2007 3.68349L11.2007 18.8094L13.2007 18.8094ZM5.91553 19.8094H12.2007V17.8094H5.91553V19.8094ZM4.91553 3.6548L4.91553 18.8094L6.91553 18.8094L6.91553 3.6548L4.91553 3.6548ZM6.39437 1.88276C6.39437 2.27508 6.11123 2.60334 5.73794 2.6707L6.09312 4.63891C7.40168 4.40277 8.39437 3.25973 8.39437 1.88276H6.39437ZM5.59363 1.08203C6.03587 1.08203 6.39437 1.44053 6.39437 1.88276H8.39437C8.39437 0.335959 7.14043 -0.917969 5.59363 -0.917969V1.08203ZM1.80073 1.08203H5.59363V-0.917969H1.80073V1.08203ZM17.7605 33.3331L17.7605 3.68349L15.7605 3.68349L15.7605 33.3331L17.7605 33.3331ZM19.7345 25.6243C18.4115 27.7277 16.9868 30.5391 15.8582 32.9021L17.6629 33.7641C18.7849 31.415 20.169 28.6901 21.4275 26.6891L19.7345 25.6243ZM24.6367 18.9048C23.2369 20.6664 21.1327 23.4012 19.7345 25.6243L21.4275 26.6891C22.7622 24.567 24.8061 21.9065 26.2026 20.149L24.6367 18.9048ZM20.6714 13.4925C21.7272 15.6162 23.311 18.1433 24.5845 20.0769L26.2548 18.9768C24.9895 17.0558 23.4615 14.6121 22.4623 12.6022L20.6714 13.4925ZM16.9395 4.00295C17.7356 6.36449 19.2347 10.6025 20.6714 13.4925L22.4623 12.6022C21.0934 9.84845 19.6321 5.72932 18.8347 3.36403L16.9395 4.00295ZM16.7605 4.68349H17.8871V2.68349H16.7605V4.68349Z" fill="#E5E5E5" mask="url(#path-1-inside-1)"/>
</svg>
