<svg width="405" height="113" viewBox="0 0 405 113" fill="none" xmlns="http://www.w3.org/2000/svg">
<rect x="405" width="84" height="405" transform="rotate(90 405 0)" fill="#2D6086"/>
<line x1="285" y1="77.6943" x2="405" y2="77.6943" stroke="#2F8B8B" stroke-width="2"/>
<line x1="282" y1="2.53662" x2="405" y2="2.53662" stroke="#2F8B8B" stroke-width="2"/>
<path d="M289.655 36.1438L293.145 38.9732C294.139 39.7783 294.132 41.2958 293.132 42.0919L290.559 44.1392L284.488 48.8756C283.831 49.3879 282.873 48.92 282.873 48.0872L282.873 32.9729C282.873 32.1441 283.823 31.6751 284.481 32.1792L289.655 36.1438Z" fill="#2F8B8B"/>
<path d="M303.837 37.3517C304.211 37.109 304.719 37.109 305.092 37.3517L308.839 39.7869C309.415 40.1613 309.415 40.9221 308.839 41.2965L305.092 43.7317C304.719 43.9744 304.211 43.9744 303.837 43.7317L300.091 41.2965C299.515 40.9221 299.515 40.1613 300.091 39.7869L303.837 37.3517Z" fill="#2F8B8B"/>
<path d="M357.224 3.52288L354.329 7.48451C353.925 8.03687 353.029 8.07109 352.591 7.55088L349.198 3.52288L353.496 3.52284L357.224 3.52288Z" fill="#2F8B8B"/>
<path d="M349.224 3.52288L346.329 7.48451C345.925 8.03687 345.029 8.07109 344.591 7.55088L341.198 3.52288L345.496 3.52284L349.224 3.52288Z" fill="#2F8B8B"/>
<path d="M341.224 3.52288L338.329 7.48451C337.925 8.03687 337.029 8.07109 336.591 7.55088L333.198 3.52288L337.496 3.52284L341.224 3.52288Z" fill="#2F8B8B"/>
<path d="M356.224 77.607L353.329 73.6454C352.925 73.093 352.029 73.0588 351.591 73.579L348.198 77.607L352.496 77.607L356.224 77.607Z" fill="#2F8B8B"/>
<path d="M348.224 77.607L345.329 73.6454C344.925 73.093 344.029 73.0588 343.591 73.579L340.198 77.607L344.496 77.607L348.224 77.607Z" fill="#2F8B8B"/>
<path d="M340.224 77.607L337.329 73.6454C336.925 73.093 336.029 73.0588 335.591 73.579L332.198 77.607L336.496 77.607L340.224 77.607Z" fill="#2F8B8B"/>
<path d="M397.218 36.1438L393.728 38.9732C392.734 39.7783 392.741 41.2958 393.742 42.0919L396.314 44.1392L402.385 48.8756C403.042 49.3879 404 48.92 404 48.0872L404 32.9729C404 32.1441 403.05 31.6751 402.392 32.1792L397.218 36.1438Z" fill="#2F8B8B"/>
<path d="M383.035 37.3517C382.662 37.109 382.153 37.109 381.78 37.3517L378.034 39.7869C377.458 40.1613 377.458 40.9221 378.034 41.2965L381.78 43.7317C382.153 43.9744 382.662 43.9744 383.035 43.7317L386.782 41.2965C387.358 40.9221 387.358 40.1613 386.782 39.7869L383.035 37.3517Z" fill="#2F8B8B"/>
<path d="M403.135 5.23626C403.135 5.23626 383.848 14.0891 372.135 20.71C359.531 27.8341 341.135 38.3902 341.135 40.6047C341.135 42.8192 359.117 52.5793 371.135 59.6152C383.337 66.7588 404.5 77.2993 404.5 77.2993C404.5 77.2993 405 78.6956 401.5 78.2535C398 77.8114 384.311 69.3418 374.635 64.0363C358.572 55.2286 334.135 43.6994 334.135 40.6047C334.135 37.5099 358.189 25.1593 374.635 16.731C385.139 11.3479 399.635 4.42081 403.135 3.09431C406.635 1.76781 403.135 5.23626 403.135 5.23626Z" fill="#2F8B8B"/>
<path d="M282 3.53666C282 3.53666 304.422 14.0874 316.135 20.7082C328.739 27.8324 347.135 38.3884 347.135 40.603C347.135 42.8175 329.153 52.5775 317.135 59.6135C304.933 66.757 285.135 76.8556 285.135 76.8556C285.135 76.8556 285.135 77.7398 288.635 77.2977C292.135 76.8556 303.959 69.3401 313.635 64.0346C329.698 55.2269 354.135 43.6977 354.135 40.603C354.135 37.5082 330.081 25.1575 313.635 16.7293C303.131 11.3462 289.635 5.23472 286.135 3.90822C282.635 2.58172 282 3.53666 282 3.53666Z" fill="#2F8B8B"/>
<path d="M330 40.6033C330 43.256 316.721 49.3677 307.5 54.3086C298.314 59.2308 285 67.5715 283 65.8033C281 64.0352 283 62.2665 283 62.2665C283 62.2665 296.676 55.6387 305 50.7718C311.419 47.0189 321 42.8139 321 40.6033C321 38.3928 311.539 33.7698 305 29.9928C297.172 25.4713 284 19.8244 284 19.8244C284 19.8244 282 18.4984 283 16.2875C284 14.0767 298.426 22.2472 307.5 26.8981C316.927 31.73 330 37.9507 330 40.6033Z" fill="#2F8B8B"/>
<path d="M356.111 40.6033C356.111 43.256 369.39 49.3677 378.611 54.3086C387.797 59.2308 401.111 67.5715 403.111 65.8033C405.111 64.0352 403.111 62.2665 403.111 62.2665C403.111 62.2665 389.435 55.6387 381.111 50.7718C374.693 47.0189 365.111 42.8139 365.111 40.6033C365.111 38.3928 374.572 33.7698 381.111 29.9928C388.939 25.4713 402.111 19.8244 402.111 19.8244C402.111 19.8244 404.111 18.4984 403.111 16.2875C402.111 14.0767 387.685 22.2472 378.611 26.8981C369.184 31.73 356.111 37.9507 356.111 40.6033Z" fill="#2F8B8B"/>
<path d="M381 2.65234C381 2.65234 369.5 11.9366 363.5 18.5681C357.115 25.6252 344.5 34.4839 344.5 34.4839C344.5 34.4839 332.518 24.3316 325 17.6839C319.5 12.8208 312 2.65234 312 2.65234L317.5 2.65234C317.5 2.65234 316.482 8.39971 328.5 17.6839C335.154 22.8248 342 30.9471 344.5 30.505C347 30.0629 355.274 23.9847 360.5 17.6839C366 11.0523 376 2.65234 376 2.65234L381 2.65234Z" fill="#2F8B8B"/>
<path d="M381 77.8101C381 77.8101 369.5 68.5258 363.5 61.8943C357.115 54.8372 344.5 45.9785 344.5 45.9785C344.5 45.9785 332.518 56.1308 325 62.7785C319.5 67.6416 312 77.8101 312 77.8101L317.5 77.8101C317.5 77.8101 316.482 72.0627 328.5 62.7785C335.154 57.6376 342 49.5153 344.5 49.9574C347 50.3995 355.274 56.4777 360.5 62.7785C366 69.4101 376 77.8101 376 77.8101L381 77.8101Z" fill="#2F8B8B"/>
<path d="M368 2.65234C368 2.65234 358.5 13.2629 355 17.6839C351.5 22.105 347 23.8734 344.972 23.8734C342.943 23.8734 338.544 20.4912 335 17.6839C328.863 12.8219 322.5 2.65234 322.5 2.65234L327 2.65234C327 2.65234 327.871 7.18079 331.5 10.6102C334.98 13.8984 339.891 19.4932 344.972 19.8098C350.529 20.1562 352.722 15.999 356.5 12.3787C359.953 9.06999 363.5 2.65234 363.5 2.65234L368 2.65234Z" fill="#2F8B8B"/>
<path d="M368 77.8101C368 77.8101 358.5 67.1995 355 62.7785C351.5 58.3574 347 56.589 344.972 56.589C342.943 56.589 338.544 59.9712 335 62.7785C328.863 67.6405 322.5 77.8101 322.5 77.8101L327 77.8101C327 77.8101 327.871 73.2816 331.5 69.8522C334.98 66.564 339.891 60.9693 344.972 60.6526C350.529 60.3062 352.722 64.4634 356.5 68.0837C359.953 71.3924 363.5 77.8101 363.5 77.8101L368 77.8101Z" fill="#2F8B8B"/>
<line x1="191" y1="77.6943" x2="311" y2="77.6943" stroke="#2F8B8B" stroke-width="2"/>
<line x1="188" y1="2.53662" x2="311" y2="2.53662" stroke="#2F8B8B" stroke-width="2"/>
<path d="M195.655 36.1438L199.145 38.9732C200.139 39.7783 200.132 41.2958 199.132 42.0919L196.559 44.1392L190.488 48.8756C189.831 49.3879 188.873 48.92 188.873 48.0872L188.873 32.9729C188.873 32.1441 189.823 31.6751 190.481 32.1792L195.655 36.1438Z" fill="#2F8B8B"/>
<path d="M209.837 37.3517C210.211 37.109 210.719 37.109 211.092 37.3517L214.839 39.7869C215.415 40.1613 215.415 40.9221 214.839 41.2965L211.092 43.7317C210.719 43.9744 210.211 43.9744 209.837 43.7317L206.091 41.2965C205.515 40.9221 205.515 40.1613 206.091 39.7869L209.837 37.3517Z" fill="#2F8B8B"/>
<path d="M263.224 3.52288L260.329 7.48451C259.925 8.03687 259.029 8.07109 258.591 7.55088L255.198 3.52288L259.496 3.52284L263.224 3.52288Z" fill="#2F8B8B"/>
<path d="M255.224 3.52288L252.329 7.48451C251.925 8.03687 251.029 8.07109 250.591 7.55088L247.198 3.52288L251.496 3.52284L255.224 3.52288Z" fill="#2F8B8B"/>
<path d="M247.224 3.52288L244.329 7.48451C243.925 8.03687 243.029 8.07109 242.591 7.55088L239.198 3.52288L243.496 3.52284L247.224 3.52288Z" fill="#2F8B8B"/>
<path d="M262.224 77.607L259.329 73.6454C258.925 73.093 258.029 73.0588 257.591 73.579L254.198 77.607L258.496 77.607L262.224 77.607Z" fill="#2F8B8B"/>
<path d="M254.224 77.607L251.329 73.6454C250.925 73.093 250.029 73.0588 249.591 73.579L246.198 77.607L250.496 77.607L254.224 77.607Z" fill="#2F8B8B"/>
<path d="M246.224 77.607L243.329 73.6454C242.925 73.093 242.029 73.0588 241.591 73.579L238.198 77.607L242.496 77.607L246.224 77.607Z" fill="#2F8B8B"/>
<path d="M303.218 36.1438L299.728 38.9732C298.734 39.7783 298.741 41.2958 299.742 42.0919L302.314 44.1392L308.385 48.8756C309.042 49.3879 310 48.92 310 48.0872L310 32.9729C310 32.1441 309.05 31.6751 308.392 32.1792L303.218 36.1438Z" fill="#2F8B8B"/>
<path d="M289.035 37.3517C288.662 37.109 288.153 37.109 287.78 37.3517L284.034 39.7869C283.458 40.1613 283.458 40.9221 284.034 41.2965L287.78 43.7317C288.153 43.9744 288.662 43.9744 289.035 43.7317L292.782 41.2965C293.358 40.9221 293.358 40.1613 292.782 39.7869L289.035 37.3517Z" fill="#2F8B8B"/>
<path d="M309.135 5.23626C309.135 5.23626 289.848 14.0891 278.135 20.71C265.531 27.8341 247.135 38.3902 247.135 40.6047C247.135 42.8192 265.117 52.5793 277.135 59.6152C289.337 66.7588 310.5 77.2993 310.5 77.2993C310.5 77.2993 311 78.6956 307.5 78.2535C304 77.8114 290.311 69.3418 280.635 64.0363C264.572 55.2286 240.135 43.6994 240.135 40.6047C240.135 37.5099 264.189 25.1593 280.635 16.731C291.139 11.3479 305.635 4.42081 309.135 3.09431C312.635 1.76781 309.135 5.23626 309.135 5.23626Z" fill="#2F8B8B"/>
<path d="M188 3.53666C188 3.53666 210.422 14.0874 222.135 20.7082C234.739 27.8324 253.135 38.3884 253.135 40.603C253.135 42.8175 235.153 52.5775 223.135 59.6135C210.933 66.757 191.135 76.8556 191.135 76.8556C191.135 76.8556 191.135 77.7398 194.635 77.2977C198.135 76.8556 209.959 69.3401 219.635 64.0346C235.698 55.2269 260.135 43.6977 260.135 40.603C260.135 37.5082 236.081 25.1575 219.635 16.7293C209.131 11.3462 195.635 5.23472 192.135 3.90822C188.635 2.58172 188 3.53666 188 3.53666Z" fill="#2F8B8B"/>
<path d="M236 40.6033C236 43.256 222.721 49.3677 213.5 54.3086C204.314 59.2308 191 67.5715 189 65.8033C187 64.0352 189 62.2665 189 62.2665C189 62.2665 202.676 55.6387 211 50.7718C217.419 47.0189 227 42.8139 227 40.6033C227 38.3928 217.539 33.7698 211 29.9928C203.172 25.4713 190 19.8244 190 19.8244C190 19.8244 188 18.4984 189 16.2875C190 14.0767 204.426 22.2472 213.5 26.8981C222.927 31.73 236 37.9507 236 40.6033Z" fill="#2F8B8B"/>
<path d="M262.111 40.6033C262.111 43.256 275.39 49.3677 284.611 54.3086C293.797 59.2308 307.111 67.5715 309.111 65.8033C311.111 64.0352 309.111 62.2665 309.111 62.2665C309.111 62.2665 295.435 55.6387 287.111 50.7718C280.693 47.0189 271.111 42.8139 271.111 40.6033C271.111 38.3928 280.572 33.7698 287.111 29.9928C294.939 25.4713 308.111 19.8244 308.111 19.8244C308.111 19.8244 310.111 18.4984 309.111 16.2875C308.111 14.0767 293.685 22.2472 284.611 26.8981C275.184 31.73 262.111 37.9507 262.111 40.6033Z" fill="#2F8B8B"/>
<path d="M287 2.65234C287 2.65234 275.5 11.9366 269.5 18.5681C263.115 25.6252 250.5 34.4839 250.5 34.4839C250.5 34.4839 238.518 24.3316 231 17.6839C225.5 12.8208 218 2.65234 218 2.65234L223.5 2.65234C223.5 2.65234 222.482 8.39971 234.5 17.6839C241.154 22.8248 248 30.9471 250.5 30.505C253 30.0629 261.274 23.9847 266.5 17.6839C272 11.0523 282 2.65234 282 2.65234L287 2.65234Z" fill="#2F8B8B"/>
<path d="M287 77.8101C287 77.8101 275.5 68.5258 269.5 61.8943C263.115 54.8372 250.5 45.9785 250.5 45.9785C250.5 45.9785 238.518 56.1308 231 62.7785C225.5 67.6416 218 77.8101 218 77.8101L223.5 77.8101C223.5 77.8101 222.482 72.0627 234.5 62.7785C241.154 57.6376 248 49.5153 250.5 49.9574C253 50.3995 261.274 56.4777 266.5 62.7785C272 69.4101 282 77.8101 282 77.8101L287 77.8101Z" fill="#2F8B8B"/>
<path d="M274 2.65234C274 2.65234 264.5 13.2629 261 17.6839C257.5 22.105 253 23.8734 250.972 23.8734C248.943 23.8734 244.544 20.4912 241 17.6839C234.863 12.8219 228.5 2.65234 228.5 2.65234L233 2.65234C233 2.65234 233.871 7.18079 237.5 10.6102C240.98 13.8984 245.891 19.4932 250.972 19.8098C256.529 20.1562 258.722 15.999 262.5 12.3787C265.953 9.06999 269.5 2.65234 269.5 2.65234L274 2.65234Z" fill="#2F8B8B"/>
<path d="M274 77.8101C274 77.8101 264.5 67.1995 261 62.7785C257.5 58.3574 253 56.589 250.972 56.589C248.943 56.589 244.544 59.9712 241 62.7785C234.863 67.6405 228.5 77.8101 228.5 77.8101L233 77.8101C233 77.8101 233.871 73.2816 237.5 69.8522C240.98 66.564 245.891 60.9693 250.972 60.6526C256.529 60.3062 258.722 64.4634 262.5 68.0837C265.953 71.3924 269.5 77.8101 269.5 77.8101L274 77.8101Z" fill="#2F8B8B"/>
<line x1="97" y1="77.6943" x2="217" y2="77.6943" stroke="#2F8B8B" stroke-width="2"/>
<line x1="94" y1="2.53662" x2="217" y2="2.53662" stroke="#2F8B8B" stroke-width="2"/>
<path d="M101.655 36.1438L105.145 38.9732C106.139 39.7783 106.132 41.2958 105.132 42.0919L102.559 44.1392L96.4879 48.8756C95.8313 49.3879 94.8728 48.92 94.8728 48.0872L94.8728 32.9729C94.8728 32.1441 95.8232 31.6751 96.4811 32.1792L101.655 36.1438Z" fill="#2F8B8B"/>
<path d="M115.837 37.3517C116.211 37.109 116.719 37.109 117.092 37.3517L120.839 39.7869C121.415 40.1613 121.415 40.9221 120.839 41.2965L117.092 43.7317C116.719 43.9744 116.211 43.9744 115.837 43.7317L112.091 41.2965C111.515 40.9221 111.515 40.1613 112.091 39.7869L115.837 37.3517Z" fill="#2F8B8B"/>
<path d="M169.224 3.52288L166.329 7.48451C165.925 8.03687 165.029 8.07109 164.591 7.55088L161.198 3.52288L165.496 3.52284L169.224 3.52288Z" fill="#2F8B8B"/>
<path d="M161.224 3.52288L158.329 7.48451C157.925 8.03687 157.029 8.07109 156.591 7.55088L153.198 3.52288L157.496 3.52284L161.224 3.52288Z" fill="#2F8B8B"/>
<path d="M153.224 3.52288L150.329 7.48451C149.925 8.03687 149.029 8.07109 148.591 7.55088L145.198 3.52288L149.496 3.52284L153.224 3.52288Z" fill="#2F8B8B"/>
<path d="M168.224 77.607L165.329 73.6454C164.925 73.093 164.029 73.0588 163.591 73.579L160.198 77.607L164.496 77.607L168.224 77.607Z" fill="#2F8B8B"/>
<path d="M160.224 77.607L157.329 73.6454C156.925 73.093 156.029 73.0588 155.591 73.579L152.198 77.607L156.496 77.607L160.224 77.607Z" fill="#2F8B8B"/>
<path d="M152.224 77.607L149.329 73.6454C148.925 73.093 148.029 73.0588 147.591 73.579L144.198 77.607L148.496 77.607L152.224 77.607Z" fill="#2F8B8B"/>
<path d="M209.218 36.1438L205.728 38.9732C204.734 39.7783 204.741 41.2958 205.742 42.0919L208.314 44.1392L214.385 48.8756C215.042 49.3879 216 48.92 216 48.0872L216 32.9729C216 32.1441 215.05 31.6751 214.392 32.1792L209.218 36.1438Z" fill="#2F8B8B"/>
<path d="M195.035 37.3517C194.662 37.109 194.153 37.109 193.78 37.3517L190.034 39.7869C189.458 40.1613 189.458 40.9221 190.034 41.2965L193.78 43.7317C194.153 43.9744 194.662 43.9744 195.035 43.7317L198.782 41.2965C199.358 40.9221 199.358 40.1613 198.782 39.7869L195.035 37.3517Z" fill="#2F8B8B"/>
<path d="M215.135 5.23626C215.135 5.23626 195.848 14.0891 184.135 20.71C171.531 27.8341 153.135 38.3902 153.135 40.6047C153.135 42.8192 171.117 52.5793 183.135 59.6152C195.337 66.7588 216.5 77.2993 216.5 77.2993C216.5 77.2993 217 78.6956 213.5 78.2535C210 77.8114 196.311 69.3418 186.635 64.0363C170.572 55.2286 146.135 43.6994 146.135 40.6047C146.135 37.5099 170.189 25.1593 186.635 16.731C197.139 11.3479 211.635 4.42081 215.135 3.09431C218.635 1.76781 215.135 5.23626 215.135 5.23626Z" fill="#2F8B8B"/>
<path d="M94 3.53666C94 3.53666 116.422 14.0874 128.135 20.7082C140.739 27.8324 159.135 38.3884 159.135 40.603C159.135 42.8175 141.153 52.5775 129.135 59.6135C116.933 66.757 97.1349 76.8556 97.1349 76.8556C97.1349 76.8556 97.1349 77.7398 100.635 77.2977C104.135 76.8556 115.959 69.3401 125.635 64.0346C141.698 55.2269 166.135 43.6977 166.135 40.603C166.135 37.5082 142.081 25.1575 125.635 16.7293C115.131 11.3462 101.635 5.23472 98.1349 3.90822C94.6349 2.58172 94 3.53666 94 3.53666Z" fill="#2F8B8B"/>
<path d="M142 40.6033C142 43.256 128.721 49.3677 119.5 54.3086C110.314 59.2308 97 67.5715 95 65.8033C93 64.0352 95 62.2665 95 62.2665C95 62.2665 108.676 55.6387 117 50.7718C123.419 47.0189 133 42.8139 133 40.6033C133 38.3928 123.539 33.7698 117 29.9928C109.172 25.4713 96 19.8244 96 19.8244C96 19.8244 94 18.4984 95 16.2875C96 14.0767 110.426 22.2472 119.5 26.8981C128.927 31.73 142 37.9507 142 40.6033Z" fill="#2F8B8B"/>
<path d="M168.111 40.6033C168.111 43.256 181.39 49.3677 190.611 54.3086C199.797 59.2308 213.111 67.5715 215.111 65.8033C217.111 64.0352 215.111 62.2665 215.111 62.2665C215.111 62.2665 201.435 55.6387 193.111 50.7718C186.693 47.0189 177.111 42.8139 177.111 40.6033C177.111 38.3928 186.572 33.7698 193.111 29.9928C200.939 25.4713 214.111 19.8244 214.111 19.8244C214.111 19.8244 216.111 18.4984 215.111 16.2875C214.111 14.0767 199.685 22.2472 190.611 26.8981C181.184 31.73 168.111 37.9507 168.111 40.6033Z" fill="#2F8B8B"/>
<path d="M193 2.65234C193 2.65234 181.5 11.9366 175.5 18.5681C169.115 25.6252 156.5 34.4839 156.5 34.4839C156.5 34.4839 144.518 24.3316 137 17.6839C131.5 12.8208 124 2.65234 124 2.65234L129.5 2.65234C129.5 2.65234 128.482 8.39971 140.5 17.6839C147.154 22.8248 154 30.9471 156.5 30.505C159 30.0629 167.274 23.9847 172.5 17.6839C178 11.0523 188 2.65234 188 2.65234L193 2.65234Z" fill="#2F8B8B"/>
<path d="M193 77.8101C193 77.8101 181.5 68.5258 175.5 61.8943C169.115 54.8372 156.5 45.9785 156.5 45.9785C156.5 45.9785 144.518 56.1308 137 62.7785C131.5 67.6416 124 77.8101 124 77.8101L129.5 77.8101C129.5 77.8101 128.482 72.0627 140.5 62.7785C147.154 57.6376 154 49.5153 156.5 49.9574C159 50.3995 167.274 56.4777 172.5 62.7785C178 69.4101 188 77.8101 188 77.8101L193 77.8101Z" fill="#2F8B8B"/>
<path d="M180 2.65234C180 2.65234 170.5 13.2629 167 17.6839C163.5 22.105 159 23.8734 156.972 23.8734C154.943 23.8734 150.544 20.4912 147 17.6839C140.863 12.8219 134.5 2.65234 134.5 2.65234L139 2.65234C139 2.65234 139.871 7.18079 143.5 10.6102C146.98 13.8984 151.891 19.4932 156.972 19.8098C162.529 20.1562 164.722 15.999 168.5 12.3787C171.953 9.06999 175.5 2.65234 175.5 2.65234L180 2.65234Z" fill="#2F8B8B"/>
<path d="M180 77.8101C180 77.8101 170.5 67.1995 167 62.7785C163.5 58.3574 159 56.589 156.972 56.589C154.943 56.589 150.544 59.9712 147 62.7785C140.863 67.6405 134.5 77.8101 134.5 77.8101L139 77.8101C139 77.8101 139.871 73.2816 143.5 69.8522C146.98 66.564 151.891 60.9693 156.972 60.6526C162.529 60.3062 164.722 64.4634 168.5 68.0837C171.953 71.3924 175.5 77.8101 175.5 77.8101L180 77.8101Z" fill="#2F8B8B"/>
<line x1="3" y1="77.6943" x2="123" y2="77.6943" stroke="#2F8B8B" stroke-width="2"/>
<line x1="-1.19249e-08" y1="2.53662" x2="123" y2="2.53662" stroke="#2F8B8B" stroke-width="2"/>
<path d="M7.65463 36.1438L11.1455 38.9732C12.1387 39.7783 12.1319 41.2958 11.1315 42.0919L8.55887 44.1392L2.48794 48.8756C1.8313 49.3879 0.872819 48.92 0.872819 48.0872L0.872819 32.9729C0.872819 32.1441 1.8232 31.6751 2.48107 32.1792L7.65463 36.1438Z" fill="#2F8B8B"/>
<path d="M21.8374 37.3517C22.2107 37.109 22.7191 37.109 23.0924 37.3517L26.8389 39.7869C27.4148 40.1613 27.4148 40.9221 26.8388 41.2965L23.0924 43.7317C22.7191 43.9744 22.2107 43.9744 21.8374 43.7317L18.0909 41.2965C17.515 40.9221 17.515 40.1613 18.0909 39.7869L21.8374 37.3517Z" fill="#2F8B8B"/>
<path d="M75.2242 3.52288L72.3288 7.48451C71.9252 8.03687 71.0291 8.07109 70.5909 7.55088L67.1976 3.52288L71.4955 3.52284L75.2242 3.52288Z" fill="#2F8B8B"/>
<path d="M67.2242 3.52288L64.3288 7.48451C63.9252 8.03687 63.0291 8.07109 62.5909 7.55088L59.1976 3.52288L63.4955 3.52284L67.2242 3.52288Z" fill="#2F8B8B"/>
<path d="M59.2242 3.52288L56.3288 7.48451C55.9252 8.03687 55.0291 8.07109 54.5909 7.55088L51.1976 3.52288L55.4955 3.52284L59.2242 3.52288Z" fill="#2F8B8B"/>
<path d="M74.2242 77.607L71.3288 73.6454C70.9252 73.093 70.0291 73.0588 69.5909 73.579L66.1976 77.607L70.4955 77.607L74.2242 77.607Z" fill="#2F8B8B"/>
<path d="M66.2242 77.607L63.3288 73.6454C62.9252 73.093 62.0291 73.0588 61.5909 73.579L58.1976 77.607L62.4955 77.607L66.2242 77.607Z" fill="#2F8B8B"/>
<path d="M58.2242 77.607L55.3288 73.6454C54.9252 73.093 54.0291 73.0588 53.5909 73.579L50.1976 77.607L54.4955 77.607L58.2242 77.607Z" fill="#2F8B8B"/>
<path d="M115.218 36.1438L111.728 38.9732C110.734 39.7783 110.741 41.2958 111.742 42.0919L114.314 44.1392L120.385 48.8756C121.042 49.3879 122 48.92 122 48.0872L122 32.9729C122 32.1441 121.05 31.6751 120.392 32.1792L115.218 36.1438Z" fill="#2F8B8B"/>
<path d="M101.035 37.3517C100.662 37.109 100.153 37.109 99.7802 37.3517L96.0337 39.7869C95.4578 40.1613 95.4578 40.9221 96.0337 41.2965L99.7802 43.7317C100.153 43.9744 100.662 43.9744 101.035 43.7317L104.782 41.2965C105.358 40.9221 105.358 40.1613 104.782 39.7869L101.035 37.3517Z" fill="#2F8B8B"/>
<path d="M121.135 5.23626C121.135 5.23626 101.848 14.0891 90.1348 20.71C77.5312 27.8341 59.1348 38.3902 59.1348 40.6047C59.1348 42.8192 77.1167 52.5793 89.1348 59.6152C101.337 66.7588 122.5 77.2993 122.5 77.2993C122.5 77.2993 123 78.6956 119.5 78.2535C116 77.8114 102.311 69.3418 92.6349 64.0363C76.5715 55.2286 52.1348 43.6994 52.1348 40.6047C52.1348 37.5099 76.1888 25.1593 92.6348 16.731C103.139 11.3479 117.635 4.42081 121.135 3.09431C124.635 1.76781 121.135 5.23626 121.135 5.23626Z" fill="#2F8B8B"/>
<path d="M3.96574e-09 3.53666C3.96574e-09 3.53666 22.4217 14.0874 34.1349 20.7082C46.7386 27.8324 65.1349 38.3884 65.1349 40.603C65.1349 42.8175 47.1531 52.5775 35.1349 59.6135C22.9329 66.757 3.13495 76.8556 3.13495 76.8556C3.13495 76.8556 3.13492 77.7398 6.63495 77.2977C10.135 76.8556 21.9587 69.3401 31.6349 64.0346C47.6983 55.2269 72.1349 43.6977 72.1349 40.603C72.1349 37.5082 48.081 25.1575 31.6349 16.7293C21.1309 11.3462 7.63497 5.23472 4.13495 3.90822C0.634926 2.58172 3.96574e-09 3.53666 3.96574e-09 3.53666Z" fill="#2F8B8B"/>
<path d="M48 40.6033C48 43.256 34.7209 49.3677 25.5 54.3086C16.3139 59.2308 3 67.5715 1 65.8033C-0.999999 64.0352 1 62.2665 1 62.2665C1 62.2665 14.6759 55.6387 23 50.7718C29.4186 47.0189 39 42.8139 39 40.6033C39 38.3928 29.5389 33.7698 23 29.9928C15.1721 25.4713 2 19.8244 2 19.8244C2 19.8244 3.08005e-08 18.4984 1 16.2875C2 14.0767 16.4264 22.2472 25.5 26.8981C34.9268 31.73 48 37.9507 48 40.6033Z" fill="#2F8B8B"/>
<path d="M74.1113 40.6033C74.1113 43.256 87.3904 49.3677 96.6113 54.3086C105.797 59.2308 119.111 67.5715 121.111 65.8033C123.111 64.0352 121.111 62.2665 121.111 62.2665C121.111 62.2665 107.435 55.6387 99.1113 50.7718C92.6928 47.0189 83.1113 42.8139 83.1113 40.6033C83.1113 38.3928 92.5724 33.7698 99.1113 29.9928C106.939 25.4713 120.111 19.8244 120.111 19.8244C120.111 19.8244 122.111 18.4984 121.111 16.2875C120.111 14.0767 105.685 22.2472 96.6113 26.8981C87.1845 31.73 74.1113 37.9507 74.1113 40.6033Z" fill="#2F8B8B"/>
<path d="M99 2.65234C99 2.65234 87.5 11.9366 81.5 18.5681C75.115 25.6252 62.5 34.4839 62.5 34.4839C62.5 34.4839 50.5182 24.3316 43 17.6839C37.5 12.8208 30 2.65234 30 2.65234L35.5 2.65234C35.5 2.65234 34.4825 8.39971 46.5 17.6839C53.1544 22.8248 60 30.9471 62.5 30.505C65 30.0629 73.2744 23.9847 78.5 17.6839C84 11.0523 94 2.65234 94 2.65234L99 2.65234Z" fill="#2F8B8B"/>
<path d="M99 77.8101C99 77.8101 87.5 68.5258 81.5 61.8943C75.115 54.8372 62.5 45.9785 62.5 45.9785C62.5 45.9785 50.5182 56.1308 43 62.7785C37.5 67.6416 30 77.8101 30 77.8101L35.5 77.8101C35.5 77.8101 34.4825 72.0627 46.5 62.7785C53.1544 57.6376 60 49.5153 62.5 49.9574C65 50.3995 73.2744 56.4777 78.5 62.7785C84 69.4101 94 77.8101 94 77.8101L99 77.8101Z" fill="#2F8B8B"/>
<path d="M86 2.65234C86 2.65234 76.5 13.2629 73 17.6839C69.5 22.105 65 23.8734 62.9717 23.8734C60.9434 23.8734 56.5437 20.4912 53 17.6839C46.8625 12.8219 40.5 2.65234 40.5 2.65234L45 2.65234C45 2.65234 45.8708 7.18079 49.5 10.6102C52.9796 13.8984 57.8915 19.4932 62.9717 19.8098C68.5293 20.1562 70.7216 15.999 74.5 12.3787C77.9532 9.06999 81.5 2.65234 81.5 2.65234L86 2.65234Z" fill="#2F8B8B"/>
<path d="M86 77.8101C86 77.8101 76.5 67.1995 73 62.7785C69.5 58.3574 65 56.589 62.9717 56.589C60.9434 56.589 56.5437 59.9712 53 62.7785C46.8625 67.6405 40.5 77.8101 40.5 77.8101L45 77.8101C45 77.8101 45.8708 73.2816 49.5 69.8522C52.9796 66.564 57.8915 60.9693 62.9717 60.6526C68.5293 60.3062 70.7216 64.4634 74.5 68.0837C77.9532 71.3924 81.5 77.8101 81.5 77.8101L86 77.8101Z" fill="#2F8B8B"/>
<g filter="url(#filter0_b)">
<path fill-rule="evenodd" clip-rule="evenodd" d="M0 84H405V113H0V84Z" fill="#1E425D"/>
</g>
<defs>
<filter id="filter0_b" x="-27.1828" y="56.8172" width="459.366" height="83.3656" filterUnits="userSpaceOnUse" color-interpolation-filters="sRGB">
<feFlood flood-opacity="0" result="BackgroundImageFix"/>
<feGaussianBlur in="BackgroundImage" stdDeviation="13.5914"/>
<feComposite in2="SourceAlpha" operator="in" result="effect1_backgroundBlur"/>
<feBlend mode="normal" in="SourceGraphic" in2="effect1_backgroundBlur" result="shape"/>
</filter>
</defs>
</svg>
