<svg width="375" height="2209" viewBox="0 0 375 2209" fill="none" xmlns="http://www.w3.org/2000/svg">
<path d="M245.287 1289.04L276.623 1289.04L-1.37732 1779L-1.37732 1757.4L245.287 1289.04Z" fill="#EDE7C7"/>
<path d="M-3.37653 1289.11H372.623V1756.79H-3.37653V1289.11Z" fill="#E0EEEE"/>
<path d="M131.929 1289.25L156.623 1289.25L-1.87965 1585.03L-1.87968 1543.32L131.929 1289.25Z" fill="#EDE7C7"/>
<path d="M164.623 1289.11L191.123 1289.11L-1.28093 1648.15L-1.28096 1604.11L164.623 1289.11Z" fill="#EDE7C7"/>
<path d="M327.287 1288.3L358.623 1288.3L116.297 1756.33L80.6226 1756.66L327.287 1288.3Z" fill="#EDE7C7"/>
<path d="M294.623 1289.11L312.623 1289.11L64.6227 1756.79L47.6227 1756.79L294.623 1289.11Z" fill="#EDE7C7"/>
<path d="M89.625 1289.04L108.125 1289.04L-18.4409 1521.92L-18.4409 1482.21L89.625 1289.04Z" fill="#EDE7C7"/>
<path d="M57.1043 1289.49L67.1028 1289.49L-1.37673 1418.45L-1.37673 1393.61L57.1043 1289.49Z" fill="#EDE7C7"/>
<path d="M212.623 1289.11L224.123 1289.11L-1.18226 1714.22L-1.18248 1679.19L212.623 1289.11Z" fill="#EDE7C7"/>
<path d="M238.818 1754.87L214.123 1754.87L372.626 1459.08L372.626 1500.8L238.818 1754.87Z" fill="#EDE7C7"/>
<path d="M206.123 1755L179.623 1755L372.028 1395.96L372.028 1440L206.123 1755Z" fill="#EDE7C7"/>
<path d="M264.123 1755.07L245.623 1755.07L372.189 1522.2L372.189 1561.91L264.123 1755.07Z" fill="#EDE7C7"/>
<path d="M355.578 1757.01L337.078 1757.01L373.163 1708.97L373.163 1735.65L355.578 1757.01Z" fill="#EDE7C7"/>
<path d="M313.642 1754.63L303.643 1754.62L372.123 1625.67L372.123 1650.5L313.642 1754.63Z" fill="#EDE7C7"/>
<path d="M158.123 1755L146.623 1755L371.929 1329.89L371.929 1364.92L158.123 1755Z" fill="#EDE7C7"/>
<path d="M-1.92124 1327.54L-1.92107 1343.9L42.5671 1288.99L30.0788 1288.99L-1.92124 1327.54Z" fill="#EDE7C7"/>
<path d="M-3.37653 870.909H372.623V1293.39H-3.37653V870.909Z" fill="#E0EEEE"/>
<path d="M245.287 870.85L276.623 870.847L-1.3773 1313.5L-1.37732 1290L245.287 870.85Z" fill="#EDE7C7"/>
<path d="M131.929 871.032L156.623 871.031L-1.87964 1138.23L-1.87967 1100.55L131.929 871.032Z" fill="#EDE7C7"/>
<path d="M164.623 870.91L191.123 870.909L-1.28094 1195.25L-1.28097 1155.47L164.623 870.91Z" fill="#EDE7C7"/>
<path d="M327.287 870.182L358.623 870.179L116.297 1292.97L80.6226 1293.27L327.287 870.182Z" fill="#EDE7C7"/>
<path d="M294.623 870.908L312.623 870.908L64.6227 1293.39L47.6227 1293.39L294.623 870.908Z" fill="#EDE7C7"/>
<path d="M89.625 870.847L108.125 870.847L-18.4409 1081.21L-18.4409 1045.34L89.625 870.847Z" fill="#EDE7C7"/>
<path d="M57.1043 871.248L67.1028 871.252L-1.37673 987.745L-1.37673 965.312L57.1043 871.248Z" fill="#EDE7C7"/>
<path d="M212.623 870.912L224.123 870.912L-1.18225 1254.93L-1.18247 1223.29L212.623 870.912Z" fill="#EDE7C7"/>
<path d="M238.818 1291.65L214.123 1291.65L372.626 1024.45L372.626 1062.13L238.818 1291.65Z" fill="#EDE7C7"/>
<path d="M206.123 1291.77L179.623 1291.77L372.028 967.435L372.028 1007.21L206.123 1291.77Z" fill="#EDE7C7"/>
<path d="M264.123 1291.83L245.623 1291.83L372.189 1081.47L372.189 1117.34L264.123 1291.83Z" fill="#EDE7C7"/>
<path d="M355.578 1293.59L337.078 1293.59L373.163 1250.18L373.163 1274.29L355.578 1293.59Z" fill="#EDE7C7"/>
<path d="M313.642 1291.43L303.643 1291.43L372.123 1174.94L372.123 1197.37L313.642 1291.43Z" fill="#EDE7C7"/>
<path d="M158.123 1291.77L146.623 1291.77L371.929 907.751L371.929 939.395L158.123 1291.77Z" fill="#EDE7C7"/>
<path d="M-1.92124 905.626L-1.92107 920.399L42.5671 870.798L30.0788 870.798L-1.92124 905.626Z" fill="#EDE7C7"/>
<path d="M-2.92139 448H373.079V874H-2.92139V448Z" fill="#E0EEEE"/>
<path d="M245.287 447.851L276.623 447.848L-1.37731 894L-1.37732 870.941L245.287 447.851Z" fill="#EDE7C7"/>
<path d="M131.929 448.032L156.623 448.032L-1.87964 715.23L-1.87967 677.547L131.929 448.032Z" fill="#EDE7C7"/>
<path d="M164.623 447.91L191.123 447.909L-1.28094 772.246L-1.28097 732.466L164.623 447.91Z" fill="#EDE7C7"/>
<path d="M327.287 447.183L358.623 447.18L116.297 869.973L80.6226 870.273L327.287 447.183Z" fill="#EDE7C7"/>
<path d="M294.623 447.909L312.623 447.909L64.6227 870.387L47.6227 870.387L294.623 447.909Z" fill="#EDE7C7"/>
<path d="M89.625 447.848L108.125 447.848L-18.4409 658.214L-18.4409 622.342L89.625 447.848Z" fill="#EDE7C7"/>
<path d="M57.1043 448.249L67.1028 448.253L-1.37673 564.746L-1.37673 542.313L57.1043 448.249Z" fill="#EDE7C7"/>
<path d="M212.623 447.912L224.123 447.912L-1.18225 831.93L-1.18247 800.286L212.623 447.912Z" fill="#EDE7C7"/>
<path d="M238.818 868.65L214.123 868.65L372.626 601.452L372.626 639.135L238.818 868.65Z" fill="#EDE7C7"/>
<path d="M206.123 868.771L179.623 868.772L372.028 544.435L372.028 584.215L206.123 868.771Z" fill="#EDE7C7"/>
<path d="M264.123 868.834L245.623 868.834L372.189 658.468L372.189 694.339L264.123 868.834Z" fill="#EDE7C7"/>
<path d="M354.079 877L337.078 870.586L373.163 827.185L373.163 855.5L354.079 877Z" fill="#EDE7C7"/>
<path d="M313.642 868.433L303.643 868.429L372.123 751.936L372.123 774.369L313.642 868.433Z" fill="#EDE7C7"/>
<path d="M158.123 868.769L146.623 868.769L371.929 484.751L371.929 516.396L158.123 868.769Z" fill="#EDE7C7"/>
<path d="M-1.92124 482.627L-1.92107 497.4L42.5671 447.799L30.0788 447.799L-1.92124 482.627Z" fill="#EDE7C7"/>
<path d="M-3.37653 29.9097H372.623V452.387H-3.37653V29.9097Z" fill="#E0EEEE"/>
<path d="M245.287 29.851L276.623 29.8482L-1.37732 472.5L-1.37732 452.941L245.287 29.851Z" fill="#EDE7C7"/>
<path d="M131.929 30.0323L156.623 30.0317L-1.87964 297.23L-1.87967 259.547L131.929 30.0323Z" fill="#EDE7C7"/>
<path d="M164.623 29.9102L191.123 29.9094L-1.28094 354.246L-1.28097 314.466L164.623 29.9102Z" fill="#EDE7C7"/>
<path d="M327.287 29.1825L358.623 29.1797L116.297 451.973L80.6226 452.273L327.287 29.1825Z" fill="#EDE7C7"/>
<path d="M294.623 29.909L312.623 29.909L64.6227 452.387L47.6227 452.387L294.623 29.909Z" fill="#EDE7C7"/>
<path d="M89.625 29.8476L108.125 29.8478L-18.4409 240.214L-18.4409 204.342L89.625 29.8476Z" fill="#EDE7C7"/>
<path d="M57.1043 30.2487L67.1028 30.253L-1.37673 146.746L-1.37673 124.313L57.1043 30.2487Z" fill="#EDE7C7"/>
<path d="M212.623 29.9123L224.123 29.9123L-1.18225 413.93L-1.18247 382.286L212.623 29.9123Z" fill="#EDE7C7"/>
<path d="M238.818 450.65L214.123 450.65L372.626 183.452L372.626 221.135L238.818 450.65Z" fill="#EDE7C7"/>
<path d="M206.123 450.771L179.623 450.772L372.028 126.435L372.028 166.215L206.123 450.771Z" fill="#EDE7C7"/>
<path d="M264.123 450.834L245.623 450.834L372.189 240.468L372.189 276.339L264.123 450.834Z" fill="#EDE7C7"/>
<path d="M355.578 452.586L337.078 452.586L373.163 409.185L373.163 433.29L355.578 452.586Z" fill="#EDE7C7"/>
<path d="M313.642 450.433L303.643 450.429L372.123 333.936L372.123 356.369L313.642 450.433Z" fill="#EDE7C7"/>
<path d="M158.123 450.769L146.623 450.769L371.929 66.7512L371.929 98.3955L158.123 450.769Z" fill="#EDE7C7"/>
<path d="M-1.92124 64.6275L-1.92107 79.3998L42.5671 29.7989L30.0788 29.7985L-1.92124 64.6275Z" fill="#EDE7C7"/>
<path d="M-3.37653 1752.91H372.623V2175.39H-3.37653V1752.91Z" fill="#E0EEEE"/>
<path d="M245.287 1752.85L276.623 1752.85L34.2974 2175.64L-1.37742 2175.94L245.287 1752.85Z" fill="#EDE7C7"/>
<path d="M131.929 1753.03L156.623 1753.03L-1.87964 2020.23L-1.87967 1982.55L131.929 1753.03Z" fill="#EDE7C7"/>
<path d="M164.623 1752.91L191.123 1752.91L-1.28094 2077.25L-1.28097 2037.47L164.623 1752.91Z" fill="#EDE7C7"/>
<path d="M327.287 1752.18L358.623 1752.18L116.297 2174.97L80.6226 2175.27L327.287 1752.18Z" fill="#EDE7C7"/>
<path d="M294.623 1752.91L312.623 1752.91L64.6227 2175.39L47.6227 2175.39L294.623 1752.91Z" fill="#EDE7C7"/>
<path d="M89.625 1752.85L108.125 1752.85L-18.4409 1963.21L-18.4409 1927.34L89.625 1752.85Z" fill="#EDE7C7"/>
<path d="M57.1043 1753.25L67.1028 1753.25L-1.37673 1869.75L-1.37673 1847.31L57.1043 1753.25Z" fill="#EDE7C7"/>
<path d="M212.623 1752.91L224.123 1752.91L-1.18225 2136.93L-1.18247 2105.29L212.623 1752.91Z" fill="#EDE7C7"/>
<path d="M238.818 2173.65L214.123 2173.65L372.626 1906.45L372.626 1944.14L238.818 2173.65Z" fill="#EDE7C7"/>
<path d="M206.123 2173.77L179.623 2173.77L372.028 1849.44L372.028 1889.21L206.123 2173.77Z" fill="#EDE7C7"/>
<path d="M264.123 2173.83L245.623 2173.83L372.189 1963.47L372.189 1999.34L264.123 2173.83Z" fill="#EDE7C7"/>
<path d="M355.578 2175.59L337.078 2175.59L373.163 2132.19L373.163 2156.29L355.578 2175.59Z" fill="#EDE7C7"/>
<path d="M313.642 2173.43L303.643 2173.43L372.123 2056.94L372.123 2079.37L313.642 2173.43Z" fill="#EDE7C7"/>
<path d="M158.123 2173.77L146.623 2173.77L371.929 1789.75L371.929 1821.4L158.123 2173.77Z" fill="#EDE7C7"/>
<path d="M-1.70633 1796.53L-1.70616 1811.3L42.782 1761.7L30.2937 1761.7L-1.70633 1796.53Z" fill="#EDE7C7"/>
<rect x="19.0786" y="82" width="329" height="2034" fill="white"/>
</svg>
