<svg width="375" height="1998" viewBox="0 0 375 1998" fill="none" xmlns="http://www.w3.org/2000/svg">
<path d="M-1 0H375V1998H-1V0Z" fill="#E0EEEE"/>
<rect x="30" y="50" width="320" height="1872" fill="white"/>
<path d="M22 35.8153C18.8 37.407 15.9697 28.3355 12.9522 23.0118C10.3843 18.4812 9.94353 15.4357 7.3843 10.9003C4.85853 6.42421 -7.51114e-07 -2.95612e-07 -7.51114e-07 -2.95612e-07L44 -4.14221e-06C44 -4.14221e-06 40.1152 6.63176 37.6596 10.9003C33.9433 17.3604 32.473 21.3565 28.2638 27.5103C25.9709 30.8625 25.2 34.2236 22 35.8153Z" fill="#87A1A1"/>
<path d="M61.5 18.9025C59.8273 19.7426 58.3478 14.9549 56.7705 12.1451C55.4281 9.75398 55.1978 8.14662 53.86 5.75294C52.5397 3.39055 50 6.48345e-07 50 6.48345e-07L73 -1.36238e-06C73 -1.36238e-06 70.9693 3.5001 69.6857 5.75294C67.7431 9.16242 66.9745 11.2715 64.7743 14.5193C63.5757 16.2885 63.1727 18.0625 61.5 18.9025Z" fill="#87A1A1"/>
<path d="M347 41.0001C344 43 340.147 32.4376 336.718 26.3431C333.8 21.1567 333.299 17.6703 330.391 12.4784C327.521 7.35429 322 0.000103553 322 0.000103553L372 9.91821e-05C372 9.91821e-05 367.585 7.59188 364.795 12.4784C360.572 19.8736 358.901 24.4482 354.118 31.4928C351.512 35.3303 350 39.0002 347 41.0001Z" fill="#87A1A1"/>
<path d="M94.5 29C91.3905 28.5 89.7032 22.9436 87.3029 18.6329C85.2602 14.9644 84.9096 12.4985 82.8739 8.8261C80.8647 5.20176 77 1.45039e-05 77 1.45039e-05L112 1.14441e-05C112 1.14441e-05 108.91 5.36981 106.956 8.8261C104 14.0569 102.831 17.2926 99.4826 22.2754C97.6587 24.9897 97.6095 29.5 94.5 29Z" fill="#87A1A1"/>
<path d="M304.609 29.0001C302.5 30 299.813 22.9437 297.412 18.633C295.37 14.9645 295.019 12.4986 292.983 8.8262C290.974 5.20186 287.109 0.000115593 287.109 0.000115593L322.109 0.000112534C322.109 0.000112534 319.019 5.36992 317.066 8.8262C314.11 14.057 312.94 17.2927 309.592 22.2755C307.768 24.9898 306.719 28.0002 304.609 29.0001Z" fill="#87A1A1"/>
<path d="M138.5 37C135.891 36.5 132.333 29.2728 129.247 23.773C126.62 19.0925 126.17 15.9463 123.552 11.2609C120.969 6.63671 116 3.93402e-06 116 3.93402e-06L161 0C161 0 157.027 6.85113 154.515 11.2609C150.715 17.9346 149.211 22.0629 144.906 28.4203C142.561 31.8834 141.11 37.5 138.5 37Z" fill="#87A1A1"/>
<path d="M261.5 37C258.391 37.5 255.333 29.2728 252.247 23.7729C249.62 19.0925 249.17 15.9462 246.552 11.2608C243.969 6.63667 239 -4.5657e-05 239 -4.5657e-05L284 -4.95911e-05C284 -4.95911e-05 280.027 6.85109 277.515 11.2608C273.715 17.9346 272.211 22.0629 267.906 28.4202C265.561 31.8833 264.61 36.4999 261.5 37Z" fill="#87A1A1"/>
<path d="M182.5 26C179.891 28 178.251 20.5701 176.125 16.7053C174.316 13.4164 174.006 11.2055 172.203 7.91307C170.423 4.66366 167 2.9413e-05 167 2.9413e-05L198 2.67029e-05C198 2.67029e-05 195.263 4.81433 193.533 7.91307C190.915 12.6027 189.879 15.5037 186.913 19.971C185.298 22.4046 185.109 24.0001 182.5 26Z" fill="#87A1A1"/>
<path d="M219.5 26.0001C217.391 27 215.251 20.5701 213.125 16.7054C211.316 13.4164 211.006 11.2056 209.203 7.91309C207.423 4.66368 204 5.23012e-05 204 5.23012e-05L235 4.95911e-05C235 4.95911e-05 232.263 4.81436 230.533 7.91309C227.915 12.6028 226.879 15.5037 223.913 19.9711C222.298 22.4046 221.609 25.0001 219.5 26.0001Z" fill="#87A1A1"/>
<path d="M25 1960.43C21.8 1958.84 18.9697 1967.91 15.9522 1973.24C13.3843 1977.77 12.9435 1980.81 10.3843 1985.35C7.85853 1989.82 3 1996.25 3 1996.25L47 1996.25C47 1996.25 43.1152 1989.62 40.6596 1985.35C36.9433 1978.89 35.473 1974.89 31.2638 1968.74C28.9709 1965.39 28.2 1962.02 25 1960.43Z" fill="#87A1A1"/>
<path d="M64.5 1977.35C62.8273 1976.51 61.3478 1981.29 59.7705 1984.1C58.4281 1986.49 58.1978 1988.1 56.86 1990.5C55.5397 1992.86 53 1996.25 53 1996.25L76 1996.25C76 1996.25 73.9693 1992.75 72.6857 1990.5C70.7431 1987.09 69.9745 1984.98 67.7743 1981.73C66.5757 1979.96 66.1727 1978.19 64.5 1977.35Z" fill="#87A1A1"/>
<path d="M350 1955.25C347 1953.25 343.147 1963.81 339.718 1969.91C336.8 1975.09 336.299 1978.58 333.391 1983.77C330.521 1988.89 325 1996.25 325 1996.25L375 1996.25C375 1996.25 370.585 1988.66 367.795 1983.77C363.572 1976.37 361.901 1971.8 357.118 1964.76C354.512 1960.92 353 1957.25 350 1955.25Z" fill="#87A1A1"/>
<path d="M97.5 1967.25C94.3905 1967.75 92.7032 1973.3 90.3029 1977.62C88.2602 1981.28 87.9096 1983.75 85.8739 1987.42C83.8647 1991.05 80 1996.25 80 1996.25L115 1996.25C115 1996.25 111.91 1990.88 109.956 1987.42C107 1982.19 105.831 1978.96 102.483 1973.97C100.659 1971.26 100.61 1966.75 97.5 1967.25Z" fill="#87A1A1"/>
<path d="M307.609 1967.25C305.5 1966.25 302.813 1973.3 300.412 1977.62C298.37 1981.28 298.019 1983.75 295.983 1987.42C293.974 1991.05 290.109 1996.25 290.109 1996.25L325.109 1996.25C325.109 1996.25 322.019 1990.88 320.066 1987.42C317.11 1982.19 315.94 1978.96 312.592 1973.97C310.768 1971.26 309.719 1968.25 307.609 1967.25Z" fill="#87A1A1"/>
<path d="M141.5 1959.25C138.891 1959.75 135.333 1966.98 132.247 1972.48C129.62 1977.16 129.17 1980.3 126.552 1984.99C123.969 1989.61 119 1996.25 119 1996.25L164 1996.25C164 1996.25 160.027 1989.4 157.515 1984.99C153.715 1978.31 152.211 1974.19 147.906 1967.83C145.561 1964.36 144.11 1958.75 141.5 1959.25Z" fill="#87A1A1"/>
<path d="M264.5 1959.25C261.391 1958.75 258.333 1966.98 255.247 1972.48C252.62 1977.16 252.17 1980.3 249.552 1984.99C246.969 1989.61 242 1996.25 242 1996.25L287 1996.25C287 1996.25 283.027 1989.4 280.515 1984.99C276.715 1978.31 275.211 1974.19 270.906 1967.83C268.561 1964.36 267.61 1959.75 264.5 1959.25Z" fill="#87A1A1"/>
<path d="M185.5 1970.25C182.891 1968.25 181.251 1975.68 179.125 1979.54C177.316 1982.83 177.006 1985.04 175.203 1988.33C173.423 1991.58 170 1996.25 170 1996.25L201 1996.25C201 1996.25 198.263 1991.43 196.533 1988.33C193.915 1983.65 192.879 1980.74 189.913 1976.28C188.298 1973.84 188.109 1972.25 185.5 1970.25Z" fill="#87A1A1"/>
<path d="M222.5 1970.25C220.391 1969.25 218.251 1975.68 216.125 1979.54C214.316 1982.83 214.006 1985.04 212.203 1988.33C210.423 1991.58 207 1996.25 207 1996.25L238 1996.25C238 1996.25 235.263 1991.43 233.533 1988.33C230.915 1983.65 229.879 1980.74 226.913 1976.28C225.298 1973.84 224.609 1971.25 222.5 1970.25Z" fill="#87A1A1"/>
</svg>
