<svg width="326" height="282" viewBox="0 0 326 282" fill="none" xmlns="http://www.w3.org/2000/svg">
<path d="M326 79.8113C326 151.317 181.331 282 118.706 282C56.0821 282 0 259.505 0 188C0 116.495 33.0496 0 95.6739 0C158.298 0 326 8.30606 326 79.8113Z" fill="#2F8B8B" fill-opacity="0.15"/>
<mask id="mask0" mask-type="alpha" maskUnits="userSpaceOnUse" x="45" y="26" width="230" height="230">
<circle cx="160" cy="141" r="115" fill="#C4C4C4"/>
</mask>
<g mask="url(#mask0)">
<rect x="-36.5" y="12.5" width="373.754" height="251" fill="#6A4AD9" stroke="#C4C4C4"/>
</g>
<path d="M168.724 175.026C169.891 173.2 170.264 170.874 170.264 170.874C170.264 170.874 171.257 173.01 172.879 174.448C173.73 175.204 176.797 175.216 176.797 175.216C176.797 175.216 177.646 179.946 176.952 182.414C176.228 184.99 175.19 186.369 173.334 186.856C171.2 187.417 169.573 186.07 167.811 183.686C166.273 181.607 165.163 176.834 165.163 176.834C165.163 176.834 168.11 175.985 168.724 175.026Z" fill="#F9F7F7"/>
<path d="M163.385 160.101C164.354 158.755 165.764 158.497 167.271 159.051C168.213 159.397 169.307 160.767 169.307 160.767C169.307 160.767 169.68 159.211 170.348 158.617C171.426 157.658 173.187 157.68 174.373 158.549C175.586 159.438 175.979 160.778 175.807 162.354C175.673 163.577 175.083 164.109 174.395 165.057C173.289 166.583 170.347 168.133 170.347 168.133C170.347 168.133 167.375 167.892 165.675 166.79C164.599 166.092 163.618 165.391 163.061 164.153C162.412 162.711 162.503 161.326 163.385 160.101Z" fill="#F9F7F7"/>
<path d="M144.383 163.929C145.221 163.929 145.94 164.582 146.081 165.408C146.16 165.871 146.269 166.457 146.42 167.187C146.842 169.232 148.479 171.96 149.678 173.704C150.968 175.579 151.778 176.189 154.023 176.962C156.557 177.835 158.555 177.555 161.211 176.962C164.3 176.272 164.49 176.01 166.513 173.704C168.765 171.135 169.575 162.766 170.563 165.904C170.836 166.771 170.836 167.298 170.889 168.204C171.061 171.106 171.151 173.125 169.37 175.545C167.304 178.354 164.748 179.446 161.211 180.217C158.083 180.898 155.93 180.63 152.939 179.625C150.366 178.76 148.825 177.863 147.349 175.722C145.888 173.603 144.447 171.075 143.621 168.674C143.289 167.709 143.046 166.584 142.882 165.672C142.716 164.746 143.442 163.929 144.383 163.929Z" fill="#F9F7F7"/>
<path d="M193.281 157C192.361 157 191.708 157.917 191.959 158.802C192.269 159.899 192.61 161.325 192.706 162.577C192.867 164.659 192.495 166.566 191.39 168.371C190.12 170.446 189.634 170.71 187.692 172.075C185.498 173.616 185.052 174.21 182.335 174.376C179.176 174.568 177.784 173.731 175.202 172.075C172.326 170.23 169.467 162.782 169.386 166.07C169.364 166.979 169.51 167.485 169.71 168.371C170.349 171.207 170.821 173.172 173.202 175.005C175.965 177.132 178.724 177.473 182.335 177.234C185.531 177.023 187.525 176.17 190.12 174.376C192.353 172.832 193.586 171.543 194.412 169.077C195.229 166.637 195.681 165.087 195.294 162.577C195.077 161.165 194.779 159.291 194.591 158.116C194.488 157.472 193.932 157 193.281 157Z" fill="#F9F7F7"/>
<path d="M136.512 140.092C136.122 139.742 135.963 139.201 136.115 138.698C136.513 137.384 137.355 134.778 138.262 133.036C139.234 131.17 141.108 128.708 141.828 127.785C142.022 127.536 142.228 127.304 142.453 127.084C144.051 125.519 151.13 118.884 157.774 117.377C164.576 115.833 168.476 116.266 174.613 118.38C177.967 119.535 179.918 120.339 182.574 122.554C183.713 123.504 184.954 124.993 185.81 126.098C186.364 126.811 186.033 127.834 185.178 128.127C184.718 128.284 184.208 128.184 183.838 127.867C183.018 127.164 181.482 125.873 180.089 124.83C177.446 122.851 175.182 120.875 171.944 119.943C166.513 118.38 164.516 118.428 158.367 119.943C152.65 121.351 147.15 126.555 145.702 128.005C145.452 128.256 145.229 128.522 145.017 128.806C144.213 129.887 142.083 132.784 140.99 134.605C140.056 136.162 139.358 137.995 138.903 139.403C138.578 140.406 137.297 140.797 136.512 140.092Z" fill="#F9F7F7"/>
<path d="M121.302 105.254C122.109 106.277 122.685 107.456 122.981 108.725C123.724 111.922 125.193 118.474 125.928 123.401C126.866 129.688 126.395 133.374 128.402 139.408C129.638 143.126 130.181 145.355 132.378 148.637C133.83 150.807 136.957 155.269 138.303 157.186C138.679 157.72 138.642 158.44 138.216 158.935C137.665 159.574 136.686 159.597 136.117 158.976C134.455 157.16 131.271 153.565 129.586 150.896C127.359 147.37 126.736 145.064 125.469 141.121C123.175 133.978 122.133 128.487 121.302 121.029C120.566 114.425 121.302 105.254 121.302 105.254Z" fill="#F9F7F7"/>
<path d="M121.822 108.146L121.084 104.736C121.084 104.736 125.004 109.304 127.724 111.585C132.017 115.184 135.417 116.049 139.741 119.615C142.448 121.848 146.269 125.737 146.269 125.737L142.619 128.631C142.619 128.631 140.373 125.131 138.274 123.201C133.903 119.18 128.818 118.761 124.698 114.512C122.396 112.137 121.822 108.146 121.822 108.146Z" fill="#F9F7F7"/>
<path d="M192.338 93.7649L192.187 94.8039C192.121 95.2518 192.086 95.7027 192.087 96.1553C192.089 98.5313 192.171 106.638 193.122 112.34C194.168 118.61 196.162 122.085 196.114 128.444C196.084 132.362 196.254 134.649 195.176 138.449C194.463 140.961 192.865 146.17 192.175 148.408C191.982 149.033 192.239 149.706 192.798 150.045C193.518 150.484 194.457 150.204 194.806 149.437C195.828 147.197 197.748 142.795 198.529 139.738C199.56 135.697 199.442 133.311 199.431 129.17C199.412 121.667 198.71 116.122 197.201 108.771C195.866 102.262 192.338 93.7649 192.338 93.7649Z" fill="#F9F7F7"/>
<path d="M192.735 96.6762L192.386 93.2048C192.386 93.2048 190.065 98.7589 188.18 101.768C185.206 106.515 182.239 108.386 179.225 113.111C177.337 116.07 174.902 120.946 174.902 120.946L179.266 122.575C179.266 122.575 180.324 118.552 181.725 116.07C184.644 110.897 188.884 109.506 191.493 104.194C192.952 101.225 192.735 96.6762 192.735 96.6762Z" fill="#F9F7F7"/>
<path fill-rule="evenodd" clip-rule="evenodd" d="M173.249 144.945C174.244 146.207 175.769 147.094 177.478 147.094C180.477 147.094 182.909 144.363 182.909 141.664C182.909 138.965 180.477 136.776 177.478 136.776C176.561 136.776 175.696 136.981 174.938 137.343L174.911 137.468C176.601 137.875 177.635 139.71 177.226 141.604C176.813 143.514 175.006 145.147 173.283 144.793L173.249 144.945Z" fill="#F9F7F7"/>
<path d="M174.791 141.611C174.413 142.428 173.614 142.796 173.07 142.544C172.525 142.291 172.349 141.147 172.728 140.331C173.107 139.515 173.906 139.146 174.45 139.399C174.994 139.651 175.17 140.795 174.791 141.611Z" fill="#F9F7F7"/>
<path fill-rule="evenodd" clip-rule="evenodd" d="M150.441 149.29C151.436 150.553 152.961 151.439 154.67 151.439C157.669 151.439 160.101 148.708 160.101 146.009C160.101 143.31 157.669 141.122 154.67 141.122C153.753 141.122 152.888 141.326 152.13 141.688L152.102 141.814C153.793 142.221 154.827 144.056 154.418 145.949C154.005 147.86 152.198 149.492 150.475 149.139L150.441 149.29Z" fill="#F9F7F7"/>
<path d="M151.983 145.956C151.604 146.772 150.806 147.141 150.261 146.888C149.717 146.636 149.541 145.492 149.92 144.675C150.299 143.859 151.098 143.491 151.642 143.743C152.186 143.996 152.362 145.14 151.983 145.956Z" fill="#F9F7F7"/>
</svg>
