<svg width="302" height="213" viewBox="0 0 302 213" fill="none" xmlns="http://www.w3.org/2000/svg">
<rect width="302" height="213" fill="#6A4AD9"/>
<path d="M61.856 84.5573C63.424 85.6453 64.208 86.7013 64.208 87.7253C64.208 88.3333 63.84 89.1813 63.104 90.2693L52.736 105.773V114.941C52.736 115.677 52.704 116.237 52.64 116.621C52.608 116.973 52.464 117.389 52.208 117.869C51.952 118.349 51.52 118.685 50.912 118.877C50.304 119.069 49.488 119.165 48.464 119.165C47.44 119.165 46.624 119.069 46.016 118.877C45.408 118.685 44.976 118.349 44.72 117.869C44.464 117.357 44.304 116.925 44.24 116.573C44.208 116.189 44.192 115.613 44.192 114.845V105.773L33.824 90.2693C33.088 89.1813 32.72 88.3333 32.72 87.7253C32.72 86.7013 33.424 85.7253 34.832 84.7973C36.24 83.8373 37.248 83.3573 37.856 83.3573C38.464 83.3573 38.944 83.4853 39.296 83.7413C39.84 84.0933 40.416 84.7493 41.024 85.7093L48.464 97.6133L55.904 85.7093C56.512 84.7493 57.04 84.1253 57.488 83.8373C57.936 83.5173 58.448 83.3573 59.024 83.3573C59.632 83.3573 60.576 83.7573 61.856 84.5573ZM77.0079 96.4613C77.1999 94.6693 78.4639 93.7733 80.7999 93.7733C82.0479 93.7733 82.9759 93.8693 83.5839 94.0613C84.1919 94.2533 84.6079 94.5893 84.8319 95.0693C85.0879 95.5493 85.2319 95.9813 85.2639 96.3653C85.3279 96.7173 85.3599 97.2613 85.3599 97.9973V114.797C85.3599 115.533 85.3279 116.093 85.2639 116.477C85.2319 116.829 85.1039 117.245 84.8799 117.725C84.4319 118.557 83.3279 118.973 81.5679 118.973C79.8399 118.973 78.6719 118.765 78.0639 118.349C77.4879 117.901 77.1519 117.261 77.0559 116.429C75.8719 118.125 73.8879 118.973 71.1039 118.973C68.3519 118.973 65.7919 117.709 63.4239 115.181C61.0559 112.653 59.8719 109.725 59.8719 106.397C59.8719 103.037 61.0559 100.109 63.4239 97.6133C65.8239 95.0853 68.4479 93.8213 71.2959 93.8213C72.3839 93.8213 73.3759 94.0133 74.2719 94.3973C75.1679 94.7813 75.7919 95.1493 76.1439 95.5013C76.4959 95.8213 76.7839 96.1413 77.0079 96.4613ZM68.2719 106.445C68.2719 107.501 68.6879 108.461 69.5199 109.325C70.3519 110.157 71.3599 110.573 72.5439 110.573C73.7279 110.573 74.7039 110.141 75.4719 109.277C76.2719 108.413 76.6719 107.469 76.6719 106.445C76.6719 105.389 76.2879 104.413 75.5199 103.517C74.7839 102.621 73.7759 102.173 72.4959 102.173C71.2479 102.173 70.2239 102.621 69.4239 103.517C68.6559 104.413 68.2719 105.389 68.2719 106.445ZM89.1856 125.933V97.9013C89.1856 97.1653 89.2016 96.6213 89.2336 96.2693C89.2976 95.9173 89.4416 95.5173 89.6656 95.0693C90.1136 94.2053 91.1856 93.7733 92.8816 93.7733C94.5776 93.7733 95.7136 93.9973 96.2896 94.4453C96.8976 94.8613 97.2496 95.4853 97.3456 96.3173C98.5616 94.6533 100.466 93.8213 103.058 93.8213C105.682 93.8213 108.162 95.0533 110.498 97.5173C112.834 99.9813 114.002 102.845 114.002 106.109C114.002 109.373 112.834 112.237 110.498 114.701C108.194 117.165 105.73 118.397 103.106 118.397C100.482 118.397 98.5776 117.661 97.3936 116.189V125.885C97.3936 126.621 97.3616 127.165 97.2976 127.517C97.2656 127.869 97.1216 128.269 96.8656 128.717C96.6416 129.197 96.2416 129.533 95.6656 129.725C95.0896 129.917 94.3056 130.013 93.3136 130.013C92.3216 130.013 91.5216 129.917 90.9136 129.725C90.3376 129.533 89.9216 129.213 89.6656 128.765C89.4416 128.317 89.2976 127.917 89.2336 127.565C89.2016 127.213 89.1856 126.669 89.1856 125.933ZM98.6896 103.325C97.9536 104.189 97.5856 105.133 97.5856 106.157C97.5856 107.181 97.9536 108.125 98.6896 108.989C99.4576 109.821 100.418 110.237 101.57 110.237C102.754 110.237 103.746 109.821 104.546 108.989C105.378 108.157 105.794 107.213 105.794 106.157C105.794 105.101 105.41 104.157 104.642 103.325C103.874 102.461 102.866 102.029 101.618 102.029C100.402 102.029 99.4256 102.461 98.6896 103.325ZM117.123 125.933V97.9013C117.123 97.1653 117.139 96.6213 117.171 96.2693C117.235 95.9173 117.379 95.5173 117.603 95.0693C118.051 94.2053 119.123 93.7733 120.819 93.7733C122.515 93.7733 123.651 93.9973 124.227 94.4453C124.835 94.8613 125.187 95.4853 125.283 96.3173C126.499 94.6533 128.403 93.8213 130.995 93.8213C133.619 93.8213 136.099 95.0533 138.435 97.5173C140.771 99.9813 141.939 102.845 141.939 106.109C141.939 109.373 140.771 112.237 138.435 114.701C136.131 117.165 133.667 118.397 131.043 118.397C128.419 118.397 126.515 117.661 125.331 116.189V125.885C125.331 126.621 125.299 127.165 125.235 127.517C125.203 127.869 125.059 128.269 124.803 128.717C124.579 129.197 124.179 129.533 123.603 129.725C123.027 129.917 122.243 130.013 121.251 130.013C120.259 130.013 119.459 129.917 118.851 129.725C118.275 129.533 117.859 129.213 117.603 128.765C117.379 128.317 117.235 127.917 117.171 127.565C117.139 127.213 117.123 126.669 117.123 125.933ZM126.627 103.325C125.891 104.189 125.523 105.133 125.523 106.157C125.523 107.181 125.891 108.125 126.627 108.989C127.395 109.821 128.355 110.237 129.507 110.237C130.691 110.237 131.683 109.821 132.483 108.989C133.315 108.157 133.731 107.213 133.731 106.157C133.731 105.101 133.347 104.157 132.579 103.325C131.811 102.461 130.803 102.029 129.555 102.029C128.339 102.029 127.363 102.461 126.627 103.325ZM169.445 103.421C169.445 105.373 168.949 106.829 167.957 107.789C166.997 108.717 165.925 109.181 164.741 109.181H153.365C153.365 110.077 153.893 110.829 154.949 111.437C156.005 112.045 157.061 112.349 158.117 112.349C159.973 112.349 161.429 112.157 162.485 111.773L163.013 111.581C163.781 111.229 164.421 111.053 164.933 111.053C165.957 111.053 166.837 111.773 167.573 113.213C167.989 114.077 168.197 114.813 168.197 115.421C168.197 118.269 164.789 119.693 157.973 119.693C155.605 119.693 153.493 119.293 151.637 118.493C149.813 117.661 148.389 116.573 147.365 115.229C145.349 112.637 144.341 109.741 144.341 106.541C144.341 102.509 145.637 99.2933 148.229 96.8933C150.853 94.4613 154.117 93.2453 158.021 93.2453C162.469 93.2453 165.733 94.8133 167.813 97.9493C168.901 99.6133 169.445 101.437 169.445 103.421ZM159.317 104.813C160.533 104.813 161.141 104.301 161.141 103.277C161.141 102.541 160.853 101.949 160.277 101.501C159.733 101.053 158.933 100.829 157.877 100.829C156.853 100.829 155.829 101.261 154.805 102.125C153.781 102.957 153.269 103.853 153.269 104.813H159.317ZM189.76 94.0613C190.368 94.2533 190.864 94.5893 191.248 95.0693C191.664 95.5173 191.872 96.2533 191.872 97.2773C191.872 98.3013 191.568 99.4213 190.96 100.637C190.352 101.853 189.472 102.461 188.32 102.461C187.744 102.461 187.184 102.333 186.64 102.077C186.128 101.821 185.44 101.693 184.576 101.693C183.712 101.693 182.896 101.997 182.128 102.605C181.392 103.213 181.024 103.949 181.024 104.813V114.893C181.024 115.629 180.992 116.189 180.928 116.573C180.896 116.925 180.752 117.341 180.496 117.821C180.016 118.653 178.768 119.069 176.752 119.069C175.216 119.069 174.112 118.797 173.44 118.253C172.928 117.805 172.64 117.117 172.576 116.189C172.576 115.869 172.576 115.405 172.576 114.797V97.9493C172.576 97.2133 172.592 96.6693 172.624 96.3173C172.688 95.9333 172.832 95.5173 173.056 95.0693C173.504 94.2053 174.752 93.7733 176.8 93.7733C178.72 93.7733 179.92 94.1413 180.4 94.8773C180.752 95.3893 180.928 95.9173 180.928 96.4613C181.088 96.2373 181.312 95.9653 181.6 95.6453C181.92 95.3253 182.576 94.8933 183.568 94.3493C184.56 93.8053 185.424 93.5333 186.16 93.5333C186.928 93.5333 187.568 93.5813 188.08 93.6773C188.592 93.7413 189.152 93.8693 189.76 94.0613Z" fill="#F9F7F7"/>
<path d="M235.035 119.287C236.11 117.605 236.453 115.463 236.453 115.463C236.453 115.463 237.368 117.43 238.861 118.754C239.645 119.45 242.469 119.461 242.469 119.461C242.469 119.461 243.25 123.816 242.611 126.089C241.945 128.46 240.989 129.73 239.28 130.179C237.315 130.695 235.818 129.455 234.195 127.26C232.779 125.346 231.757 120.951 231.757 120.951C231.757 120.951 234.471 120.17 235.035 119.287Z" fill="#F9F7F7"/>
<path d="M230.12 105.544C231.012 104.306 232.311 104.067 233.698 104.578C234.565 104.897 235.572 106.158 235.572 106.158C235.572 106.158 235.916 104.725 236.531 104.178C237.523 103.295 239.144 103.315 240.237 104.116C241.354 104.934 241.716 106.168 241.557 107.619C241.433 108.745 240.891 109.235 240.257 110.108C239.239 111.512 236.53 112.94 236.53 112.94C236.53 112.94 233.794 112.718 232.228 111.703C231.238 111.061 230.334 110.415 229.822 109.276C229.224 107.947 229.308 106.672 230.12 105.544Z" fill="#F9F7F7"/>
<path d="M212.624 109.069C213.396 109.069 214.058 109.67 214.188 110.431C214.261 110.857 214.361 111.397 214.5 112.069C214.888 113.952 216.396 116.464 217.5 118.069C218.687 119.795 219.433 120.357 221.5 121.069C223.834 121.873 225.673 121.615 228.119 121.069C230.963 120.434 231.137 120.193 233 118.069C235.074 115.704 235.819 107.998 236.729 110.887C236.981 111.685 236.98 112.171 237.029 113.005C237.187 115.677 237.27 117.536 235.631 119.765C233.728 122.351 231.375 123.356 228.119 124.066C225.238 124.693 223.256 124.447 220.502 123.521C218.133 122.725 216.714 121.899 215.355 119.927C214.01 117.977 212.684 115.649 211.923 113.438C211.617 112.549 211.393 111.514 211.242 110.674C211.089 109.822 211.758 109.069 212.624 109.069Z" fill="#F9F7F7"/>
<path d="M257.646 102.69C256.799 102.69 256.198 103.534 256.429 104.349C256.715 105.359 257.028 106.672 257.117 107.824C257.265 109.742 256.922 111.497 255.905 113.159C254.736 115.069 254.289 115.313 252.5 116.569C250.48 117.988 250.07 118.535 247.568 118.688C244.66 118.865 243.378 118.095 241 116.569C238.352 114.871 235.72 108.013 235.646 111.041C235.625 111.877 235.76 112.344 235.943 113.159C236.532 115.77 236.967 117.579 239.159 119.267C241.703 121.226 244.243 121.54 247.568 121.32C250.51 121.125 252.346 120.34 254.736 118.688C256.792 117.267 257.927 116.08 258.687 113.809C259.44 111.562 259.856 110.135 259.5 107.824C259.3 106.524 259.025 104.799 258.852 103.717C258.757 103.124 258.246 102.69 257.646 102.69Z" fill="#F9F7F7"/>
<path d="M205.377 87.1219C205.018 86.7989 204.872 86.3007 205.012 85.8381C205.378 84.6277 206.153 82.2291 206.988 80.6251C207.873 78.9269 209.568 76.6922 210.248 75.8202C210.442 75.5713 210.651 75.336 210.877 75.1154C212.403 73.6242 218.877 67.5858 224.953 66.2067C231.216 64.7853 234.807 65.184 240.458 67.1302C243.546 68.1937 245.342 68.9339 247.788 70.9736C248.836 71.8485 249.979 73.2196 250.768 74.2365C251.277 74.8933 250.972 75.8356 250.186 76.1047C249.762 76.2499 249.292 76.1573 248.952 75.8657C248.196 75.2186 246.782 74.0294 245.5 73.0692C243.067 71.247 240.982 69.4274 238 68.5692C233 67.1302 231.162 67.1748 225.5 68.5692C220.275 69.8561 215.248 74.5853 213.87 75.9615C213.619 76.2122 213.394 76.4796 213.182 76.7642C212.424 77.7844 210.495 80.4111 209.5 82.0692C208.64 83.5032 207.998 85.1908 207.578 86.487C207.28 87.4109 206.1 87.7708 205.377 87.1219Z" fill="#F9F7F7"/>
<path d="M191.373 55.0456C192.116 55.9867 192.647 57.0731 192.918 58.2408C193.603 61.1845 194.955 67.2169 195.632 71.7534C196.496 77.5424 196.062 80.9362 197.91 86.4922C199.048 89.9153 199.548 91.9672 201.571 94.9895C202.908 96.987 205.787 101.096 207.026 102.86C207.372 103.353 207.338 104.015 206.946 104.471C206.439 105.06 205.538 105.081 205.014 104.508C203.483 102.836 200.552 99.5264 199 97.0695C196.95 93.8229 196.376 91.6998 195.21 88.0695C193.097 81.4925 192.138 76.4365 191.373 69.5695C190.695 63.4889 191.373 55.0456 191.373 55.0456Z" fill="#F9F7F7"/>
<path d="M191.852 57.7082L191.172 54.5685C191.172 54.5685 194.781 58.7747 197.286 60.8749C201.238 64.1885 204.369 64.985 208.35 68.2683C210.843 70.3243 214.361 73.9042 214.361 73.9042L211 76.5695C211 76.5695 208.932 73.3465 207 71.5695C202.975 67.8674 198.293 67.4814 194.5 63.5694C192.38 61.3826 191.852 57.7082 191.852 57.7082Z" fill="#F9F7F7"/>
<path d="M256.778 44.4669L256.646 45.3702C256.581 45.8181 256.546 46.2669 256.547 46.7195C256.55 48.9709 256.631 56.3603 257.5 61.5693C258.463 67.3426 260.299 70.5422 260.254 76.3971C260.227 80.0044 260.383 82.1105 259.391 85.6093C258.735 87.9216 257.263 92.7177 256.628 94.7784C256.45 95.3536 256.687 95.9734 257.201 96.2862C257.864 96.6896 258.729 96.432 259.051 95.7258C259.991 93.6634 261.759 89.6109 262.478 86.7954C263.427 83.0747 263.319 80.8781 263.309 77.0652C263.291 70.1572 262.645 65.0519 261.256 58.2834C260.026 52.29 256.778 44.4669 256.778 44.4669Z" fill="#F9F7F7"/>
<path d="M257.143 47.1476L256.822 43.9513C256.822 43.9513 254.685 49.0652 252.95 51.8353C250.211 56.206 247.479 57.9288 244.704 62.2796C242.966 65.004 240.723 69.494 240.723 69.494L244.742 70.9934C244.742 70.9934 245.716 67.2898 247.006 65.0037C249.694 60.2412 253.598 58.9601 256 54.0694C257.343 51.3355 257.143 47.1476 257.143 47.1476Z" fill="#F9F7F7"/>
<path fill-rule="evenodd" clip-rule="evenodd" d="M239.202 91.59C240.119 92.7523 241.522 93.5688 243.096 93.5688C245.857 93.5688 248.096 91.0541 248.096 88.5688C248.096 86.0836 245.857 84.0688 243.096 84.0688C242.251 84.0688 241.455 84.2574 240.758 84.5903L240.732 84.7061C242.288 85.0809 243.24 86.7704 242.864 88.5141C242.484 90.2728 240.82 91.7759 239.233 91.4505L239.202 91.59Z" fill="#F9F7F7"/>
<path d="M240.622 88.5205C240.273 89.2719 239.538 89.6113 239.037 89.3788C238.536 89.1462 238.373 88.0928 238.722 87.3414C239.071 86.5899 239.807 86.2506 240.308 86.4831C240.809 86.7156 240.971 87.7691 240.622 88.5205Z" fill="#F9F7F7"/>
<path fill-rule="evenodd" clip-rule="evenodd" d="M218.202 95.59C219.119 96.7523 220.522 97.5688 222.096 97.5688C224.857 97.5688 227.096 95.0541 227.096 92.5688C227.096 90.0836 224.857 88.0688 222.096 88.0688C221.251 88.0688 220.455 88.2574 219.758 88.5903L219.732 88.7061C221.288 89.0809 222.24 90.7704 221.864 92.5141C221.484 94.2728 219.82 95.7759 218.233 95.4505L218.202 95.59Z" fill="#F9F7F7"/>
<path d="M219.622 92.5205C219.273 93.2719 218.538 93.6113 218.037 93.3788C217.536 93.1462 217.373 92.0928 217.722 91.3414C218.071 90.5899 218.807 90.2506 219.308 90.4831C219.809 90.7156 219.971 91.7691 219.622 92.5205Z" fill="#F9F7F7"/>
</svg>
